<svg width="414" height="92" viewBox="0 0 414 92" fill="none" xmlns="http://www.w3.org/2000/svg">
<rect width="414" height="92" fill="#FAFAFA"/>
<g clip-path="url(#clip0_1_7254)">
<path d="M155.891 41.214H158.075V51H155.891V47.15H151.999V51H149.815V41.214H151.999V45.302H155.891V41.214ZM162.149 47.234C162.149 47.85 162.322 48.354 162.667 48.746C163.022 49.1287 163.47 49.32 164.011 49.32C164.562 49.32 165.01 49.1287 165.355 48.746C165.71 48.354 165.887 47.85 165.887 47.234C165.887 46.618 165.71 46.114 165.355 45.722C165.01 45.33 164.562 45.134 164.011 45.134C163.47 45.134 163.022 45.33 162.667 45.722C162.322 46.114 162.149 46.618 162.149 47.234ZM168.001 47.234C168.001 48.326 167.623 49.2453 166.867 49.992C166.111 50.7387 165.159 51.112 164.011 51.112C162.873 51.112 161.925 50.7387 161.169 49.992C160.413 49.2453 160.035 48.326 160.035 47.234C160.035 46.142 160.413 45.2227 161.169 44.476C161.925 43.72 162.873 43.342 164.011 43.342C165.159 43.342 166.111 43.72 166.867 44.476C167.623 45.2227 168.001 46.142 168.001 47.234ZM176.677 46.94V51H174.563V46.884C174.563 46.2867 174.47 45.848 174.283 45.568C174.106 45.288 173.812 45.148 173.401 45.148C173 45.148 172.64 45.302 172.323 45.61C172.015 45.9087 171.861 46.352 171.861 46.94V51H169.761V43.468H171.861V44.322C172.44 43.6687 173.102 43.342 173.849 43.342C174.325 43.342 174.754 43.482 175.137 43.762C175.529 44.042 175.823 44.3827 176.019 44.784C176.308 44.3267 176.696 43.972 177.181 43.72C177.676 43.468 178.17 43.342 178.665 43.342C179.552 43.342 180.266 43.608 180.807 44.14C181.348 44.6627 181.619 45.4233 181.619 46.422V51H179.505V46.884C179.505 45.7267 179.08 45.148 178.231 45.148C177.811 45.148 177.447 45.302 177.139 45.61C176.831 45.9087 176.677 46.352 176.677 46.94ZM190.253 49.908C189.403 50.7107 188.405 51.112 187.257 51.112C186.118 51.112 185.175 50.762 184.429 50.062C183.682 49.3527 183.309 48.4053 183.309 47.22C183.309 46.0347 183.687 45.092 184.443 44.392C185.208 43.692 186.109 43.342 187.145 43.342C188.181 43.342 189.058 43.6547 189.777 44.28C190.505 44.9053 190.869 45.764 190.869 46.856V47.976H185.381C185.446 48.3867 185.661 48.7227 186.025 48.984C186.389 49.2453 186.799 49.376 187.257 49.376C187.994 49.376 188.601 49.1287 189.077 48.634L190.253 49.908ZM188.741 46.478C188.694 46.03 188.526 45.6847 188.237 45.442C187.947 45.1993 187.593 45.078 187.173 45.078C186.762 45.078 186.384 45.204 186.039 45.456C185.693 45.708 185.493 46.0487 185.437 46.478H188.741Z" fill="#252B42"/>
<g clip-path="url(#clip1_1_7254)">
<path fill-rule="evenodd" clip-rule="evenodd" d="M206.5 51.196L211.859 46L206.5 40.804L207.328 40L213.5 46.003L207.328 52L206.5 51.196Z" fill="#BDBDBD"/>
</g>
<path d="M232.911 42.908C232.547 42.908 232.258 42.9967 232.043 43.174C231.838 43.342 231.735 43.5707 231.735 43.86C231.735 44.14 231.861 44.364 232.113 44.532C232.375 44.7 232.967 44.9007 233.891 45.134C234.825 45.358 235.548 45.6987 236.061 46.156C236.575 46.6133 236.831 47.2807 236.831 48.158C236.831 49.0353 236.5 49.7493 235.837 50.3C235.184 50.8413 234.321 51.112 233.247 51.112C231.698 51.112 230.303 50.538 229.061 49.39L230.363 47.794C231.418 48.718 232.393 49.18 233.289 49.18C233.691 49.18 234.003 49.096 234.227 48.928C234.461 48.7507 234.577 48.5173 234.577 48.228C234.577 47.9293 234.456 47.696 234.213 47.528C233.971 47.3507 233.49 47.1733 232.771 46.996C231.633 46.7253 230.797 46.3753 230.265 45.946C229.743 45.5073 229.481 44.826 229.481 43.902C229.481 42.9687 229.813 42.25 230.475 41.746C231.147 41.242 231.983 40.99 232.981 40.99C233.635 40.99 234.288 41.102 234.941 41.326C235.595 41.55 236.164 41.8673 236.649 42.278L235.543 43.874C234.694 43.23 233.817 42.908 232.911 42.908ZM240.779 46.94V51H238.679V40.612H240.779V44.308C241.414 43.664 242.123 43.342 242.907 43.342C243.7 43.342 244.368 43.622 244.909 44.182C245.45 44.742 245.721 45.4887 245.721 46.422V51H243.621V46.884C243.621 45.7267 243.196 45.148 242.347 45.148C241.927 45.148 241.558 45.302 241.241 45.61C240.933 45.9087 240.779 46.352 240.779 46.94ZM249.501 47.234C249.501 47.85 249.673 48.354 250.019 48.746C250.373 49.1287 250.821 49.32 251.363 49.32C251.913 49.32 252.361 49.1287 252.707 48.746C253.061 48.354 253.239 47.85 253.239 47.234C253.239 46.618 253.061 46.114 252.707 45.722C252.361 45.33 251.913 45.134 251.363 45.134C250.821 45.134 250.373 45.33 250.019 45.722C249.673 46.114 249.501 46.618 249.501 47.234ZM255.353 47.234C255.353 48.326 254.975 49.2453 254.219 49.992C253.463 50.7387 252.511 51.112 251.363 51.112C250.224 51.112 249.277 50.7387 248.521 49.992C247.765 49.2453 247.387 48.326 247.387 47.234C247.387 46.142 247.765 45.2227 248.521 44.476C249.277 43.72 250.224 43.342 251.363 43.342C252.511 43.342 253.463 43.72 254.219 44.476C254.975 45.2227 255.353 46.142 255.353 47.234ZM261.494 43.342C262.372 43.342 263.151 43.7107 263.832 44.448C264.523 45.176 264.868 46.0953 264.868 47.206C264.868 48.3167 264.523 49.2453 263.832 49.992C263.151 50.7387 262.348 51.112 261.424 51.112C260.51 51.112 259.772 50.7433 259.212 50.006V53.716H257.112V43.468H259.212V44.308C259.856 43.664 260.617 43.342 261.494 43.342ZM259.184 47.248C259.184 47.8547 259.352 48.354 259.688 48.746C260.034 49.1287 260.449 49.32 260.934 49.32C261.42 49.32 261.844 49.1287 262.208 48.746C262.572 48.354 262.754 47.8547 262.754 47.248C262.754 46.6413 262.577 46.1327 262.222 45.722C261.868 45.3113 261.443 45.106 260.948 45.106C260.454 45.106 260.034 45.3113 259.688 45.722C259.352 46.1233 259.184 46.632 259.184 47.248Z" fill="#737373"/>
</g>
<defs>
<clipPath id="clip0_1_7254">
<rect width="414" height="44" fill="white" transform="translate(0 24)"/>
</clipPath>
<clipPath id="clip1_1_7254">
<rect width="7" height="12" fill="white" transform="translate(206.5 40)"/>
</clipPath>
</defs>
</svg>
