<svg width="166" height="130" viewBox="0 0 166 130" fill="none" xmlns="http://www.w3.org/2000/svg">
<rect x="5" y="0.148682" width="156" height="52" rx="5" fill="#23A6F0"/>
<path d="M46.5044 31.1487V21.3487H51.2924C52.5244 21.3487 53.4484 21.582 54.0644 22.0487C54.6897 22.5153 55.0024 23.1313 55.0024 23.8967C55.0024 24.41 54.8764 24.858 54.6244 25.2407C54.3724 25.614 54.0271 25.9033 53.5884 26.1087C53.1497 26.314 52.6457 26.4167 52.0764 26.4167L52.3424 25.8427C52.9584 25.8427 53.5044 25.9453 53.9804 26.1507C54.4564 26.3467 54.8251 26.6407 55.0864 27.0327C55.3571 27.4247 55.4924 27.9053 55.4924 28.4747C55.4924 29.3147 55.1611 29.9727 54.4984 30.4487C53.8357 30.9153 52.8604 31.1487 51.5724 31.1487H46.5044ZM48.7584 29.4407H51.4044C51.9924 29.4407 52.4357 29.3473 52.7344 29.1607C53.0424 28.9647 53.1964 28.6567 53.1964 28.2367C53.1964 27.826 53.0424 27.5227 52.7344 27.3267C52.4357 27.1213 51.9924 27.0187 51.4044 27.0187H48.5904V25.3667H51.0124C51.5631 25.3667 51.9831 25.2733 52.2724 25.0867C52.5711 24.8907 52.7204 24.5967 52.7204 24.2047C52.7204 23.822 52.5711 23.5373 52.2724 23.3507C51.9831 23.1547 51.5631 23.0567 51.0124 23.0567H48.7584V29.4407ZM61.7635 31.3167C60.3728 31.3167 59.2855 30.9293 58.5015 30.1547C57.7175 29.38 57.3255 28.274 57.3255 26.8367V21.3487H59.5935V26.7527C59.5935 27.686 59.7848 28.358 60.1675 28.7687C60.5501 29.1793 61.0868 29.3847 61.7775 29.3847C62.4681 29.3847 63.0048 29.1793 63.3875 28.7687C63.7701 28.358 63.9615 27.686 63.9615 26.7527V21.3487H66.2015V26.8367C66.2015 28.274 65.8095 29.38 65.0255 30.1547C64.2415 30.9293 63.1541 31.3167 61.7635 31.3167ZM70.9419 31.1487V27.1447L71.4599 28.5167L67.1479 21.3487H69.5559L72.8599 26.8507H71.4739L74.7919 21.3487H77.0179L72.7059 28.5167L73.2099 27.1447V31.1487H70.9419ZM82.3317 31.1487V21.3487H84.2077L89.9897 28.4047H89.0797V21.3487H91.3197V31.1487H89.4577L83.6617 24.0927H84.5717V31.1487H82.3317ZM98.5984 31.3167C97.8237 31.3167 97.105 31.1907 96.4424 30.9387C95.789 30.6867 95.2197 30.332 94.7344 29.8747C94.2584 29.4173 93.885 28.8807 93.6144 28.2647C93.353 27.6487 93.2224 26.9767 93.2224 26.2487C93.2224 25.5207 93.353 24.8487 93.6144 24.2327C93.885 23.6167 94.263 23.08 94.7484 22.6227C95.2337 22.1653 95.803 21.8107 96.4564 21.5587C97.1097 21.3067 97.819 21.1807 98.5844 21.1807C99.359 21.1807 100.068 21.3067 100.712 21.5587C101.366 21.8107 101.93 22.1653 102.406 22.6227C102.892 23.08 103.27 23.6167 103.54 24.2327C103.811 24.8393 103.946 25.5113 103.946 26.2487C103.946 26.9767 103.811 27.6533 103.54 28.2787C103.27 28.8947 102.892 29.4313 102.406 29.8887C101.93 30.3367 101.366 30.6867 100.712 30.9387C100.068 31.1907 99.3637 31.3167 98.5984 31.3167ZM98.5844 29.3847C99.023 29.3847 99.4244 29.31 99.7884 29.1607C100.162 29.0113 100.488 28.7967 100.768 28.5167C101.048 28.2367 101.263 27.9053 101.412 27.5227C101.571 27.14 101.65 26.7153 101.65 26.2487C101.65 25.782 101.571 25.3573 101.412 24.9747C101.263 24.592 101.048 24.2607 100.768 23.9807C100.498 23.7007 100.176 23.486 99.8024 23.3367C99.429 23.1873 99.023 23.1127 98.5844 23.1127C98.1457 23.1127 97.7397 23.1873 97.3664 23.3367C97.0024 23.486 96.6804 23.7007 96.4004 23.9807C96.1204 24.2607 95.901 24.592 95.7424 24.9747C95.593 25.3573 95.5184 25.782 95.5184 26.2487C95.5184 26.706 95.593 27.1307 95.7424 27.5227C95.901 27.9053 96.1157 28.2367 96.3864 28.5167C96.6664 28.7967 96.993 29.0113 97.3664 29.1607C97.7397 29.31 98.1457 29.3847 98.5844 29.3847ZM107.888 31.1487L104.682 21.3487H107.034L109.82 30.0287H108.644L111.556 21.3487H113.656L116.456 30.0287H115.322L118.178 21.3487H120.348L117.142 31.1487H114.706L112.228 23.5327H112.872L110.324 31.1487H107.888Z" fill="white"/>
<rect x="1" y="77.6487" width="164" height="51" rx="4.5" stroke="#23A6F0"/>
<path d="M41.9593 108.149V98.3487H44.2273V106.301H49.1413V108.149H41.9593ZM54.1515 108.261C53.2928 108.261 52.5368 108.093 51.8835 107.757C51.2395 107.421 50.7401 106.963 50.3855 106.385C50.0308 105.797 49.8535 105.129 49.8535 104.383C49.8535 103.627 50.0261 102.959 50.3715 102.381C50.7261 101.793 51.2068 101.335 51.8135 101.009C52.4201 100.673 53.1061 100.505 53.8715 100.505C54.6088 100.505 55.2715 100.663 55.8595 100.981C56.4568 101.289 56.9281 101.737 57.2735 102.325C57.6188 102.903 57.7915 103.599 57.7915 104.411C57.7915 104.495 57.7868 104.593 57.7775 104.705C57.7681 104.807 57.7588 104.905 57.7495 104.999H51.6315V103.725H56.6015L55.7615 104.103C55.7615 103.711 55.6821 103.37 55.5235 103.081C55.3648 102.791 55.1455 102.567 54.8655 102.409C54.5855 102.241 54.2588 102.157 53.8855 102.157C53.5121 102.157 53.1808 102.241 52.8915 102.409C52.6115 102.567 52.3921 102.796 52.2335 103.095C52.0748 103.384 51.9955 103.729 51.9955 104.131V104.467C51.9955 104.877 52.0841 105.241 52.2615 105.559C52.4481 105.867 52.7048 106.105 53.0315 106.273C53.3675 106.431 53.7595 106.511 54.2075 106.511C54.6088 106.511 54.9588 106.45 55.2575 106.329C55.5655 106.207 55.8455 106.025 56.0975 105.783L57.2595 107.043C56.9141 107.435 56.4801 107.738 55.9575 107.953C55.4348 108.158 54.8328 108.261 54.1515 108.261ZM63.8604 108.149V106.679L63.7204 106.357V103.725C63.7204 103.258 63.5758 102.894 63.2864 102.633C63.0064 102.371 62.5724 102.241 61.9844 102.241C61.5831 102.241 61.1864 102.306 60.7944 102.437C60.4118 102.558 60.0851 102.726 59.8144 102.941L59.0304 101.415C59.4411 101.125 59.9358 100.901 60.5144 100.743C61.0931 100.584 61.6811 100.505 62.2784 100.505C63.4264 100.505 64.3178 100.775 64.9524 101.317C65.5871 101.858 65.9044 102.703 65.9044 103.851V108.149H63.8604ZM61.5644 108.261C60.9764 108.261 60.4724 108.163 60.0524 107.967C59.6324 107.761 59.3104 107.486 59.0864 107.141C58.8624 106.795 58.7504 106.408 58.7504 105.979C58.7504 105.531 58.8578 105.139 59.0724 104.803C59.2964 104.467 59.6464 104.205 60.1224 104.019C60.5984 103.823 61.2191 103.725 61.9844 103.725H63.9864V104.999H62.2224C61.7091 104.999 61.3544 105.083 61.1584 105.251C60.9718 105.419 60.8784 105.629 60.8784 105.881C60.8784 106.161 60.9858 106.385 61.2004 106.553C61.4244 106.711 61.7278 106.791 62.1104 106.791C62.4744 106.791 62.8011 106.707 63.0904 106.539C63.3798 106.361 63.5898 106.105 63.7204 105.769L64.0564 106.777C63.8978 107.262 63.6084 107.631 63.1884 107.883C62.7684 108.135 62.2271 108.261 61.5644 108.261ZM68.081 108.149V100.617H70.167V102.745L69.873 102.129C70.097 101.597 70.4564 101.195 70.951 100.925C71.4457 100.645 72.0477 100.505 72.757 100.505V102.521C72.6637 102.511 72.5797 102.507 72.505 102.507C72.4304 102.497 72.351 102.493 72.267 102.493C71.6697 102.493 71.1844 102.665 70.811 103.011C70.447 103.347 70.265 103.874 70.265 104.593V108.149H68.081ZM78.8473 100.505C79.4447 100.505 79.9767 100.626 80.4433 100.869C80.9193 101.102 81.2927 101.466 81.5633 101.961C81.834 102.446 81.9693 103.071 81.9693 103.837V108.149H79.7853V104.173C79.7853 103.566 79.65 103.118 79.3793 102.829C79.118 102.539 78.7447 102.395 78.2593 102.395C77.914 102.395 77.6013 102.469 77.3213 102.619C77.0507 102.759 76.836 102.978 76.6773 103.277C76.528 103.575 76.4533 103.958 76.4533 104.425V108.149H74.2693V100.617H76.3553V102.703L75.9633 102.073C76.234 101.569 76.6213 101.181 77.1253 100.911C77.6293 100.64 78.2033 100.505 78.8473 100.505ZM88.4679 108.149V98.3487H90.3439L94.5159 105.265H93.5219L97.6239 98.3487H99.4859L99.5139 108.149H97.3859L97.3719 101.611H97.7639L94.4879 107.113H93.4659L90.1199 101.611H90.5959V108.149H88.4679ZM105.469 108.261C104.666 108.261 103.952 108.093 103.327 107.757C102.711 107.421 102.221 106.963 101.857 106.385C101.502 105.797 101.325 105.129 101.325 104.383C101.325 103.627 101.502 102.959 101.857 102.381C102.221 101.793 102.711 101.335 103.327 101.009C103.952 100.673 104.666 100.505 105.469 100.505C106.262 100.505 106.972 100.673 107.597 101.009C108.222 101.335 108.712 101.788 109.067 102.367C109.422 102.945 109.599 103.617 109.599 104.383C109.599 105.129 109.422 105.797 109.067 106.385C108.712 106.963 108.222 107.421 107.597 107.757C106.972 108.093 106.262 108.261 105.469 108.261ZM105.469 106.469C105.833 106.469 106.16 106.385 106.449 106.217C106.738 106.049 106.967 105.811 107.135 105.503C107.303 105.185 107.387 104.812 107.387 104.383C107.387 103.944 107.303 103.571 107.135 103.263C106.967 102.955 106.738 102.717 106.449 102.549C106.16 102.381 105.833 102.297 105.469 102.297C105.105 102.297 104.778 102.381 104.489 102.549C104.2 102.717 103.966 102.955 103.789 103.263C103.621 103.571 103.537 103.944 103.537 104.383C103.537 104.812 103.621 105.185 103.789 105.503C103.966 105.811 104.2 106.049 104.489 106.217C104.778 106.385 105.105 106.469 105.469 106.469ZM111.259 108.149V100.617H113.345V102.745L113.051 102.129C113.275 101.597 113.634 101.195 114.129 100.925C114.623 100.645 115.225 100.505 115.935 100.505V102.521C115.841 102.511 115.757 102.507 115.683 102.507C115.608 102.497 115.529 102.493 115.445 102.493C114.847 102.493 114.362 102.665 113.989 103.011C113.625 103.347 113.443 103.874 113.443 104.593V108.149H111.259ZM121.117 108.261C120.258 108.261 119.502 108.093 118.849 107.757C118.205 107.421 117.705 106.963 117.351 106.385C116.996 105.797 116.819 105.129 116.819 104.383C116.819 103.627 116.991 102.959 117.337 102.381C117.691 101.793 118.172 101.335 118.779 101.009C119.385 100.673 120.071 100.505 120.837 100.505C121.574 100.505 122.237 100.663 122.825 100.981C123.422 101.289 123.893 101.737 124.239 102.325C124.584 102.903 124.757 103.599 124.757 104.411C124.757 104.495 124.752 104.593 124.743 104.705C124.733 104.807 124.724 104.905 124.715 104.999H118.597V103.725H123.567L122.727 104.103C122.727 103.711 122.647 103.37 122.489 103.081C122.33 102.791 122.111 102.567 121.831 102.409C121.551 102.241 121.224 102.157 120.851 102.157C120.477 102.157 120.146 102.241 119.857 102.409C119.577 102.567 119.357 102.796 119.199 103.095C119.04 103.384 118.961 103.729 118.961 104.131V104.467C118.961 104.877 119.049 105.241 119.227 105.559C119.413 105.867 119.67 106.105 119.997 106.273C120.333 106.431 120.725 106.511 121.173 106.511C121.574 106.511 121.924 106.45 122.223 106.329C122.531 106.207 122.811 106.025 123.063 105.783L124.225 107.043C123.879 107.435 123.445 107.738 122.923 107.953C122.4 108.158 121.798 108.261 121.117 108.261Z" fill="#23A6F0"/>
</svg>
