<svg width="1440" height="479" viewBox="0 0 1440 479" fill="none" xmlns="http://www.w3.org/2000/svg">
<rect width="1440" height="479" fill="#FAFAFA"/>
<g clip-path="url(#clip0_232_334)">
<g clip-path="url(#clip1_232_334)">
<path d="M487.68 119H475.44V91.04H486.32C488.213 91.04 489.84 91.2667 491.2 91.72C492.587 92.1733 493.627 92.7867 494.32 93.56C495.573 95 496.2 96.6267 496.2 98.44C496.2 100.627 495.493 102.253 494.08 103.32C493.6 103.693 493.267 103.933 493.08 104.04C492.893 104.12 492.56 104.267 492.08 104.48C493.813 104.853 495.187 105.64 496.2 106.84C497.24 108.013 497.76 109.48 497.76 111.24C497.76 113.187 497.093 114.907 495.76 116.4C494.213 118.133 491.52 119 487.68 119ZM481.68 102.36H484.64C486.373 102.36 487.653 102.173 488.48 101.8C489.333 101.427 489.76 100.627 489.76 99.4C489.76 98.1467 489.373 97.32 488.6 96.92C487.827 96.52 486.52 96.32 484.68 96.32H481.68V102.36ZM481.68 113.72H485.96C487.747 113.72 489.08 113.507 489.96 113.08C490.867 112.627 491.32 111.76 491.32 110.48C491.32 109.173 490.84 108.32 489.88 107.92C488.947 107.493 487.44 107.28 485.36 107.28H481.68V113.72ZM508.618 119H502.618V97.48H508.618V119ZM503.098 94.76C502.431 94.0667 502.098 93.2267 502.098 92.24C502.098 91.2533 502.431 90.4267 503.098 89.76C503.791 89.0667 504.631 88.72 505.618 88.72C506.605 88.72 507.431 89.0667 508.098 89.76C508.791 90.4267 509.138 91.2533 509.138 92.24C509.138 93.2267 508.791 94.0667 508.098 94.76C507.431 95.4267 506.605 95.76 505.618 95.76C504.631 95.76 503.791 95.4267 503.098 94.76ZM529.578 107.8C529.578 106.067 529.098 104.707 528.138 103.72C527.178 102.733 525.991 102.24 524.578 102.24C523.164 102.24 521.938 102.733 520.898 103.72C519.884 104.707 519.378 106.053 519.378 107.76C519.378 109.467 519.871 110.853 520.858 111.92C521.871 112.96 523.098 113.48 524.538 113.48C525.978 113.48 527.178 112.96 528.138 111.92C529.098 110.88 529.578 109.507 529.578 107.8ZM530.418 115.36C528.524 117.467 526.164 118.52 523.338 118.52C520.538 118.52 518.164 117.573 516.218 115.68C514.298 113.76 513.338 111.213 513.338 108.04C513.338 104.84 514.324 102.227 516.298 100.2C518.298 98.1467 520.578 97.12 523.138 97.12C525.698 97.12 527.818 98.1733 529.498 100.28V97.44H535.498V116.2C535.498 118.12 535.164 119.827 534.498 121.32C533.831 122.813 532.938 123.987 531.818 124.84C529.604 126.6 526.991 127.48 523.978 127.48C522.378 127.48 520.738 127.213 519.058 126.68C517.404 126.173 515.951 125.44 514.698 124.48L517.018 119.96C518.991 121.453 521.071 122.2 523.258 122.2C525.471 122.2 527.218 121.653 528.498 120.56C529.778 119.467 530.418 117.733 530.418 115.36ZM565.564 113.48C568.631 113.48 571.138 112.267 573.084 109.84L577.084 113.96C573.911 117.533 570.164 119.32 565.844 119.32C561.551 119.32 558.004 117.96 555.204 115.24C552.431 112.52 551.044 109.093 551.044 104.96C551.044 100.8 552.458 97.3333 555.284 94.56C558.138 91.7867 561.618 90.4 565.724 90.4C570.311 90.4 574.151 92.1467 577.244 95.64L573.364 100.04C571.391 97.5867 568.938 96.36 566.004 96.36C563.658 96.36 561.644 97.1333 559.964 98.68C558.311 100.2 557.484 102.267 557.484 104.88C557.484 107.467 558.271 109.547 559.844 111.12C561.418 112.693 563.324 113.48 565.564 113.48ZM585.562 108.24C585.562 110 586.055 111.44 587.042 112.56C588.055 113.653 589.335 114.2 590.882 114.2C592.455 114.2 593.735 113.653 594.722 112.56C595.735 111.44 596.242 110 596.242 108.24C596.242 106.48 595.735 105.04 594.722 103.92C593.735 102.8 592.455 102.24 590.882 102.24C589.335 102.24 588.055 102.8 587.042 103.92C586.055 105.04 585.562 106.48 585.562 108.24ZM602.282 108.24C602.282 111.36 601.202 113.987 599.042 116.12C596.882 118.253 594.162 119.32 590.882 119.32C587.629 119.32 584.922 118.253 582.762 116.12C580.602 113.987 579.522 111.36 579.522 108.24C579.522 105.12 580.602 102.493 582.762 100.36C584.922 98.2 587.629 97.12 590.882 97.12C594.162 97.12 596.882 98.2 599.042 100.36C601.202 102.493 602.282 105.12 602.282 108.24ZM626.698 107.4V119H620.658V107.24C620.658 105.533 620.392 104.28 619.858 103.48C619.352 102.68 618.512 102.28 617.338 102.28C616.192 102.28 615.165 102.72 614.258 103.6C613.378 104.453 612.938 105.72 612.938 107.4V119H606.938V97.48H612.938V99.92C614.592 98.0533 616.485 97.12 618.618 97.12C619.978 97.12 621.205 97.52 622.298 98.32C623.418 99.12 624.258 100.093 624.818 101.24C625.645 99.9333 626.752 98.92 628.138 98.2C629.552 97.48 630.965 97.12 632.378 97.12C634.912 97.12 636.952 97.88 638.498 99.4C640.045 100.893 640.818 103.067 640.818 105.92V119H634.778V107.24C634.778 103.933 633.565 102.28 631.138 102.28C629.938 102.28 628.898 102.72 628.018 103.6C627.138 104.453 626.698 105.72 626.698 107.4ZM658.994 97.12C661.501 97.12 663.728 98.1733 665.674 100.28C667.648 102.36 668.634 104.987 668.634 108.16C668.634 111.333 667.648 113.987 665.674 116.12C663.728 118.253 661.434 119.32 658.794 119.32C656.181 119.32 654.074 118.267 652.474 116.16V126.76H646.474V97.48H652.474V99.88C654.314 98.04 656.488 97.12 658.994 97.12ZM652.394 108.28C652.394 110.013 652.874 111.44 653.834 112.56C654.821 113.653 656.008 114.2 657.394 114.2C658.781 114.2 659.994 113.653 661.034 112.56C662.074 111.44 662.594 110.013 662.594 108.28C662.594 106.547 662.088 105.093 661.074 103.92C660.061 102.747 658.848 102.16 657.434 102.16C656.021 102.16 654.821 102.747 653.834 103.92C652.874 105.067 652.394 106.52 652.394 108.28ZM691.595 119H685.955V116.4C684.408 118.347 682.488 119.32 680.195 119.32C677.928 119.32 676.022 118.667 674.475 117.36C672.928 116.027 672.155 114.267 672.155 112.08C672.155 109.867 672.955 108.213 674.555 107.12C676.155 106.027 678.342 105.48 681.115 105.48H685.595V105.36C685.595 103.067 684.382 101.92 681.955 101.92C680.915 101.92 679.808 102.133 678.635 102.56C677.488 102.96 676.515 103.467 675.715 104.08L673.035 100.2C675.862 98.1467 679.088 97.12 682.715 97.12C685.328 97.12 687.462 97.7733 689.115 99.08C690.768 100.387 691.595 102.453 691.595 105.28V119ZM685.555 110.8V109.76H681.795C679.395 109.76 678.195 110.507 678.195 112C678.195 112.773 678.475 113.373 679.035 113.8C679.622 114.2 680.448 114.4 681.515 114.4C682.582 114.4 683.515 114.08 684.315 113.44C685.142 112.773 685.555 111.893 685.555 110.8ZM703.265 107V119H697.265V97.48H703.265V99.88C705.078 98.04 707.118 97.12 709.385 97.12C711.652 97.12 713.545 97.92 715.065 99.52C716.612 101.12 717.385 103.253 717.385 105.92V119H711.385V106.84C711.385 103.533 710.172 101.88 707.745 101.88C706.545 101.88 705.492 102.32 704.585 103.2C703.705 104.053 703.265 105.32 703.265 107ZM729.012 119H723.012V97.48H729.012V119ZM723.492 94.76C722.825 94.0667 722.492 93.2267 722.492 92.24C722.492 91.2533 722.825 90.4267 723.492 89.76C724.185 89.0667 725.025 88.72 726.012 88.72C726.999 88.72 727.825 89.0667 728.492 89.76C729.185 90.4267 729.532 91.2533 729.532 92.24C729.532 93.2267 729.185 94.0667 728.492 94.76C727.825 95.4267 726.999 95.76 726.012 95.76C725.025 95.76 724.185 95.4267 723.492 94.76ZM753.532 115.88C751.105 118.173 748.252 119.32 744.972 119.32C741.718 119.32 739.025 118.32 736.892 116.32C734.758 114.293 733.692 111.587 733.692 108.2C733.692 104.813 734.772 102.12 736.932 100.12C739.118 98.12 741.692 97.12 744.652 97.12C747.612 97.12 750.118 98.0133 752.172 99.8C754.252 101.587 755.292 104.04 755.292 107.16V110.36H739.612C739.798 111.533 740.412 112.493 741.452 113.24C742.492 113.987 743.665 114.36 744.972 114.36C747.078 114.36 748.812 113.653 750.172 112.24L753.532 115.88ZM749.212 106.08C749.078 104.8 748.598 103.813 747.772 103.12C746.945 102.427 745.932 102.08 744.732 102.08C743.558 102.08 742.478 102.44 741.492 103.16C740.505 103.88 739.932 104.853 739.772 106.08H749.212ZM776.018 112.32C776.018 114.427 775.231 116.12 773.658 117.4C772.111 118.68 770.138 119.32 767.738 119.32C766.138 119.32 764.471 119.04 762.738 118.48C761.005 117.893 759.445 117.04 758.058 115.92L760.698 112.16C762.938 113.893 765.325 114.76 767.858 114.76C768.631 114.76 769.245 114.613 769.698 114.32C770.151 114 770.378 113.587 770.378 113.08C770.378 112.573 770.058 112.107 769.418 111.68C768.805 111.253 767.898 110.853 766.698 110.48C765.525 110.107 764.618 109.787 763.978 109.52C763.365 109.253 762.658 108.867 761.858 108.36C760.231 107.347 759.418 105.853 759.418 103.88C759.418 101.88 760.218 100.253 761.818 99C763.418 97.7467 765.485 97.12 768.018 97.12C770.551 97.12 773.085 97.9733 775.618 99.68L773.378 103.68C771.511 102.4 769.645 101.76 767.778 101.76C765.938 101.76 765.018 102.267 765.018 103.28C765.018 103.84 765.311 104.28 765.898 104.6C766.485 104.92 767.458 105.293 768.818 105.72C770.178 106.147 771.138 106.48 771.698 106.72C772.285 106.933 772.978 107.28 773.778 107.76C775.271 108.667 776.018 110.187 776.018 112.32ZM812.066 119L809.466 112.96H797.746L795.146 119H788.506L800.586 91.04H806.626L818.706 119H812.066ZM803.626 99.36L800.106 107.48H807.106L803.626 99.36ZM832.871 102.76C831.084 102.76 829.751 103.4 828.871 104.68C827.991 105.933 827.551 107.6 827.551 109.68V119H821.551V97.48H827.551V100.32C828.324 99.44 829.284 98.6933 830.431 98.08C831.604 97.4667 832.791 97.1467 833.991 97.12L834.031 102.76H832.871ZM856.836 115.88C854.41 118.173 851.556 119.32 848.276 119.32C845.023 119.32 842.33 118.32 840.196 116.32C838.063 114.293 836.996 111.587 836.996 108.2C836.996 104.813 838.076 102.12 840.236 100.12C842.423 98.12 844.996 97.12 847.956 97.12C850.916 97.12 853.423 98.0133 855.476 99.8C857.556 101.587 858.596 104.04 858.596 107.16V110.36H842.916C843.103 111.533 843.716 112.493 844.756 113.24C845.796 113.987 846.97 114.36 848.276 114.36C850.383 114.36 852.116 113.653 853.476 112.24L856.836 115.88ZM852.516 106.08C852.383 104.8 851.903 103.813 851.076 103.12C850.25 102.427 849.236 102.08 848.036 102.08C846.863 102.08 845.783 102.44 844.796 103.16C843.81 103.88 843.236 104.853 843.076 106.08H852.516ZM891.83 91.04H898.07V119H891.83V108H880.71V119H874.47V91.04H880.71V102.72H891.83V91.04ZM923.178 115.88C920.752 118.173 917.898 119.32 914.618 119.32C911.365 119.32 908.672 118.32 906.538 116.32C904.405 114.293 903.338 111.587 903.338 108.2C903.338 104.813 904.418 102.12 906.578 100.12C908.765 98.12 911.338 97.12 914.298 97.12C917.258 97.12 919.765 98.0133 921.818 99.8C923.898 101.587 924.938 104.04 924.938 107.16V110.36H909.258C909.445 111.533 910.058 112.493 911.098 113.24C912.138 113.987 913.312 114.36 914.618 114.36C916.725 114.36 918.458 113.653 919.818 112.24L923.178 115.88ZM918.858 106.08C918.725 104.8 918.245 103.813 917.418 103.12C916.592 102.427 915.578 102.08 914.378 102.08C913.205 102.08 912.125 102.44 911.138 103.16C910.152 103.88 909.578 104.853 909.418 106.08H918.858ZM940.785 102.76C938.998 102.76 937.665 103.4 936.785 104.68C935.905 105.933 935.465 107.6 935.465 109.68V119H929.465V97.48H935.465V100.32C936.238 99.44 937.198 98.6933 938.345 98.08C939.518 97.4667 940.705 97.1467 941.905 97.12L941.945 102.76H940.785ZM964.75 115.88C962.324 118.173 959.47 119.32 956.19 119.32C952.937 119.32 950.244 118.32 948.11 116.32C945.977 114.293 944.91 111.587 944.91 108.2C944.91 104.813 945.99 102.12 948.15 100.12C950.337 98.12 952.91 97.12 955.87 97.12C958.83 97.12 961.337 98.0133 963.39 99.8C965.47 101.587 966.51 104.04 966.51 107.16V110.36H950.83C951.017 111.533 951.63 112.493 952.67 113.24C953.71 113.987 954.884 114.36 956.19 114.36C958.297 114.36 960.03 113.653 961.39 112.24L964.75 115.88ZM960.43 106.08C960.297 104.8 959.817 103.813 958.99 103.12C958.164 102.427 957.15 102.08 955.95 102.08C954.777 102.08 953.697 102.44 952.71 103.16C951.724 103.88 951.15 104.853 950.99 106.08H960.43Z" fill="#252B42"/>
<path d="M549.441 165.214C550.925 165.214 552.008 165.499 552.689 166.068C553.37 166.637 553.711 167.515 553.711 168.7C553.711 169.885 553.361 170.753 552.661 171.304C551.97 171.855 550.906 172.13 549.469 172.13H547.733V175H546.081V165.214H549.441ZM549.651 170.632C550.566 170.632 551.186 170.459 551.513 170.114C551.849 169.759 552.017 169.246 552.017 168.574C552.017 167.893 551.807 167.412 551.387 167.132C550.967 166.852 550.309 166.712 549.413 166.712H547.733V170.632H549.651ZM559.533 169.022C558.758 169.022 558.175 169.274 557.783 169.778C557.391 170.282 557.195 170.959 557.195 171.808V175H555.627V167.552H557.195V169.05C557.447 168.583 557.788 168.201 558.217 167.902C558.656 167.603 559.118 167.449 559.603 167.44L559.617 169.022C559.589 169.022 559.561 169.022 559.533 169.022ZM562.991 173.04C563.439 173.488 564.004 173.712 564.685 173.712C565.366 173.712 565.926 173.488 566.365 173.04C566.813 172.583 567.037 171.995 567.037 171.276C567.037 170.557 566.813 169.974 566.365 169.526C565.926 169.069 565.366 168.84 564.685 168.84C564.004 168.84 563.439 169.069 562.991 169.526C562.552 169.974 562.333 170.557 562.333 171.276C562.333 171.995 562.552 172.583 562.991 173.04ZM567.485 174.006C566.738 174.743 565.805 175.112 564.685 175.112C563.565 175.112 562.632 174.743 561.885 174.006C561.138 173.259 560.765 172.349 560.765 171.276C560.765 170.203 561.138 169.297 561.885 168.56C562.632 167.813 563.565 167.44 564.685 167.44C565.805 167.44 566.738 167.813 567.485 168.56C568.232 169.297 568.605 170.203 568.605 171.276C568.605 172.349 568.232 173.259 567.485 174.006ZM574.578 167.44C575.576 167.44 576.43 167.785 577.14 168.476C577.849 169.167 578.204 170.086 578.204 171.234C578.204 172.382 577.849 173.315 577.14 174.034C576.44 174.753 575.618 175.112 574.676 175.112C573.742 175.112 572.902 174.701 572.156 173.88V175H570.588V164.612H572.156V168.854C572.772 167.911 573.579 167.44 574.578 167.44ZM572.128 171.29C572.128 171.999 572.342 172.583 572.772 173.04C573.201 173.488 573.724 173.712 574.34 173.712C574.956 173.712 575.492 173.488 575.95 173.04C576.407 172.592 576.636 172.013 576.636 171.304C576.636 170.585 576.412 169.993 575.964 169.526C575.516 169.05 574.979 168.812 574.354 168.812C573.728 168.812 573.201 169.05 572.772 169.526C572.342 169.993 572.128 170.581 572.128 171.29ZM581.762 175H580.194V164.612H581.762V175ZM591.166 171.962H585.328C585.365 172.503 585.612 172.942 586.07 173.278C586.527 173.605 587.05 173.768 587.638 173.768C588.571 173.768 589.28 173.474 589.766 172.886L590.662 173.866C589.859 174.697 588.814 175.112 587.526 175.112C586.48 175.112 585.589 174.767 584.852 174.076C584.124 173.376 583.76 172.443 583.76 171.276C583.76 170.1 584.133 169.167 584.88 168.476C585.626 167.785 586.504 167.44 587.512 167.44C588.529 167.44 589.392 167.748 590.102 168.364C590.811 168.971 591.166 169.811 591.166 170.884V171.962ZM585.328 170.73H589.598C589.598 170.105 589.402 169.624 589.01 169.288C588.618 168.952 588.132 168.784 587.554 168.784C586.984 168.784 586.471 168.961 586.014 169.316C585.556 169.661 585.328 170.133 585.328 170.73ZM594.658 170.968V175H593.09V167.552H594.658V168.91C594.882 168.453 595.218 168.093 595.666 167.832C596.123 167.571 596.613 167.44 597.136 167.44C598.312 167.44 599.11 167.925 599.53 168.896C600.267 167.925 601.187 167.44 602.288 167.44C603.128 167.44 603.805 167.697 604.318 168.21C604.841 168.723 605.102 169.465 605.102 170.436V175H603.534V170.912C603.534 169.54 602.965 168.854 601.826 168.854C601.294 168.854 600.827 169.027 600.426 169.372C600.034 169.708 599.829 170.203 599.81 170.856V175H598.242V170.912C598.242 170.203 598.116 169.685 597.864 169.358C597.612 169.022 597.215 168.854 596.674 168.854C596.133 168.854 595.661 169.036 595.26 169.4C594.859 169.755 594.658 170.277 594.658 170.968ZM612.787 172.774C612.787 173.483 612.531 174.053 612.017 174.482C611.504 174.902 610.846 175.112 610.043 175.112C609.502 175.112 608.937 175.014 608.349 174.818C607.771 174.622 607.257 174.347 606.809 173.992L607.565 172.774C608.433 173.427 609.273 173.754 610.085 173.754C610.44 173.754 610.72 173.675 610.925 173.516C611.131 173.348 611.233 173.138 611.233 172.886C611.233 172.513 610.739 172.177 609.749 171.878C609.675 171.85 609.619 171.831 609.581 171.822C608.032 171.402 607.257 170.702 607.257 169.722C607.257 169.031 607.523 168.481 608.055 168.07C608.597 167.65 609.297 167.44 610.155 167.44C611.014 167.44 611.826 167.692 612.591 168.196L612.003 169.358C611.397 168.957 610.739 168.756 610.029 168.756C609.656 168.756 609.353 168.826 609.119 168.966C608.886 169.097 608.769 169.297 608.769 169.568C608.769 169.811 608.891 169.988 609.133 170.1C609.301 170.184 609.535 170.263 609.833 170.338C610.141 170.413 610.412 170.487 610.645 170.562C610.879 170.637 611.103 170.721 611.317 170.814C611.541 170.907 611.779 171.038 612.031 171.206C612.535 171.542 612.787 172.065 612.787 172.774ZM620.737 168.812V172.592C620.737 172.947 620.831 173.231 621.017 173.446C621.204 173.651 621.465 173.754 621.801 173.754C622.137 173.754 622.459 173.591 622.767 173.264L623.411 174.37C622.861 174.865 622.249 175.112 621.577 175.112C620.915 175.112 620.345 174.883 619.869 174.426C619.403 173.959 619.169 173.334 619.169 172.55V168.812H618.231V167.552H619.169V165.214H620.737V167.552H622.697V168.812H620.737ZM628.763 169.022C627.988 169.022 627.405 169.274 627.013 169.778C626.621 170.282 626.425 170.959 626.425 171.808V175H624.857V167.552H626.425V169.05C626.677 168.583 627.018 168.201 627.447 167.902C627.886 167.603 628.348 167.449 628.833 167.44L628.847 169.022C628.819 169.022 628.791 169.022 628.763 169.022ZM631.559 177.968C630.878 177.968 630.262 177.721 629.711 177.226L630.425 175.952C630.752 176.26 631.088 176.414 631.433 176.414C631.788 176.414 632.073 176.288 632.287 176.036C632.511 175.784 632.623 175.509 632.623 175.21C632.623 175.079 631.62 172.527 629.613 167.552H631.293L633.519 173.04L635.745 167.552H637.425L633.813 176.4C633.599 176.885 633.291 177.268 632.889 177.548C632.488 177.828 632.045 177.968 631.559 177.968ZM640.428 175H638.86V167.552H640.428V175ZM638.958 166.068C638.762 165.872 638.664 165.639 638.664 165.368C638.664 165.097 638.762 164.864 638.958 164.668C639.154 164.472 639.388 164.374 639.658 164.374C639.929 164.374 640.162 164.472 640.358 164.668C640.554 164.864 640.652 165.097 640.652 165.368C640.652 165.639 640.554 165.872 640.358 166.068C640.162 166.264 639.929 166.362 639.658 166.362C639.388 166.362 639.154 166.264 638.958 166.068ZM644.47 170.968V175H642.902V167.552H644.47V168.91C644.722 168.453 645.067 168.093 645.506 167.832C645.954 167.571 646.435 167.44 646.948 167.44C647.788 167.44 648.465 167.697 648.978 168.21C649.501 168.723 649.762 169.465 649.762 170.436V175H648.194V170.912C648.194 169.54 647.625 168.854 646.486 168.854C645.945 168.854 645.473 169.036 645.072 169.4C644.671 169.755 644.47 170.277 644.47 170.968ZM659.041 167.552V174.048C659.041 175.364 658.682 176.349 657.963 177.002C657.254 177.665 656.339 177.996 655.219 177.996C654.099 177.996 653.086 177.646 652.181 176.946L652.923 175.756C653.651 176.307 654.384 176.582 655.121 176.582C655.868 176.582 656.456 176.391 656.885 176.008C657.324 175.625 657.543 175.014 657.543 174.174V173.222C657.31 173.661 656.974 174.011 656.535 174.272C656.106 174.533 655.62 174.664 655.079 174.664C654.09 174.664 653.278 174.319 652.643 173.628C652.008 172.937 651.691 172.079 651.691 171.052C651.691 170.025 652.008 169.167 652.643 168.476C653.278 167.785 654.085 167.44 655.065 167.44C656.054 167.44 656.857 167.846 657.473 168.658V167.552H659.041ZM653.231 170.996C653.231 171.603 653.418 172.13 653.791 172.578C654.174 173.017 654.682 173.236 655.317 173.236C655.961 173.236 656.479 173.021 656.871 172.592C657.272 172.163 657.473 171.631 657.473 170.996C657.473 170.352 657.272 169.811 656.871 169.372C656.47 168.924 655.952 168.7 655.317 168.7C654.682 168.7 654.174 168.929 653.791 169.386C653.418 169.843 653.231 170.38 653.231 170.996ZM667.487 168.812V172.592C667.487 172.947 667.58 173.231 667.767 173.446C667.954 173.651 668.215 173.754 668.551 173.754C668.887 173.754 669.209 173.591 669.517 173.264L670.161 174.37C669.61 174.865 668.999 175.112 668.327 175.112C667.664 175.112 667.095 174.883 666.619 174.426C666.152 173.959 665.919 173.334 665.919 172.55V168.812H664.981V167.552H665.919V165.214H667.487V167.552H669.447V168.812H667.487ZM673.288 173.04C673.736 173.488 674.3 173.712 674.982 173.712C675.663 173.712 676.223 173.488 676.662 173.04C677.11 172.583 677.334 171.995 677.334 171.276C677.334 170.557 677.11 169.974 676.662 169.526C676.223 169.069 675.663 168.84 674.982 168.84C674.3 168.84 673.736 169.069 673.288 169.526C672.849 169.974 672.63 170.557 672.63 171.276C672.63 171.995 672.849 172.583 673.288 173.04ZM677.782 174.006C677.035 174.743 676.102 175.112 674.982 175.112C673.862 175.112 672.928 174.743 672.182 174.006C671.435 173.259 671.062 172.349 671.062 171.276C671.062 170.203 671.435 169.297 672.182 168.56C672.928 167.813 673.862 167.44 674.982 167.44C676.102 167.44 677.035 167.813 677.782 168.56C678.528 169.297 678.902 170.203 678.902 171.276C678.902 172.349 678.528 173.259 677.782 174.006ZM688.832 169.022C688.058 169.022 687.474 169.274 687.082 169.778C686.69 170.282 686.494 170.959 686.494 171.808V175H684.926V167.552H686.494V169.05C686.746 168.583 687.087 168.201 687.516 167.902C687.955 167.603 688.417 167.449 688.902 167.44L688.916 169.022C688.888 169.022 688.86 169.022 688.832 169.022ZM697.621 171.962H691.783C691.82 172.503 692.068 172.942 692.525 173.278C692.982 173.605 693.505 173.768 694.093 173.768C695.026 173.768 695.736 173.474 696.221 172.886L697.117 173.866C696.314 174.697 695.269 175.112 693.981 175.112C692.936 175.112 692.044 174.767 691.307 174.076C690.579 173.376 690.215 172.443 690.215 171.276C690.215 170.1 690.588 169.167 691.335 168.476C692.082 167.785 692.959 167.44 693.967 167.44C694.984 167.44 695.848 167.748 696.557 168.364C697.266 168.971 697.621 169.811 697.621 170.884V171.962ZM691.783 170.73H696.053C696.053 170.105 695.857 169.624 695.465 169.288C695.073 168.952 694.588 168.784 694.009 168.784C693.44 168.784 692.926 168.961 692.469 169.316C692.012 169.661 691.783 170.133 691.783 170.73ZM704.851 172.774C704.851 173.483 704.594 174.053 704.081 174.482C703.568 174.902 702.91 175.112 702.107 175.112C701.566 175.112 701.001 175.014 700.413 174.818C699.834 174.622 699.321 174.347 698.873 173.992L699.629 172.774C700.497 173.427 701.337 173.754 702.149 173.754C702.504 173.754 702.784 173.675 702.989 173.516C703.194 173.348 703.297 173.138 703.297 172.886C703.297 172.513 702.802 172.177 701.813 171.878C701.738 171.85 701.682 171.831 701.645 171.822C700.096 171.402 699.321 170.702 699.321 169.722C699.321 169.031 699.587 168.481 700.119 168.07C700.66 167.65 701.36 167.44 702.219 167.44C703.078 167.44 703.89 167.692 704.655 168.196L704.067 169.358C703.46 168.957 702.802 168.756 702.093 168.756C701.72 168.756 701.416 168.826 701.183 168.966C700.95 169.097 700.833 169.297 700.833 169.568C700.833 169.811 700.954 169.988 701.197 170.1C701.365 170.184 701.598 170.263 701.897 170.338C702.205 170.413 702.476 170.487 702.709 170.562C702.942 170.637 703.166 170.721 703.381 170.814C703.605 170.907 703.843 171.038 704.095 171.206C704.599 171.542 704.851 172.065 704.851 172.774ZM708.563 173.04C709.011 173.488 709.576 173.712 710.257 173.712C710.939 173.712 711.499 173.488 711.937 173.04C712.385 172.583 712.609 171.995 712.609 171.276C712.609 170.557 712.385 169.974 711.937 169.526C711.499 169.069 710.939 168.84 710.257 168.84C709.576 168.84 709.011 169.069 708.563 169.526C708.125 169.974 707.905 170.557 707.905 171.276C707.905 171.995 708.125 172.583 708.563 173.04ZM713.057 174.006C712.311 174.743 711.377 175.112 710.257 175.112C709.137 175.112 708.204 174.743 707.457 174.006C706.711 173.259 706.337 172.349 706.337 171.276C706.337 170.203 706.711 169.297 707.457 168.56C708.204 167.813 709.137 167.44 710.257 167.44C711.377 167.44 712.311 167.813 713.057 168.56C713.804 169.297 714.177 170.203 714.177 171.276C714.177 172.349 713.804 173.259 713.057 174.006ZM717.728 175H716.16V164.612H717.728V175ZM722.176 175L719.18 167.552H720.804L723.072 173.18L725.34 167.552H726.964L723.968 175H722.176ZM735.343 171.962H729.505C729.543 172.503 729.79 172.942 730.247 173.278C730.705 173.605 731.227 173.768 731.815 173.768C732.749 173.768 733.458 173.474 733.943 172.886L734.839 173.866C734.037 174.697 732.991 175.112 731.703 175.112C730.658 175.112 729.767 174.767 729.029 174.076C728.301 173.376 727.937 172.443 727.937 171.276C727.937 170.1 728.311 169.167 729.057 168.476C729.804 167.785 730.681 167.44 731.689 167.44C732.707 167.44 733.57 167.748 734.279 168.364C734.989 168.971 735.343 169.811 735.343 170.884V171.962ZM729.505 170.73H733.775C733.775 170.105 733.579 169.624 733.187 169.288C732.795 168.952 732.31 168.784 731.731 168.784C731.162 168.784 730.649 168.961 730.191 169.316C729.734 169.661 729.505 170.133 729.505 170.73ZM743.242 168.812V172.592C743.242 172.947 743.335 173.231 743.522 173.446C743.708 173.651 743.97 173.754 744.306 173.754C744.642 173.754 744.964 173.591 745.272 173.264L745.916 174.37C745.365 174.865 744.754 175.112 744.082 175.112C743.419 175.112 742.85 174.883 742.374 174.426C741.907 173.959 741.674 173.334 741.674 172.55V168.812H740.736V167.552H741.674V165.214H743.242V167.552H745.202V168.812H743.242ZM748.929 170.968V175H747.361V164.626H748.929V168.91C749.153 168.453 749.489 168.093 749.937 167.832C750.395 167.571 750.885 167.44 751.407 167.44C752.247 167.44 752.924 167.697 753.437 168.21C753.96 168.723 754.221 169.465 754.221 170.436V175H752.653V170.912C752.653 169.54 752.084 168.854 750.945 168.854C750.404 168.854 749.933 169.036 749.531 169.4C749.13 169.755 748.929 170.277 748.929 170.968ZM763.542 171.962H757.704C757.741 172.503 757.989 172.942 758.446 173.278C758.903 173.605 759.426 173.768 760.014 173.768C760.947 173.768 761.657 173.474 762.142 172.886L763.038 173.866C762.235 174.697 761.19 175.112 759.902 175.112C758.857 175.112 757.965 174.767 757.228 174.076C756.5 173.376 756.136 172.443 756.136 171.276C756.136 170.1 756.509 169.167 757.256 168.476C758.003 167.785 758.88 167.44 759.888 167.44C760.905 167.44 761.769 167.748 762.478 168.364C763.187 168.971 763.542 169.811 763.542 170.884V171.962ZM757.704 170.73H761.974C761.974 170.105 761.778 169.624 761.386 169.288C760.994 168.952 760.509 168.784 759.93 168.784C759.361 168.784 758.847 168.961 758.39 169.316C757.933 169.661 757.704 170.133 757.704 170.73ZM772.812 175.112C771.776 175.112 770.885 174.762 770.138 174.062C769.391 173.353 769.018 172.429 769.018 171.29C769.018 170.151 769.405 169.227 770.18 168.518C770.964 167.799 771.916 167.44 773.036 167.44C774.156 167.44 775.103 167.827 775.878 168.602L774.954 169.736C774.31 169.176 773.661 168.896 773.008 168.896C772.355 168.896 771.785 169.115 771.3 169.554C770.824 169.983 770.586 170.543 770.586 171.234C770.586 171.915 770.824 172.494 771.3 172.97C771.776 173.446 772.359 173.684 773.05 173.684C773.75 173.684 774.408 173.367 775.024 172.732L775.948 173.74C775.043 174.655 773.997 175.112 772.812 175.112ZM779.36 173.04C779.808 173.488 780.373 173.712 781.054 173.712C781.735 173.712 782.295 173.488 782.734 173.04C783.182 172.583 783.406 171.995 783.406 171.276C783.406 170.557 783.182 169.974 782.734 169.526C782.295 169.069 781.735 168.84 781.054 168.84C780.373 168.84 779.808 169.069 779.36 169.526C778.921 169.974 778.702 170.557 778.702 171.276C778.702 171.995 778.921 172.583 779.36 173.04ZM783.854 174.006C783.107 174.743 782.174 175.112 781.054 175.112C779.934 175.112 779.001 174.743 778.254 174.006C777.507 173.259 777.134 172.349 777.134 171.276C777.134 170.203 777.507 169.297 778.254 168.56C779.001 167.813 779.934 167.44 781.054 167.44C782.174 167.44 783.107 167.813 783.854 168.56C784.601 169.297 784.974 170.203 784.974 171.276C784.974 172.349 784.601 173.259 783.854 174.006ZM788.525 170.968V175H786.957V167.552H788.525V168.91C788.777 168.453 789.122 168.093 789.561 167.832C790.009 167.571 790.49 167.44 791.003 167.44C791.843 167.44 792.52 167.697 793.033 168.21C793.556 168.723 793.817 169.465 793.817 170.436V175H792.249V170.912C792.249 169.54 791.68 168.854 790.541 168.854C790 168.854 789.528 169.036 789.127 169.4C788.726 169.755 788.525 170.277 788.525 170.968ZM798.071 166.936V167.552H800.031V168.812H798.071V175H796.503V168.812H795.565V167.552H796.503V166.978C796.503 166.194 796.737 165.573 797.203 165.116C797.679 164.649 798.249 164.416 798.911 164.416C799.583 164.416 800.195 164.663 800.745 165.158L800.101 166.264C799.793 165.937 799.471 165.774 799.135 165.774C798.799 165.774 798.538 165.881 798.351 166.096C798.165 166.301 798.071 166.581 798.071 166.936ZM803.308 175H801.74V164.612H803.308V175ZM807.349 175H805.781V167.552H807.349V175ZM805.879 166.068C805.683 165.872 805.585 165.639 805.585 165.368C805.585 165.097 805.683 164.864 805.879 164.668C806.075 164.472 806.309 164.374 806.579 164.374C806.85 164.374 807.083 164.472 807.279 164.668C807.475 164.864 807.573 165.097 807.573 165.368C807.573 165.639 807.475 165.872 807.279 166.068C807.083 166.264 806.85 166.362 806.579 166.362C806.309 166.362 806.075 166.264 805.879 166.068ZM813.127 175.112C812.091 175.112 811.2 174.762 810.453 174.062C809.707 173.353 809.333 172.429 809.333 171.29C809.333 170.151 809.721 169.227 810.495 168.518C811.279 167.799 812.231 167.44 813.351 167.44C814.471 167.44 815.419 167.827 816.193 168.602L815.269 169.736C814.625 169.176 813.977 168.896 813.323 168.896C812.67 168.896 812.101 169.115 811.615 169.554C811.139 169.983 810.901 170.543 810.901 171.234C810.901 171.915 811.139 172.494 811.615 172.97C812.091 173.446 812.675 173.684 813.365 173.684C814.065 173.684 814.723 173.367 815.339 172.732L816.263 173.74C815.358 174.655 814.313 175.112 813.127 175.112ZM820.022 168.812V172.592C820.022 172.947 820.115 173.231 820.302 173.446C820.488 173.651 820.75 173.754 821.086 173.754C821.422 173.754 821.744 173.591 822.052 173.264L822.696 174.37C822.145 174.865 821.534 175.112 820.862 175.112C820.199 175.112 819.63 174.883 819.154 174.426C818.687 173.959 818.454 173.334 818.454 172.55V168.812H817.516V167.552H818.454V165.214H820.022V167.552H821.982V168.812H820.022ZM832.173 167.44C833.172 167.44 834.026 167.785 834.735 168.476C835.444 169.167 835.799 170.086 835.799 171.234C835.799 172.382 835.444 173.315 834.735 174.034C834.035 174.753 833.214 175.112 832.271 175.112C831.338 175.112 830.498 174.701 829.751 173.88V175H828.183V164.612H829.751V168.854C830.367 167.911 831.174 167.44 832.173 167.44ZM829.723 171.29C829.723 171.999 829.938 172.583 830.367 173.04C830.796 173.488 831.319 173.712 831.935 173.712C832.551 173.712 833.088 173.488 833.545 173.04C834.002 172.592 834.231 172.013 834.231 171.304C834.231 170.585 834.007 169.993 833.559 169.526C833.111 169.05 832.574 168.812 831.949 168.812C831.324 168.812 830.796 169.05 830.367 169.526C829.938 169.993 829.723 170.581 829.723 171.29ZM844.719 171.962H838.881C838.919 172.503 839.166 172.942 839.623 173.278C840.081 173.605 840.603 173.768 841.191 173.768C842.125 173.768 842.834 173.474 843.319 172.886L844.215 173.866C843.413 174.697 842.367 175.112 841.079 175.112C840.034 175.112 839.143 174.767 838.405 174.076C837.677 173.376 837.313 172.443 837.313 171.276C837.313 170.1 837.687 169.167 838.433 168.476C839.18 167.785 840.057 167.44 841.065 167.44C842.083 167.44 842.946 167.748 843.655 168.364C844.365 168.971 844.719 169.811 844.719 170.884V171.962ZM838.881 170.73H843.151C843.151 170.105 842.955 169.624 842.563 169.288C842.171 168.952 841.686 168.784 841.107 168.784C840.538 168.784 840.025 168.961 839.567 169.316C839.11 169.661 838.881 170.133 838.881 170.73ZM848.521 168.812V172.592C848.521 172.947 848.614 173.231 848.801 173.446C848.988 173.651 849.249 173.754 849.585 173.754C849.921 173.754 850.243 173.591 850.551 173.264L851.195 174.37C850.644 174.865 850.033 175.112 849.361 175.112C848.698 175.112 848.129 174.883 847.653 174.426C847.186 173.959 846.953 173.334 846.953 172.55V168.812H846.015V167.552H846.953V165.214H848.521V167.552H850.481V168.812H848.521ZM856.126 175H854.334L851.758 167.552H853.382L855.23 173.18L857.078 167.552H858.702L860.55 173.18L862.398 167.552H864.022L861.446 175H859.654L857.89 169.904L856.126 175ZM872.54 171.962H866.702C866.739 172.503 866.987 172.942 867.444 173.278C867.901 173.605 868.424 173.768 869.012 173.768C869.945 173.768 870.655 173.474 871.14 172.886L872.036 173.866C871.233 174.697 870.188 175.112 868.9 175.112C867.855 175.112 866.963 174.767 866.226 174.076C865.498 173.376 865.134 172.443 865.134 171.276C865.134 170.1 865.507 169.167 866.254 168.476C867.001 167.785 867.878 167.44 868.886 167.44C869.903 167.44 870.767 167.748 871.476 168.364C872.185 168.971 872.54 169.811 872.54 170.884V171.962ZM866.702 170.73H870.972C870.972 170.105 870.776 169.624 870.384 169.288C869.992 168.952 869.507 168.784 868.928 168.784C868.359 168.784 867.845 168.961 867.388 169.316C866.931 169.661 866.702 170.133 866.702 170.73ZM881.394 171.962H875.556C875.594 172.503 875.841 172.942 876.298 173.278C876.756 173.605 877.278 173.768 877.866 173.768C878.8 173.768 879.509 173.474 879.994 172.886L880.89 173.866C880.088 174.697 879.042 175.112 877.754 175.112C876.709 175.112 875.818 174.767 875.08 174.076C874.352 173.376 873.988 172.443 873.988 171.276C873.988 170.1 874.362 169.167 875.108 168.476C875.855 167.785 876.732 167.44 877.74 167.44C878.758 167.44 879.621 167.748 880.33 168.364C881.04 168.971 881.394 169.811 881.394 170.884V171.962ZM875.556 170.73H879.826C879.826 170.105 879.63 169.624 879.238 169.288C878.846 168.952 878.361 168.784 877.782 168.784C877.213 168.784 876.7 168.961 876.242 169.316C875.785 169.661 875.556 170.133 875.556 170.73ZM884.887 170.968V175H883.319V167.552H884.887V168.91C885.139 168.453 885.484 168.093 885.923 167.832C886.371 167.571 886.851 167.44 887.365 167.44C888.205 167.44 888.881 167.697 889.395 168.21C889.917 168.723 890.179 169.465 890.179 170.436V175H888.611V170.912C888.611 169.54 888.041 168.854 886.903 168.854C886.361 168.854 885.89 169.036 885.489 169.4C885.087 169.755 884.887 170.277 884.887 170.968ZM488.751 188.812V192.592C488.751 192.947 488.844 193.231 489.031 193.446C489.217 193.651 489.479 193.754 489.815 193.754C490.151 193.754 490.473 193.591 490.781 193.264L491.425 194.37C490.874 194.865 490.263 195.112 489.591 195.112C488.928 195.112 488.359 194.883 487.883 194.426C487.416 193.959 487.183 193.334 487.183 192.55V188.812H486.245V187.552H487.183V185.214H488.751V187.552H490.711V188.812H488.751ZM494.438 190.968V195H492.87V184.626H494.438V188.91C494.662 188.453 494.998 188.093 495.446 187.832C495.904 187.571 496.394 187.44 496.916 187.44C497.756 187.44 498.433 187.697 498.946 188.21C499.469 188.723 499.73 189.465 499.73 190.436V195H498.162V190.912C498.162 189.54 497.593 188.854 496.454 188.854C495.913 188.854 495.442 189.036 495.04 189.4C494.639 189.755 494.438 190.277 494.438 190.968ZM509.051 191.962H503.213C503.25 192.503 503.498 192.942 503.955 193.278C504.412 193.605 504.935 193.768 505.523 193.768C506.456 193.768 507.166 193.474 507.651 192.886L508.547 193.866C507.744 194.697 506.699 195.112 505.411 195.112C504.366 195.112 503.474 194.767 502.737 194.076C502.009 193.376 501.645 192.443 501.645 191.276C501.645 190.1 502.018 189.167 502.765 188.476C503.512 187.785 504.389 187.44 505.397 187.44C506.414 187.44 507.278 187.748 507.987 188.364C508.696 188.971 509.051 189.811 509.051 190.884V191.962ZM503.213 190.73H507.483C507.483 190.105 507.287 189.624 506.895 189.288C506.503 188.952 506.018 188.784 505.439 188.784C504.87 188.784 504.356 188.961 503.899 189.316C503.442 189.661 503.213 190.133 503.213 190.73ZM516.949 188.812V192.592C516.949 192.947 517.043 193.231 517.229 193.446C517.416 193.651 517.677 193.754 518.013 193.754C518.349 193.754 518.671 193.591 518.979 193.264L519.623 194.37C519.073 194.865 518.461 195.112 517.789 195.112C517.127 195.112 516.557 194.883 516.081 194.426C515.615 193.959 515.381 193.334 515.381 192.55V188.812H514.443V187.552H515.381V185.214H516.949V187.552H518.909V188.812H516.949ZM524.555 195H522.763L520.187 187.552H521.811L523.659 193.18L525.507 187.552H527.131L528.979 193.18L530.827 187.552H532.451L529.875 195H528.083L526.319 189.904L524.555 195ZM535.679 193.04C536.127 193.488 536.691 193.712 537.373 193.712C538.054 193.712 538.614 193.488 539.053 193.04C539.501 192.583 539.725 191.995 539.725 191.276C539.725 190.557 539.501 189.974 539.053 189.526C538.614 189.069 538.054 188.84 537.373 188.84C536.691 188.84 536.127 189.069 535.679 189.526C535.24 189.974 535.021 190.557 535.021 191.276C535.021 191.995 535.24 192.583 535.679 193.04ZM540.173 194.006C539.426 194.743 538.493 195.112 537.373 195.112C536.253 195.112 535.319 194.743 534.573 194.006C533.826 193.259 533.453 192.349 533.453 191.276C533.453 190.203 533.826 189.297 534.573 188.56C535.319 187.813 536.253 187.44 537.373 187.44C538.493 187.44 539.426 187.813 540.173 188.56C540.919 189.297 541.293 190.203 541.293 191.276C541.293 192.349 540.919 193.259 540.173 194.006ZM548.885 190.968V195H547.317V187.552H548.885V188.91C549.109 188.453 549.445 188.093 549.893 187.832C550.351 187.571 550.841 187.44 551.363 187.44C552.539 187.44 553.337 187.925 553.757 188.896C554.495 187.925 555.414 187.44 556.515 187.44C557.355 187.44 558.032 187.697 558.545 188.21C559.068 188.723 559.329 189.465 559.329 190.436V195H557.761V190.912C557.761 189.54 557.192 188.854 556.053 188.854C555.521 188.854 555.055 189.027 554.653 189.372C554.261 189.708 554.056 190.203 554.037 190.856V195H552.469V190.912C552.469 190.203 552.343 189.685 552.091 189.358C551.839 189.022 551.443 188.854 550.901 188.854C550.36 188.854 549.889 189.036 549.487 189.4C549.086 189.755 548.885 190.277 548.885 190.968ZM567.743 195H566.315V194.006C565.699 194.743 564.873 195.112 563.837 195.112C563.062 195.112 562.418 194.893 561.905 194.454C561.401 194.015 561.149 193.432 561.149 192.704C561.149 191.967 561.419 191.416 561.961 191.052C562.502 190.688 563.235 190.506 564.159 190.506H566.189V190.226C566.189 189.237 565.638 188.742 564.537 188.742C563.846 188.742 563.127 188.994 562.381 189.498L561.681 188.518C562.586 187.799 563.613 187.44 564.761 187.44C565.638 187.44 566.352 187.664 566.903 188.112C567.463 188.551 567.743 189.246 567.743 190.198V195ZM566.175 192.228V191.598H564.411C563.281 191.598 562.717 191.953 562.717 192.662C562.717 193.026 562.857 193.306 563.137 193.502C563.417 193.689 563.804 193.782 564.299 193.782C564.803 193.782 565.241 193.642 565.615 193.362C565.988 193.082 566.175 192.704 566.175 192.228ZM570.125 195.35V187.552H571.693V195.406C571.693 196.19 571.455 196.811 570.979 197.268C570.513 197.735 569.943 197.968 569.271 197.968C568.609 197.968 568.002 197.721 567.451 197.226L568.179 196.05C568.497 196.358 568.814 196.512 569.131 196.512C569.458 196.512 569.705 196.409 569.873 196.204C570.041 195.999 570.125 195.714 570.125 195.35ZM570.195 186.068C569.999 185.872 569.901 185.639 569.901 185.368C569.901 185.097 569.999 184.864 570.195 184.668C570.391 184.472 570.625 184.374 570.895 184.374C571.166 184.374 571.399 184.472 571.595 184.668C571.791 184.864 571.889 185.097 571.889 185.368C571.889 185.639 571.791 185.872 571.595 186.068C571.399 186.264 571.166 186.362 570.895 186.362C570.625 186.362 570.391 186.264 570.195 186.068ZM575.903 193.04C576.351 193.488 576.916 193.712 577.597 193.712C578.279 193.712 578.839 193.488 579.277 193.04C579.725 192.583 579.949 191.995 579.949 191.276C579.949 190.557 579.725 189.974 579.277 189.526C578.839 189.069 578.279 188.84 577.597 188.84C576.916 188.84 576.351 189.069 575.903 189.526C575.465 189.974 575.245 190.557 575.245 191.276C575.245 191.995 575.465 192.583 575.903 193.04ZM580.397 194.006C579.651 194.743 578.717 195.112 577.597 195.112C576.477 195.112 575.544 194.743 574.797 194.006C574.051 193.259 573.677 192.349 573.677 191.276C573.677 190.203 574.051 189.297 574.797 188.56C575.544 187.813 576.477 187.44 577.597 187.44C578.717 187.44 579.651 187.813 580.397 188.56C581.144 189.297 581.517 190.203 581.517 191.276C581.517 192.349 581.144 193.259 580.397 194.006ZM587.406 189.022C586.631 189.022 586.048 189.274 585.656 189.778C585.264 190.282 585.068 190.959 585.068 191.808V195H583.5V187.552H585.068V189.05C585.32 188.583 585.661 188.201 586.09 187.902C586.529 187.603 586.991 187.449 587.476 187.44L587.49 189.022C587.462 189.022 587.434 189.022 587.406 189.022ZM597.212 189.022C596.438 189.022 595.854 189.274 595.462 189.778C595.07 190.282 594.874 190.959 594.874 191.808V195H593.306V187.552H594.874V189.05C595.126 188.583 595.467 188.201 595.896 187.902C596.335 187.603 596.797 187.449 597.282 187.44L597.296 189.022C597.268 189.022 597.24 189.022 597.212 189.022ZM606.001 191.962H600.163C600.2 192.503 600.447 192.942 600.905 193.278C601.362 193.605 601.885 193.768 602.473 193.768C603.406 193.768 604.115 193.474 604.601 192.886L605.497 193.866C604.694 194.697 603.649 195.112 602.361 195.112C601.315 195.112 600.424 194.767 599.687 194.076C598.959 193.376 598.595 192.443 598.595 191.276C598.595 190.1 598.968 189.167 599.715 188.476C600.461 187.785 601.339 187.44 602.347 187.44C603.364 187.44 604.227 187.748 604.937 188.364C605.646 188.971 606.001 189.811 606.001 190.884V191.962ZM600.163 190.73H604.433C604.433 190.105 604.237 189.624 603.845 189.288C603.453 188.952 602.967 188.784 602.389 188.784C601.819 188.784 601.306 188.961 600.849 189.316C600.391 189.661 600.163 190.133 600.163 190.73ZM613.959 195H612.531V194.006C611.915 194.743 611.089 195.112 610.053 195.112C609.278 195.112 608.634 194.893 608.121 194.454C607.617 194.015 607.365 193.432 607.365 192.704C607.365 191.967 607.636 191.416 608.177 191.052C608.718 190.688 609.451 190.506 610.375 190.506H612.405V190.226C612.405 189.237 611.854 188.742 610.753 188.742C610.062 188.742 609.344 188.994 608.597 189.498L607.897 188.518C608.802 187.799 609.829 187.44 610.977 187.44C611.854 187.44 612.568 187.664 613.119 188.112C613.679 188.551 613.959 189.246 613.959 190.198V195ZM612.391 192.228V191.598H610.627C609.498 191.598 608.933 191.953 608.933 192.662C608.933 193.026 609.073 193.306 609.353 193.502C609.633 193.689 610.02 193.782 610.515 193.782C611.019 193.782 611.458 193.642 611.831 193.362C612.204 193.082 612.391 192.704 612.391 192.228ZM617.91 195H616.342V184.612H617.91V195ZM621.952 190.968V195H620.384V187.552H621.952V188.91C622.176 188.453 622.512 188.093 622.96 187.832C623.417 187.571 623.907 187.44 624.43 187.44C625.606 187.44 626.404 187.925 626.824 188.896C627.561 187.925 628.48 187.44 629.582 187.44C630.422 187.44 631.098 187.697 631.612 188.21C632.134 188.723 632.396 189.465 632.396 190.436V195H630.828V190.912C630.828 189.54 630.258 188.854 629.12 188.854C628.588 188.854 628.121 189.027 627.72 189.372C627.328 189.708 627.122 190.203 627.104 190.856V195H625.536V190.912C625.536 190.203 625.41 189.685 625.158 189.358C624.906 189.022 624.509 188.854 623.968 188.854C623.426 188.854 622.955 189.036 622.554 189.4C622.152 189.755 621.952 190.277 621.952 190.968ZM640.081 192.774C640.081 193.483 639.824 194.053 639.311 194.482C638.798 194.902 638.14 195.112 637.337 195.112C636.796 195.112 636.231 195.014 635.643 194.818C635.064 194.622 634.551 194.347 634.103 193.992L634.859 192.774C635.727 193.427 636.567 193.754 637.379 193.754C637.734 193.754 638.014 193.675 638.219 193.516C638.424 193.348 638.527 193.138 638.527 192.886C638.527 192.513 638.032 192.177 637.043 191.878C636.968 191.85 636.912 191.831 636.875 191.822C635.326 191.402 634.551 190.702 634.551 189.722C634.551 189.031 634.817 188.481 635.349 188.07C635.89 187.65 636.59 187.44 637.449 187.44C638.308 187.44 639.12 187.692 639.885 188.196L639.297 189.358C638.69 188.957 638.032 188.756 637.323 188.756C636.95 188.756 636.646 188.826 636.413 188.966C636.18 189.097 636.063 189.297 636.063 189.568C636.063 189.811 636.184 189.988 636.427 190.1C636.595 190.184 636.828 190.263 637.127 190.338C637.435 190.413 637.706 190.487 637.939 190.562C638.172 190.637 638.396 190.721 638.611 190.814C638.835 190.907 639.073 191.038 639.325 191.206C639.829 191.542 640.081 192.065 640.081 192.774ZM647.835 193.04C648.283 193.488 648.848 193.712 649.529 193.712C650.21 193.712 650.77 193.488 651.209 193.04C651.657 192.583 651.881 191.995 651.881 191.276C651.881 190.557 651.657 189.974 651.209 189.526C650.77 189.069 650.21 188.84 649.529 188.84C648.848 188.84 648.283 189.069 647.835 189.526C647.396 189.974 647.177 190.557 647.177 191.276C647.177 191.995 647.396 192.583 647.835 193.04ZM652.329 194.006C651.582 194.743 650.649 195.112 649.529 195.112C648.409 195.112 647.476 194.743 646.729 194.006C645.982 193.259 645.609 192.349 645.609 191.276C645.609 190.203 645.982 189.297 646.729 188.56C647.476 187.813 648.409 187.44 649.529 187.44C650.649 187.44 651.582 187.813 652.329 188.56C653.076 189.297 653.449 190.203 653.449 191.276C653.449 192.349 653.076 193.259 652.329 194.006ZM657.254 186.936V187.552H659.214V188.812H657.254V195H655.686V188.812H654.748V187.552H655.686V186.978C655.686 186.194 655.92 185.573 656.386 185.116C656.862 184.649 657.432 184.416 658.094 184.416C658.766 184.416 659.378 184.663 659.928 185.158L659.284 186.264C658.976 185.937 658.654 185.774 658.318 185.774C657.982 185.774 657.721 185.881 657.534 186.096C657.348 186.301 657.254 186.581 657.254 186.936ZM669.654 193.502C670.224 193.502 670.714 193.409 671.124 193.222C671.535 193.026 671.964 192.718 672.412 192.298L673.476 193.39C672.44 194.538 671.18 195.112 669.696 195.112C668.222 195.112 666.994 194.636 666.014 193.684C665.044 192.732 664.558 191.528 664.558 190.072C664.558 188.616 665.053 187.403 666.042 186.432C667.041 185.461 668.296 184.976 669.808 184.976C671.33 184.976 672.599 185.536 673.616 186.656L672.566 187.804C672.1 187.356 671.656 187.043 671.236 186.866C670.826 186.689 670.34 186.6 669.78 186.6C668.791 186.6 667.96 186.922 667.288 187.566C666.616 188.201 666.28 189.017 666.28 190.016C666.28 191.005 666.612 191.836 667.274 192.508C667.946 193.171 668.74 193.502 669.654 193.502ZM677.041 195H675.473V184.612H677.041V195ZM685.549 195H684.121V194.006C683.505 194.743 682.679 195.112 681.643 195.112C680.868 195.112 680.224 194.893 679.711 194.454C679.207 194.015 678.955 193.432 678.955 192.704C678.955 191.967 679.226 191.416 679.767 191.052C680.308 190.688 681.041 190.506 681.965 190.506H683.995V190.226C683.995 189.237 683.444 188.742 682.343 188.742C681.652 188.742 680.934 188.994 680.187 189.498L679.487 188.518C680.392 187.799 681.419 187.44 682.567 187.44C683.444 187.44 684.158 187.664 684.709 188.112C685.269 188.551 685.549 189.246 685.549 190.198V195ZM683.981 192.228V191.598H682.217C681.088 191.598 680.523 191.953 680.523 192.662C680.523 193.026 680.663 193.306 680.943 193.502C681.223 193.689 681.61 193.782 682.105 193.782C682.609 193.782 683.048 193.642 683.421 193.362C683.794 193.082 683.981 192.704 683.981 192.228ZM693.238 192.774C693.238 193.483 692.981 194.053 692.468 194.482C691.954 194.902 691.296 195.112 690.494 195.112C689.952 195.112 689.388 195.014 688.8 194.818C688.221 194.622 687.708 194.347 687.26 193.992L688.016 192.774C688.884 193.427 689.724 193.754 690.536 193.754C690.89 193.754 691.17 193.675 691.376 193.516C691.581 193.348 691.684 193.138 691.684 192.886C691.684 192.513 691.189 192.177 690.2 191.878C690.125 191.85 690.069 191.831 690.032 191.822C688.482 191.402 687.708 190.702 687.708 189.722C687.708 189.031 687.974 188.481 688.506 188.07C689.047 187.65 689.747 187.44 690.606 187.44C691.464 187.44 692.276 187.692 693.042 188.196L692.454 189.358C691.847 188.957 691.189 188.756 690.48 188.756C690.106 188.756 689.803 188.826 689.57 188.966C689.336 189.097 689.22 189.297 689.22 189.568C689.22 189.811 689.341 189.988 689.584 190.1C689.752 190.184 689.985 190.263 690.284 190.338C690.592 190.413 690.862 190.487 691.096 190.562C691.329 190.637 691.553 190.721 691.768 190.814C691.992 190.907 692.23 191.038 692.482 191.206C692.986 191.542 693.238 192.065 693.238 192.774ZM700.52 192.774C700.52 193.483 700.263 194.053 699.75 194.482C699.236 194.902 698.578 195.112 697.776 195.112C697.234 195.112 696.67 195.014 696.082 194.818C695.503 194.622 694.99 194.347 694.542 193.992L695.298 192.774C696.166 193.427 697.006 193.754 697.818 193.754C698.172 193.754 698.452 193.675 698.658 193.516C698.863 193.348 698.966 193.138 698.966 192.886C698.966 192.513 698.471 192.177 697.482 191.878C697.407 191.85 697.351 191.831 697.314 191.822C695.764 191.402 694.99 190.702 694.99 189.722C694.99 189.031 695.256 188.481 695.788 188.07C696.329 187.65 697.029 187.44 697.888 187.44C698.746 187.44 699.558 187.692 700.324 188.196L699.736 189.358C699.129 188.957 698.471 188.756 697.762 188.756C697.388 188.756 697.085 188.826 696.852 188.966C696.618 189.097 696.502 189.297 696.502 189.568C696.502 189.811 696.623 189.988 696.866 190.1C697.034 190.184 697.267 190.263 697.566 190.338C697.874 190.413 698.144 190.487 698.378 190.562C698.611 190.637 698.835 190.721 699.05 190.814C699.274 190.907 699.512 191.038 699.764 191.206C700.268 191.542 700.52 192.065 700.52 192.774ZM704.064 195H702.496V187.552H704.064V195ZM702.594 186.068C702.398 185.872 702.3 185.639 702.3 185.368C702.3 185.097 702.398 184.864 702.594 184.668C702.79 184.472 703.023 184.374 703.294 184.374C703.564 184.374 703.798 184.472 703.994 184.668C704.19 184.864 704.288 185.097 704.288 185.368C704.288 185.639 704.19 185.872 703.994 186.068C703.798 186.264 703.564 186.362 703.294 186.362C703.023 186.362 702.79 186.264 702.594 186.068ZM709.842 195.112C708.806 195.112 707.914 194.762 707.168 194.062C706.421 193.353 706.048 192.429 706.048 191.29C706.048 190.151 706.435 189.227 707.21 188.518C707.994 187.799 708.946 187.44 710.066 187.44C711.186 187.44 712.133 187.827 712.908 188.602L711.984 189.736C711.34 189.176 710.691 188.896 710.038 188.896C709.384 188.896 708.815 189.115 708.33 189.554C707.854 189.983 707.616 190.543 707.616 191.234C707.616 191.915 707.854 192.494 708.33 192.97C708.806 193.446 709.389 193.684 710.08 193.684C710.78 193.684 711.438 193.367 712.054 192.732L712.978 193.74C712.072 194.655 711.027 195.112 709.842 195.112ZM720.783 195H719.355V194.006C718.739 194.743 717.913 195.112 716.877 195.112C716.103 195.112 715.459 194.893 714.945 194.454C714.441 194.015 714.189 193.432 714.189 192.704C714.189 191.967 714.46 191.416 715.001 191.052C715.543 190.688 716.275 190.506 717.199 190.506H719.229V190.226C719.229 189.237 718.679 188.742 717.577 188.742C716.887 188.742 716.168 188.994 715.421 189.498L714.721 188.518C715.627 187.799 716.653 187.44 717.801 187.44C718.679 187.44 719.393 187.664 719.943 188.112C720.503 188.551 720.783 189.246 720.783 190.198V195ZM719.215 192.228V191.598H717.451C716.322 191.598 715.757 191.953 715.757 192.662C715.757 193.026 715.897 193.306 716.177 193.502C716.457 193.689 716.845 193.782 717.339 193.782C717.843 193.782 718.282 193.642 718.655 193.362C719.029 193.082 719.215 192.704 719.215 192.228ZM724.734 195H723.166V184.612H724.734V195ZM735.24 187.44C736.238 187.44 737.092 187.785 737.802 188.476C738.511 189.167 738.866 190.086 738.866 191.234C738.866 192.382 738.511 193.315 737.802 194.034C737.102 194.753 736.28 195.112 735.338 195.112C734.404 195.112 733.564 194.701 732.818 193.88V197.716H731.25V187.552H732.818V188.854C733.434 187.911 734.241 187.44 735.24 187.44ZM732.79 191.29C732.79 191.999 733.004 192.583 733.434 193.04C733.863 193.488 734.386 193.712 735.002 193.712C735.618 193.712 736.154 193.488 736.612 193.04C737.069 192.592 737.298 192.013 737.298 191.304C737.298 190.585 737.074 189.993 736.626 189.526C736.178 189.05 735.641 188.812 735.016 188.812C734.39 188.812 733.863 189.05 733.434 189.526C733.004 189.993 732.79 190.581 732.79 191.29ZM742.424 190.968V195H740.856V184.626H742.424V188.91C742.648 188.453 742.984 188.093 743.432 187.832C743.889 187.571 744.379 187.44 744.902 187.44C745.742 187.44 746.419 187.697 746.932 188.21C747.455 188.723 747.716 189.465 747.716 190.436V195H746.148V190.912C746.148 189.54 745.579 188.854 744.44 188.854C743.899 188.854 743.427 189.036 743.026 189.4C742.625 189.755 742.424 190.277 742.424 190.968ZM751.045 197.968C750.363 197.968 749.747 197.721 749.197 197.226L749.911 195.952C750.237 196.26 750.573 196.414 750.919 196.414C751.273 196.414 751.558 196.288 751.773 196.036C751.997 195.784 752.109 195.509 752.109 195.21C752.109 195.079 751.105 192.527 749.099 187.552H750.779L753.005 193.04L755.231 187.552H756.911L753.299 196.4C753.084 196.885 752.776 197.268 752.375 197.548C751.973 197.828 751.53 197.968 751.045 197.968ZM763.57 192.774C763.57 193.483 763.313 194.053 762.8 194.482C762.286 194.902 761.628 195.112 760.826 195.112C760.284 195.112 759.72 195.014 759.132 194.818C758.553 194.622 758.04 194.347 757.592 193.992L758.348 192.774C759.216 193.427 760.056 193.754 760.868 193.754C761.222 193.754 761.502 193.675 761.708 193.516C761.913 193.348 762.016 193.138 762.016 192.886C762.016 192.513 761.521 192.177 760.532 191.878C760.457 191.85 760.401 191.831 760.364 191.822C758.814 191.402 758.04 190.702 758.04 189.722C758.04 189.031 758.306 188.481 758.838 188.07C759.379 187.65 760.079 187.44 760.938 187.44C761.796 187.44 762.608 187.692 763.374 188.196L762.786 189.358C762.179 188.957 761.521 188.756 760.812 188.756C760.438 188.756 760.135 188.826 759.902 188.966C759.668 189.097 759.552 189.297 759.552 189.568C759.552 189.811 759.673 189.988 759.916 190.1C760.084 190.184 760.317 190.263 760.616 190.338C760.924 190.413 761.194 190.487 761.428 190.562C761.661 190.637 761.885 190.721 762.1 190.814C762.324 190.907 762.562 191.038 762.814 191.206C763.318 191.542 763.57 192.065 763.57 192.774ZM767.114 195H765.546V187.552H767.114V195ZM765.644 186.068C765.448 185.872 765.35 185.639 765.35 185.368C765.35 185.097 765.448 184.864 765.644 184.668C765.84 184.472 766.073 184.374 766.344 184.374C766.614 184.374 766.848 184.472 767.044 184.668C767.24 184.864 767.338 185.097 767.338 185.368C767.338 185.639 767.24 185.872 767.044 186.068C766.848 186.264 766.614 186.362 766.344 186.362C766.073 186.362 765.84 186.264 765.644 186.068ZM772.891 195.112C771.855 195.112 770.964 194.762 770.217 194.062C769.471 193.353 769.097 192.429 769.097 191.29C769.097 190.151 769.485 189.227 770.259 188.518C771.043 187.799 771.995 187.44 773.115 187.44C774.235 187.44 775.183 187.827 775.957 188.602L775.033 189.736C774.389 189.176 773.741 188.896 773.087 188.896C772.434 188.896 771.865 189.115 771.379 189.554C770.903 189.983 770.665 190.543 770.665 191.234C770.665 191.915 770.903 192.494 771.379 192.97C771.855 193.446 772.439 193.684 773.129 193.684C773.829 193.684 774.487 193.367 775.103 192.732L776.027 193.74C775.122 194.655 774.077 195.112 772.891 195.112ZM783.105 192.774C783.105 193.483 782.849 194.053 782.335 194.482C781.822 194.902 781.164 195.112 780.361 195.112C779.82 195.112 779.255 195.014 778.667 194.818C778.089 194.622 777.575 194.347 777.127 193.992L777.883 192.774C778.751 193.427 779.591 193.754 780.403 193.754C780.758 193.754 781.038 193.675 781.243 193.516C781.449 193.348 781.551 193.138 781.551 192.886C781.551 192.513 781.057 192.177 780.067 191.878C779.993 191.85 779.937 191.831 779.899 191.822C778.35 191.402 777.575 190.702 777.575 189.722C777.575 189.031 777.841 188.481 778.373 188.07C778.915 187.65 779.615 187.44 780.473 187.44C781.332 187.44 782.144 187.692 782.909 188.196L782.321 189.358C781.715 188.957 781.057 188.756 780.347 188.756C779.974 188.756 779.671 188.826 779.437 188.966C779.204 189.097 779.087 189.297 779.087 189.568C779.087 189.811 779.209 189.988 779.451 190.1C779.619 190.184 779.853 190.263 780.151 190.338C780.459 190.413 780.73 190.487 780.963 190.562C781.197 190.637 781.421 190.721 781.635 190.814C781.859 190.907 782.097 191.038 782.349 191.206C782.853 191.542 783.105 192.065 783.105 192.774ZM785.249 194.804C785.053 194.599 784.955 194.351 784.955 194.062C784.955 193.773 785.053 193.53 785.249 193.334C785.455 193.129 785.702 193.026 785.991 193.026C786.281 193.026 786.528 193.129 786.733 193.334C786.939 193.53 787.041 193.773 787.041 194.062C787.041 194.351 786.939 194.599 786.733 194.804C786.528 195.009 786.281 195.112 785.991 195.112C785.702 195.112 785.455 195.009 785.249 194.804ZM785.249 191.374C785.053 191.169 784.955 190.921 784.955 190.632C784.955 190.343 785.053 190.1 785.249 189.904C785.455 189.699 785.702 189.596 785.991 189.596C786.281 189.596 786.528 189.699 786.733 189.904C786.939 190.1 787.041 190.343 787.041 190.632C787.041 190.921 786.939 191.169 786.733 191.374C786.528 191.579 786.281 191.682 785.991 191.682C785.702 191.682 785.455 191.579 785.249 191.374ZM800.985 185.214H802.637V195H800.845L795.301 187.86V195H793.649V185.214H795.301L800.985 192.522V185.214ZM812.258 191.962H806.42C806.457 192.503 806.704 192.942 807.162 193.278C807.619 193.605 808.142 193.768 808.73 193.768C809.663 193.768 810.372 193.474 810.858 192.886L811.754 193.866C810.951 194.697 809.906 195.112 808.618 195.112C807.572 195.112 806.681 194.767 805.944 194.076C805.216 193.376 804.852 192.443 804.852 191.276C804.852 190.1 805.225 189.167 805.972 188.476C806.718 187.785 807.596 187.44 808.604 187.44C809.621 187.44 810.484 187.748 811.194 188.364C811.903 188.971 812.258 189.811 812.258 190.884V191.962ZM806.42 190.73H810.69C810.69 190.105 810.494 189.624 810.102 189.288C809.71 188.952 809.224 188.784 808.646 188.784C808.076 188.784 807.563 188.961 807.106 189.316C806.648 189.661 806.42 190.133 806.42 190.73ZM817.668 195H815.876L813.3 187.552H814.924L816.772 193.18L818.62 187.552H820.244L822.092 193.18L823.94 187.552H825.564L822.988 195H821.196L819.432 189.904L817.668 195ZM829.084 188.812V192.592C829.084 192.947 829.177 193.231 829.364 193.446C829.55 193.651 829.812 193.754 830.148 193.754C830.484 193.754 830.806 193.591 831.114 193.264L831.758 194.37C831.207 194.865 830.596 195.112 829.924 195.112C829.261 195.112 828.692 194.883 828.216 194.426C827.749 193.959 827.516 193.334 827.516 192.55V188.812H826.578V187.552H827.516V185.214H829.084V187.552H831.044V188.812H829.084ZM834.884 193.04C835.332 193.488 835.897 193.712 836.578 193.712C837.26 193.712 837.82 193.488 838.258 193.04C838.706 192.583 838.93 191.995 838.93 191.276C838.93 190.557 838.706 189.974 838.258 189.526C837.82 189.069 837.26 188.84 836.578 188.84C835.897 188.84 835.332 189.069 834.884 189.526C834.446 189.974 834.226 190.557 834.226 191.276C834.226 191.995 834.446 192.583 834.884 193.04ZM839.378 194.006C838.632 194.743 837.698 195.112 836.578 195.112C835.458 195.112 834.525 194.743 833.778 194.006C833.032 193.259 832.658 192.349 832.658 191.276C832.658 190.203 833.032 189.297 833.778 188.56C834.525 187.813 835.458 187.44 836.578 187.44C837.698 187.44 838.632 187.813 839.378 188.56C840.125 189.297 840.498 190.203 840.498 191.276C840.498 192.349 840.125 193.259 839.378 194.006ZM844.049 190.968V195H842.481V187.552H844.049V188.91C844.301 188.453 844.647 188.093 845.085 187.832C845.533 187.571 846.014 187.44 846.527 187.44C847.367 187.44 848.044 187.697 848.557 188.21C849.08 188.723 849.341 189.465 849.341 190.436V195H847.773V190.912C847.773 189.54 847.204 188.854 846.065 188.854C845.524 188.854 845.053 189.036 844.651 189.4C844.25 189.755 844.049 190.277 844.049 190.968ZM853.3 195H851.732V187.552H853.3V195ZM851.83 186.068C851.634 185.872 851.536 185.639 851.536 185.368C851.536 185.097 851.634 184.864 851.83 184.668C852.026 184.472 852.259 184.374 852.53 184.374C852.801 184.374 853.034 184.472 853.23 184.668C853.426 184.864 853.524 185.097 853.524 185.368C853.524 185.639 853.426 185.872 853.23 186.068C853.034 186.264 852.801 186.362 852.53 186.362C852.259 186.362 852.026 186.264 851.83 186.068ZM861.808 195H860.38V194.006C859.764 194.743 858.938 195.112 857.902 195.112C857.127 195.112 856.483 194.893 855.97 194.454C855.466 194.015 855.214 193.432 855.214 192.704C855.214 191.967 855.484 191.416 856.026 191.052C856.567 190.688 857.3 190.506 858.224 190.506H860.254V190.226C860.254 189.237 859.703 188.742 858.602 188.742C857.911 188.742 857.192 188.994 856.446 189.498L855.746 188.518C856.651 187.799 857.678 187.44 858.826 187.44C859.703 187.44 860.417 187.664 860.968 188.112C861.528 188.551 861.808 189.246 861.808 190.198V195ZM860.24 192.228V191.598H858.476C857.346 191.598 856.782 191.953 856.782 192.662C856.782 193.026 856.922 193.306 857.202 193.502C857.482 193.689 857.869 193.782 858.364 193.782C858.868 193.782 859.306 193.642 859.68 193.362C860.053 193.082 860.24 192.704 860.24 192.228ZM865.759 190.968V195H864.191V187.552H865.759V188.91C866.011 188.453 866.356 188.093 866.795 187.832C867.243 187.571 867.723 187.44 868.237 187.44C869.077 187.44 869.753 187.697 870.267 188.21C870.789 188.723 871.051 189.465 871.051 190.436V195H869.483V190.912C869.483 189.54 868.913 188.854 867.775 188.854C867.233 188.854 866.762 189.036 866.361 189.4C865.959 189.755 865.759 190.277 865.759 190.968ZM879.051 190.968V195H877.483V187.552H879.051V188.91C879.275 188.453 879.611 188.093 880.059 187.832C880.517 187.571 881.007 187.44 881.529 187.44C882.705 187.44 883.503 187.925 883.923 188.896C884.661 187.925 885.58 187.44 886.681 187.44C887.521 187.44 888.198 187.697 888.711 188.21C889.234 188.723 889.495 189.465 889.495 190.436V195H887.927V190.912C887.927 189.54 887.358 188.854 886.219 188.854C885.687 188.854 885.221 189.027 884.819 189.372C884.427 189.708 884.222 190.203 884.203 190.856V195H882.635V190.912C882.635 190.203 882.509 189.685 882.257 189.358C882.005 189.022 881.609 188.854 881.067 188.854C880.526 188.854 880.055 189.036 879.653 189.4C879.252 189.755 879.051 190.277 879.051 190.968ZM898.805 191.962H892.967C893.004 192.503 893.251 192.942 893.709 193.278C894.166 193.605 894.689 193.768 895.277 193.768C896.21 193.768 896.919 193.474 897.405 192.886L898.301 193.866C897.498 194.697 896.453 195.112 895.165 195.112C894.119 195.112 893.228 194.767 892.491 194.076C891.763 193.376 891.399 192.443 891.399 191.276C891.399 190.1 891.772 189.167 892.519 188.476C893.265 187.785 894.143 187.44 895.151 187.44C896.168 187.44 897.031 187.748 897.741 188.364C898.45 188.971 898.805 189.811 898.805 190.884V191.962ZM892.967 190.73H897.237C897.237 190.105 897.041 189.624 896.649 189.288C896.257 188.952 895.771 188.784 895.193 188.784C894.623 188.784 894.11 188.961 893.653 189.316C893.195 189.661 892.967 190.133 892.967 190.73ZM904.033 195.112C902.997 195.112 902.106 194.762 901.359 194.062C900.612 193.353 900.239 192.429 900.239 191.29C900.239 190.151 900.626 189.227 901.401 188.518C902.185 187.799 903.137 187.44 904.257 187.44C905.377 187.44 906.324 187.827 907.099 188.602L906.175 189.736C905.531 189.176 904.882 188.896 904.229 188.896C903.576 188.896 903.006 189.115 902.521 189.554C902.045 189.983 901.807 190.543 901.807 191.234C901.807 191.915 902.045 192.494 902.521 192.97C902.997 193.446 903.58 193.684 904.271 193.684C904.971 193.684 905.629 193.367 906.245 192.732L907.169 193.74C906.264 194.655 905.218 195.112 904.033 195.112ZM910.563 190.968V195H908.995V184.626H910.563V188.91C910.787 188.453 911.123 188.093 911.571 187.832C912.029 187.571 912.519 187.44 913.041 187.44C913.881 187.44 914.558 187.697 915.071 188.21C915.594 188.723 915.855 189.465 915.855 190.436V195H914.287V190.912C914.287 189.54 913.718 188.854 912.579 188.854C912.038 188.854 911.567 189.036 911.165 189.4C910.764 189.755 910.563 190.277 910.563 190.968ZM924.28 195H922.852V194.006C922.236 194.743 921.41 195.112 920.374 195.112C919.599 195.112 918.955 194.893 918.442 194.454C917.938 194.015 917.686 193.432 917.686 192.704C917.686 191.967 917.957 191.416 918.498 191.052C919.039 190.688 919.772 190.506 920.696 190.506H922.726V190.226C922.726 189.237 922.175 188.742 921.074 188.742C920.383 188.742 919.665 188.994 918.918 189.498L918.218 188.518C919.123 187.799 920.15 187.44 921.298 187.44C922.175 187.44 922.889 187.664 923.44 188.112C924 188.551 924.28 189.246 924.28 190.198V195ZM922.712 192.228V191.598H920.948C919.819 191.598 919.254 191.953 919.254 192.662C919.254 193.026 919.394 193.306 919.674 193.502C919.954 193.689 920.341 193.782 920.836 193.782C921.34 193.782 921.779 193.642 922.152 193.362C922.525 193.082 922.712 192.704 922.712 192.228ZM928.231 190.968V195H926.663V187.552H928.231V188.91C928.483 188.453 928.828 188.093 929.267 187.832C929.715 187.571 930.196 187.44 930.709 187.44C931.549 187.44 932.226 187.697 932.739 188.21C933.262 188.723 933.523 189.465 933.523 190.436V195H931.955V190.912C931.955 189.54 931.386 188.854 930.247 188.854C929.706 188.854 929.234 189.036 928.833 189.4C928.432 189.755 928.231 190.277 928.231 190.968ZM937.482 195H935.914V187.552H937.482V195ZM936.012 186.068C935.816 185.872 935.718 185.639 935.718 185.368C935.718 185.097 935.816 184.864 936.012 184.668C936.208 184.472 936.441 184.374 936.712 184.374C936.982 184.374 937.216 184.472 937.412 184.668C937.608 184.864 937.706 185.097 937.706 185.368C937.706 185.639 937.608 185.872 937.412 186.068C937.216 186.264 936.982 186.362 936.712 186.362C936.441 186.362 936.208 186.264 936.012 186.068ZM943.259 195.112C942.223 195.112 941.332 194.762 940.585 194.062C939.839 193.353 939.465 192.429 939.465 191.29C939.465 190.151 939.853 189.227 940.627 188.518C941.411 187.799 942.363 187.44 943.483 187.44C944.603 187.44 945.551 187.827 946.325 188.602L945.401 189.736C944.757 189.176 944.109 188.896 943.455 188.896C942.802 188.896 942.233 189.115 941.747 189.554C941.271 189.983 941.033 190.543 941.033 191.234C941.033 191.915 941.271 192.494 941.747 192.97C942.223 193.446 942.807 193.684 943.497 193.684C944.197 193.684 944.855 193.367 945.471 192.732L946.395 193.74C945.49 194.655 944.445 195.112 943.259 195.112ZM953.473 192.774C953.473 193.483 953.217 194.053 952.703 194.482C952.19 194.902 951.532 195.112 950.729 195.112C950.188 195.112 949.623 195.014 949.035 194.818C948.457 194.622 947.943 194.347 947.495 193.992L948.251 192.774C949.119 193.427 949.959 193.754 950.771 193.754C951.126 193.754 951.406 193.675 951.611 193.516C951.817 193.348 951.919 193.138 951.919 192.886C951.919 192.513 951.425 192.177 950.435 191.878C950.361 191.85 950.305 191.831 950.267 191.822C948.718 191.402 947.943 190.702 947.943 189.722C947.943 189.031 948.209 188.481 948.741 188.07C949.283 187.65 949.983 187.44 950.841 187.44C951.7 187.44 952.512 187.692 953.277 188.196L952.689 189.358C952.083 188.957 951.425 188.756 950.715 188.756C950.342 188.756 950.039 188.826 949.805 188.966C949.572 189.097 949.455 189.297 949.455 189.568C949.455 189.811 949.577 189.988 949.819 190.1C949.987 190.184 950.221 190.263 950.519 190.338C950.827 190.413 951.098 190.487 951.331 190.562C951.565 190.637 951.789 190.721 952.003 190.814C952.227 190.907 952.465 191.038 952.717 191.206C953.221 191.542 953.473 192.065 953.473 192.774Z" fill="#737373"/>
</g>
<g clip-path="url(#clip2_232_334)">
<g clip-path="url(#clip3_232_334)">
<path d="M241.255 326.425L247.419 326.553C245.295 325.818 243.235 324.924 241.255 323.871V326.425ZM250.541 325.579V326.425L247.419 326.553C253.293 328.548 258.669 328.819 262.66 327.702C259.457 327.734 255.289 327.287 250.541 325.579ZM316.349 307.19C318.908 307.19 321 305.131 321 302.577C321 300.023 318.924 298.666 316.349 298.666C313.79 298.666 311.698 300.039 311.698 302.577C311.698 305.115 313.774 307.19 316.349 307.19ZM311.682 326.425H321V308.786H311.682V326.425ZM299.82 326.425H309.139V295.25L299.82 299.608V326.425ZM294.831 307.366C291.902 304.461 286.72 304.636 286.72 304.636C286.72 304.636 281.522 304.461 278.609 307.366C275.68 310.271 275.905 312.777 275.905 315.762C275.905 318.747 275.68 321.237 278.609 324.142C281.538 327.047 286.72 326.872 286.72 326.872C286.72 326.872 291.918 327.047 294.831 324.142C297.76 321.237 297.535 318.747 297.535 315.762C297.519 312.761 297.744 310.255 294.831 307.366ZM288.426 318.843C288.426 319.417 288.136 320.838 286.704 320.838C285.272 320.838 284.982 319.417 284.982 318.843V312.394C284.982 311.005 286.157 310.654 286.704 310.654C287.251 310.654 288.426 310.989 288.426 312.394V318.843ZM271.335 307.366C268.406 304.461 263.223 304.636 263.223 304.636C263.223 304.636 258.041 304.461 255.112 307.366C254.806 307.669 254.517 307.988 254.259 308.323C248.111 303.599 242.591 300.901 237.827 298.57V295.266L234.206 296.958C225.451 293.431 219.883 294.053 218.547 296.974C218.547 296.974 214.54 302.21 228.493 314.661V326.425H237.811V321.86C236.765 321.189 235.719 320.471 234.689 319.689C232.307 317.901 230.279 316.241 228.509 314.677V309.728C230.617 312.075 233.418 314.74 237.103 317.757L237.827 318.332V313.575C237.827 312.474 238.101 310.67 239.566 310.67C241.03 310.67 241.271 311.771 241.271 313.064V320.838C244.168 322.785 247.274 324.366 250.558 325.563V310.574C250.558 307.589 248.401 304.604 244.023 304.604C241.481 304.588 239.115 305.913 237.827 308.1V299.432C244.571 302.769 251.33 306.855 253.905 308.739C252.263 311.069 252.408 313.224 252.408 315.714C252.408 318.699 252.183 321.189 255.112 324.094C258.041 327 263.223 326.824 263.223 326.824C263.223 326.824 268.422 327 271.335 324.094C274.264 321.189 274.022 318.699 274.022 315.714C274.022 312.761 274.264 310.255 271.335 307.366ZM228.493 299.608V309.712C220.655 301.013 222.233 297.581 222.828 297.086C225.001 295.266 228.863 295.809 233.192 297.421L228.493 299.608ZM264.945 318.843C264.945 319.417 264.656 320.838 263.223 320.838C261.791 320.838 261.501 319.417 261.501 318.843V312.394C261.501 311.005 262.676 310.654 263.223 310.654C263.771 310.654 264.945 310.989 264.945 312.394V318.843Z" fill="#737373"/>
</g>
</g>
<g clip-path="url(#clip4_232_334)">
<path d="M407.5 282.995H420.112V317.01C420.112 322.405 422.544 325.616 424.521 326.952C422.463 328.761 416.221 330.358 411.52 326.496C408.764 324.214 407.5 320.416 407.5 316.88V282.995ZM486.269 311.273V307.687H490.127V295.17H485.896C484.259 287.624 477.596 282.018 469.637 282.018C460.461 282.018 452.988 289.515 452.988 298.756V327.963C455.582 328.337 458.727 327.914 461.369 325.681C464.141 323.399 465.389 319.618 465.389 316.065V314.973H471.679V302.456H465.389V298.658C465.389 293.019 473.851 293.019 473.851 298.658V311.224C473.851 320.449 481.308 327.963 490.5 327.963V315.494C488.149 315.494 486.269 313.587 486.269 311.273ZM438.56 295.138V313.555C438.56 316.065 434.702 316.065 434.702 313.555V295.138H422.252V316.766C422.252 320.645 423.549 325.567 429.547 327.18C435.545 328.778 438.982 325.453 438.982 325.453C438.641 327.637 436.631 329.25 433.324 329.576C430.811 329.837 427.618 328.989 426.029 328.305V339.763C430.098 340.985 434.378 341.36 438.609 340.529C446.244 339.045 451.059 332.64 451.059 324.1V295.056H438.56V295.138Z" fill="#737373"/>
</g>
<g clip-path="url(#clip5_232_334)">
<path d="M679 274.146C666.122 282.828 664.752 289.129 663.636 291.057C662.568 293.033 661.772 300.825 659.923 304.599C658.058 308.422 651.285 311.435 649.388 312.698C647.523 313.962 644.878 318.87 642.71 323.098C625.482 322.385 616.031 329.383 601.4 338.26C606.086 336.689 608.301 335.555 608.301 335.555C623.314 329.723 630.502 324.491 653.102 327.585C653.277 327.585 653.404 327.682 653.548 327.715C654.169 328.071 654.392 328.832 654.042 329.464L645.452 344.982C645.053 345.744 644.208 346.149 643.364 345.971C623.155 342.115 607.202 348.773 592.539 348.984C580.841 349.162 577 343.557 577 343.298C577 343.12 577.096 343.022 577.271 343.022C577.271 343.022 583.375 343.022 593.702 340.544C605.432 317.817 615.887 309.864 627.267 309.864C627.267 309.864 638.694 309.864 641.706 319.891C645.34 313.46 646.217 311.921 646.217 311.921C647.061 310.398 651.795 299.415 659.987 289.016C668.194 278.649 674.394 276.073 679 274.146Z" fill="#737373"/>
</g>
<g clip-path="url(#clip6_232_334)">
<g clip-path="url(#clip7_232_334)">
<path d="M784.556 293.793L777.587 295.257L777.555 317.911C777.555 322.095 780.741 324.8 784.974 324.8C787.324 324.8 789.046 324.37 789.995 323.861V318.484C789.078 318.85 784.572 320.155 784.572 315.986V305.932H789.995V299.918H784.572L784.556 293.793ZM798.895 302.002L798.461 299.918H792.281V324.291H799.41V307.889C801.1 305.693 803.949 306.123 804.866 306.409V299.918C803.9 299.584 800.569 298.964 798.895 302.002ZM813.75 290.5L806.572 292.011V297.77L813.75 296.259V290.5ZM765.227 307.093C765.227 305.995 766.161 305.566 767.657 305.55C769.83 305.55 772.598 306.202 774.771 307.364V300.714C772.405 299.791 770.039 299.425 767.673 299.425C761.88 299.425 758.017 302.416 758.017 307.411C758.017 315.239 768.88 313.966 768.88 317.339C768.88 318.643 767.738 319.073 766.144 319.073C763.779 319.073 760.721 318.102 758.323 316.814V323.177C760.978 324.307 763.666 324.784 766.128 324.784C772.067 324.784 776.155 322.27 776.155 317.18C776.155 308.764 765.227 310.275 765.227 307.093ZM861.001 312.391C861.001 305.152 857.46 299.441 850.669 299.441C843.877 299.441 839.741 305.152 839.741 312.343C839.741 320.855 844.618 324.784 851.57 324.784C854.982 324.784 857.541 324.02 859.488 322.955V317.641C857.541 318.611 855.304 319.2 852.471 319.2C849.687 319.2 847.241 318.23 846.919 314.92H860.904C860.937 314.555 861.001 313.075 861.001 312.391ZM846.855 309.718C846.855 306.536 848.834 305.2 850.621 305.2C852.375 305.2 854.242 306.536 854.242 309.718H846.855ZM828.685 299.441C825.884 299.441 824.082 300.745 823.084 301.652L822.714 299.902H816.421V332.484L823.567 330.989L823.583 323.002C824.613 323.75 826.142 324.784 828.636 324.784C833.754 324.784 838.421 321.093 838.421 312.12C838.438 303.911 833.706 299.441 828.685 299.441ZM826.979 318.93C825.305 318.93 824.307 318.325 823.615 317.593L823.567 307.093C824.307 306.282 825.337 305.693 826.979 305.693C829.586 305.693 831.389 308.589 831.389 312.28C831.405 316.082 829.634 318.93 826.979 318.93ZM806.588 324.291H813.766V299.918H806.588V324.291Z" fill="#737373"/>
</g>
</g>
<g clip-path="url(#clip8_232_334)">
<g clip-path="url(#clip9_232_334)">
<path d="M967.887 302.988C967.771 306.626 969.604 308.237 969.65 309.26C969.628 309.469 969.557 309.669 969.441 309.844C969.325 310.019 969.169 310.164 968.986 310.268L966.912 311.707C966.644 311.893 966.327 312 966 312.015C965.93 312.012 964.673 312.309 962.682 307.902C961.468 309.405 959.922 310.613 958.164 311.433C956.406 312.253 954.482 312.663 952.54 312.632C949.903 312.775 942.756 311.148 943.123 303.603C942.866 297.455 948.641 293.635 954.613 293.958C955.764 293.961 958.113 294.017 962.226 294.965V292.456C962.661 288.206 959.844 284.909 954.967 285.403C954.578 285.405 951.824 285.323 947.541 287.027C946.349 287.57 946.196 287.48 945.799 287.48C944.599 287.48 945.093 284.03 945.323 283.593C946.167 282.565 951.132 280.646 956.005 280.673C959.263 280.387 962.504 281.384 965.026 283.449C966.052 284.586 966.834 285.918 967.326 287.363C967.818 288.808 968.01 290.338 967.889 291.859L967.887 302.988ZM953.888 308.191C959.141 308.115 961.365 304.983 961.872 303.297C962.271 301.682 962.205 300.661 962.205 298.896C960.638 298.523 958.383 298.117 955.796 298.113C953.342 297.93 948.859 299.018 949.034 303.295C948.834 305.992 950.836 308.339 953.888 308.191ZM981.576 311.893C980.302 312.009 979.71 311.112 979.522 310.227L971.454 283.781C971.297 283.335 971.194 282.874 971.143 282.403C971.114 282.209 971.163 282.011 971.28 281.853C971.397 281.695 971.573 281.589 971.769 281.56C971.807 281.553 971.424 281.56 975.373 281.56C976.795 281.418 977.259 282.528 977.406 283.225L983.192 305.846L988.564 283.225C988.65 282.708 989.04 281.447 990.638 281.581H993.417C993.769 281.552 995.217 281.5 995.472 283.246L1000.89 306.156L1006.86 283.246C1006.94 282.896 1007.3 281.42 1008.91 281.581H1012.11C1012.24 281.56 1013.1 281.45 1012.96 282.959C1012.89 283.256 1013.51 281.246 1004.41 310.248C1004.23 311.133 1003.63 312.03 1002.36 311.914H999.33C997.558 312.099 997.304 310.362 997.276 310.187L991.904 288.161L986.594 310.165C986.568 310.34 986.314 312.076 984.54 311.891H981.576V311.893ZM1025.88 312.797C1024.93 312.799 1020.38 312.749 1016.59 310.823C1016.21 310.665 1015.89 310.398 1015.66 310.057C1015.43 309.717 1015.32 309.318 1015.32 308.91V307.184C1015.32 305.826 1016.32 306.075 1016.75 306.238C1018.38 306.89 1019.42 307.384 1021.42 307.78C1027.36 308.989 1029.97 307.41 1030.61 307.06C1032.74 305.806 1032.91 302.935 1031.46 301.446C1029.76 300.034 1028.95 299.981 1022.85 298.073C1022.1 297.866 1015.77 295.887 1015.76 289.663C1015.66 285.127 1019.81 280.639 1027.02 280.676C1029.07 280.675 1034.54 281.34 1036.02 283.185C1036.24 283.521 1036.35 283.916 1036.33 284.316V285.94C1036.33 286.653 1036.07 287.01 1035.54 287.01C1034.29 286.871 1032.08 285.215 1027.58 285.283C1026.46 285.225 1021.12 285.429 1021.36 289.294C1021.29 292.339 1025.67 293.481 1026.17 293.613C1032.07 295.375 1034.05 295.667 1036.39 298.364C1039.17 301.938 1037.67 306.122 1037.1 307.269C1034.01 313.29 1026.01 312.801 1025.88 312.797ZM1032.39 329.64C1021.05 337.948 1004.58 342.369 990.516 342.369C971.544 342.494 953.21 335.576 939.12 322.978C938.063 322.032 938.996 320.735 940.282 321.456C955.912 330.321 973.608 334.979 991.614 334.968C1005.06 334.897 1018.36 332.192 1030.75 327.009C1032.66 326.206 1034.28 328.262 1032.39 329.64ZM1037.12 324.293C1035.67 322.443 1027.52 323.429 1023.87 323.861C1022.77 323.985 1022.58 323.039 1023.58 322.34C1030.07 317.815 1040.73 319.111 1041.95 320.633C1043.18 322.154 1041.62 332.745 1035.54 337.805C1034.61 338.587 1033.72 338.174 1034.13 337.146C1035.5 333.733 1038.57 326.145 1037.12 324.293Z" fill="#737373"/>
</g>
</g>
<g clip-path="url(#clip10_232_334)">
<g clip-path="url(#clip11_232_334)">
<path d="M1200.93 303.162C1198.53 303.162 1196.42 304.156 1194.87 305.711C1189.17 301.751 1181.49 299.201 1172.98 298.928L1177.41 278.916L1191.49 282.091C1191.49 285.555 1194.3 288.377 1197.75 288.377C1201.26 288.377 1204.09 285.474 1204.09 282.011C1204.09 278.547 1201.28 275.645 1197.75 275.645C1195.29 275.645 1193.17 277.136 1192.11 279.172L1176.56 275.709C1175.78 275.5 1175.01 276.061 1174.8 276.847L1169.95 298.912C1161.5 299.265 1153.9 301.815 1148.19 305.775C1146.64 304.156 1144.45 303.162 1142.06 303.162C1133.18 303.162 1130.27 315.124 1138.4 319.213C1138.11 320.48 1137.99 321.827 1137.99 323.174C1137.99 336.612 1153.06 347.5 1171.56 347.5C1190.15 347.5 1205.22 336.612 1205.22 323.174C1205.22 321.827 1205.08 320.416 1204.73 319.149C1212.69 315.044 1209.76 303.162 1200.93 303.162ZM1151.29 320.063C1151.29 316.535 1154.1 313.697 1157.63 313.697C1161.07 313.697 1163.88 316.519 1163.88 320.063C1163.88 323.527 1161.07 326.349 1157.63 326.349C1154.11 326.365 1151.29 323.527 1151.29 320.063ZM1185.5 335.057C1179.69 340.894 1163.29 340.894 1157.48 335.057C1156.84 334.495 1156.84 333.501 1157.48 332.86C1158.04 332.298 1159.03 332.298 1159.59 332.86C1164.03 337.43 1178.75 337.51 1183.38 332.86C1183.94 332.298 1184.93 332.298 1185.49 332.86C1186.14 333.501 1186.14 334.495 1185.5 335.057ZM1185.37 326.365C1181.93 326.365 1179.12 323.543 1179.12 320.079C1179.12 316.551 1181.93 313.713 1185.37 313.713C1188.89 313.713 1191.71 316.535 1191.71 320.079C1191.7 323.527 1188.89 326.365 1185.37 326.365Z" fill="#737373"/>
</g>
</g>
</g>
<defs>
<clipPath id="clip0_232_334">
<rect width="1050" height="479" fill="white" transform="translate(195)"/>
</clipPath>
<clipPath id="clip1_232_334">
<rect width="864" height="120" fill="white" transform="translate(288 80)"/>
</clipPath>
<clipPath id="clip2_232_334">
<rect width="153" height="34" fill="white" transform="translate(193 294.5)"/>
</clipPath>
<clipPath id="clip3_232_334">
<rect width="103" height="34" fill="white" transform="translate(218 294.5)"/>
</clipPath>
<clipPath id="clip4_232_334">
<rect width="83" height="59" fill="white" transform="translate(407.5 282)"/>
</clipPath>
<clipPath id="clip5_232_334">
<rect width="102" height="75" fill="white" transform="translate(577 274)"/>
</clipPath>
<clipPath id="clip6_232_334">
<rect width="151" height="42" fill="white" transform="translate(734 290.5)"/>
</clipPath>
<clipPath id="clip7_232_334">
<rect width="103" height="42" fill="white" transform="translate(758 290.5)"/>
</clipPath>
<clipPath id="clip8_232_334">
<rect width="151" height="62" fill="white" transform="translate(915 280.5)"/>
</clipPath>
<clipPath id="clip9_232_334">
<rect width="104" height="62" fill="white" transform="translate(938.5 280.5)"/>
</clipPath>
<clipPath id="clip10_232_334">
<rect width="151" height="72" fill="white" transform="translate(1096 275.5)"/>
</clipPath>
<clipPath id="clip11_232_334">
<rect width="76" height="72" fill="white" transform="translate(1133.5 275.5)"/>
</clipPath>
</defs>
</svg>
