<svg width="1440" height="98" viewBox="0 0 1440 98" fill="none" xmlns="http://www.w3.org/2000/svg">
<rect width="1440" height="98" fill="white"/>
<g clip-path="url(#clip0_1_6886)">
<path d="M200.882 54.168C203.682 54.168 205.04 52.768 205.04 51.13C205.04 47.532 199.342 48.778 199.342 46.972C199.342 46.356 199.86 45.852 201.204 45.852C202.072 45.852 203.01 46.104 203.92 46.622L204.62 44.9C203.71 44.326 202.45 44.032 201.218 44.032C198.432 44.032 197.088 45.418 197.088 47.084C197.088 50.724 202.786 49.464 202.786 51.298C202.786 51.9 202.24 52.348 200.896 52.348C199.72 52.348 198.488 51.928 197.662 51.326L196.892 53.034C197.76 53.706 199.328 54.168 200.882 54.168ZM211.214 46.356C210.248 46.356 209.408 46.664 208.82 47.252V43.612H206.636V54H208.82V50.276C208.82 48.89 209.576 48.246 210.626 48.246C211.592 48.246 212.152 48.806 212.152 50.024V54H214.336V49.688C214.336 47.392 212.992 46.356 211.214 46.356ZM220.181 54.112C222.575 54.112 224.311 52.502 224.311 50.234C224.311 47.966 222.575 46.356 220.181 46.356C217.787 46.356 216.037 47.966 216.037 50.234C216.037 52.502 217.787 54.112 220.181 54.112ZM220.181 52.32C219.089 52.32 218.249 51.536 218.249 50.234C218.249 48.932 219.089 48.148 220.181 48.148C221.273 48.148 222.099 48.932 222.099 50.234C222.099 51.536 221.273 52.32 220.181 52.32ZM235.93 46.468L234.096 51.564L232.304 46.468H230.456L228.608 51.564L226.83 46.468H224.772L227.488 54H229.588L231.338 49.324L233.032 54H235.132L237.862 46.468H235.93ZM240.17 45.418C240.982 45.418 241.528 44.886 241.528 44.158C241.528 43.486 240.982 42.982 240.17 42.982C239.358 42.982 238.812 43.514 238.812 44.2C238.812 44.886 239.358 45.418 240.17 45.418ZM239.078 54H241.262V46.468H239.078V54ZM248.066 46.356C247.044 46.356 246.162 46.706 245.574 47.35V46.468H243.488V54H245.672V50.276C245.672 48.89 246.428 48.246 247.478 48.246C248.444 48.246 249.004 48.806 249.004 50.024V54H251.188V49.688C251.188 47.392 249.844 46.356 248.066 46.356ZM259.148 46.468V47.434C258.574 46.706 257.706 46.356 256.656 46.356C254.57 46.356 252.89 47.798 252.89 49.996C252.89 52.194 254.57 53.636 256.656 53.636C257.636 53.636 258.462 53.328 259.036 52.698V53.02C259.036 54.378 258.364 55.078 256.824 55.078C255.858 55.078 254.808 54.742 254.164 54.224L253.296 55.792C254.178 56.478 255.564 56.828 256.992 56.828C259.708 56.828 261.22 55.54 261.22 52.74V46.468H259.148ZM257.09 51.844C255.942 51.844 255.102 51.102 255.102 49.996C255.102 48.89 255.942 48.148 257.09 48.148C258.238 48.148 259.064 48.89 259.064 49.996C259.064 51.102 258.238 51.844 257.09 51.844ZM270.656 46.356C269.452 46.356 268.234 46.678 267.408 47.266L268.192 48.792C268.738 48.358 269.564 48.092 270.362 48.092C271.538 48.092 272.098 48.638 272.098 49.576H270.362C268.066 49.576 267.128 50.5 267.128 51.83C267.128 53.132 268.178 54.112 269.942 54.112C271.048 54.112 271.832 53.748 272.238 53.062V54H274.282V49.702C274.282 47.42 272.952 46.356 270.656 46.356ZM270.488 52.642C269.718 52.642 269.256 52.278 269.256 51.732C269.256 51.228 269.578 50.85 270.6 50.85H272.098V51.62C271.846 52.306 271.216 52.642 270.488 52.642ZM276.458 54H278.642V43.612H276.458V54ZM280.869 54H283.053V43.612H280.869V54ZM288.535 44.2V46.02H290.495V54H292.763V44.2H288.535ZM297.774 52.152L300.028 50.024C301.4 48.75 301.666 47.882 301.666 46.93C301.666 45.152 300.21 44.032 298.026 44.032C296.262 44.032 294.89 44.746 294.134 45.852L295.786 46.916C296.262 46.258 296.976 45.936 297.816 45.936C298.852 45.936 299.384 46.384 299.384 47.154C299.384 47.63 299.23 48.134 298.362 48.96L294.582 52.53V54H301.988V52.152H297.774ZM309.836 47.462V46.468H307.75V54H309.934V50.444C309.934 49.002 310.732 48.344 311.936 48.344C312.104 48.344 312.244 48.358 312.426 48.372V46.356C311.264 46.356 310.368 46.734 309.836 47.462ZM321.234 50.262C321.234 47.84 319.526 46.356 317.314 46.356C315.018 46.356 313.296 47.98 313.296 50.234C313.296 52.474 314.99 54.112 317.594 54.112C318.952 54.112 320.002 53.692 320.702 52.894L319.54 51.634C319.022 52.124 318.448 52.362 317.65 52.362C316.502 52.362 315.704 51.788 315.494 50.85H321.192C321.206 50.668 321.234 50.43 321.234 50.262ZM317.328 48.008C318.308 48.008 319.022 48.624 319.176 49.576H315.466C315.62 48.61 316.334 48.008 317.328 48.008ZM325.422 54.112C327.676 54.112 328.978 53.118 328.978 51.718C328.978 48.75 324.428 49.996 324.428 48.708C324.428 48.316 324.848 48.008 325.828 48.008C326.514 48.008 327.256 48.148 327.998 48.568L328.726 47.014C328.012 46.594 326.864 46.356 325.828 46.356C323.63 46.356 322.342 47.364 322.342 48.792C322.342 51.802 326.892 50.542 326.892 51.774C326.892 52.194 326.514 52.46 325.506 52.46C324.582 52.46 323.56 52.166 322.888 51.732L322.16 53.3C322.86 53.762 324.148 54.112 325.422 54.112ZM335.93 46.468V50.192C335.93 51.578 335.202 52.222 334.194 52.222C333.228 52.222 332.668 51.662 332.668 50.402V46.468H330.484V50.724C330.484 53.048 331.814 54.112 333.704 54.112C334.628 54.112 335.468 53.762 336.042 53.104V54H338.114V46.468H335.93ZM340.337 54H342.521V43.612H340.337V54ZM349.565 52.096C349.327 52.278 349.005 52.376 348.683 52.376C348.095 52.376 347.745 52.026 347.745 51.382V48.316H349.621V46.636H347.745V44.802H345.561V46.636H344.399V48.316H345.561V51.41C345.561 53.202 346.597 54.112 348.375 54.112C349.047 54.112 349.705 53.958 350.153 53.636L349.565 52.096ZM354.113 54.112C356.367 54.112 357.669 53.118 357.669 51.718C357.669 48.75 353.119 49.996 353.119 48.708C353.119 48.316 353.539 48.008 354.519 48.008C355.205 48.008 355.947 48.148 356.689 48.568L357.417 47.014C356.703 46.594 355.555 46.356 354.519 46.356C352.321 46.356 351.033 47.364 351.033 48.792C351.033 51.802 355.583 50.542 355.583 51.774C355.583 52.194 355.205 52.46 354.197 52.46C353.273 52.46 352.251 52.166 351.579 51.732L350.851 53.3C351.551 53.762 352.839 54.112 354.113 54.112Z" fill="#737373"/>
<path d="M598.83 44.2L595.806 51.2L592.824 44.2H590.374L594.602 54H596.842L601.084 44.2H598.83ZM603.177 45.418C603.989 45.418 604.535 44.886 604.535 44.158C604.535 43.486 603.989 42.982 603.177 42.982C602.365 42.982 601.819 43.514 601.819 44.2C601.819 44.886 602.365 45.418 603.177 45.418ZM602.085 54H604.269V46.468H602.085V54ZM613.874 50.262C613.874 47.84 612.166 46.356 609.954 46.356C607.658 46.356 605.936 47.98 605.936 50.234C605.936 52.474 607.63 54.112 610.234 54.112C611.592 54.112 612.642 53.692 613.342 52.894L612.18 51.634C611.662 52.124 611.088 52.362 610.29 52.362C609.142 52.362 608.344 51.788 608.134 50.85H613.832C613.846 50.668 613.874 50.43 613.874 50.262ZM609.968 48.008C610.948 48.008 611.662 48.624 611.816 49.576H608.106C608.26 48.61 608.974 48.008 609.968 48.008ZM625.555 46.468L623.721 51.564L621.929 46.468H620.081L618.233 51.564L616.455 46.468H614.397L617.113 54H619.213L620.963 49.324L622.657 54H624.757L627.487 46.468H625.555ZM631.127 54.112C633.381 54.112 634.683 53.118 634.683 51.718C634.683 48.75 630.133 49.996 630.133 48.708C630.133 48.316 630.553 48.008 631.533 48.008C632.219 48.008 632.961 48.148 633.703 48.568L634.431 47.014C633.717 46.594 632.569 46.356 631.533 46.356C629.335 46.356 628.047 47.364 628.047 48.792C628.047 51.802 632.597 50.542 632.597 51.774C632.597 52.194 632.219 52.46 631.211 52.46C630.287 52.46 629.265 52.166 628.593 51.732L627.865 53.3C628.565 53.762 629.853 54.112 631.127 54.112ZM637.057 49.086C637.813 49.086 638.415 48.512 638.415 47.714C638.415 46.902 637.813 46.37 637.057 46.37C636.301 46.37 635.699 46.902 635.699 47.714C635.699 48.512 636.301 49.086 637.057 49.086ZM637.057 54.112C637.813 54.112 638.415 53.538 638.415 52.74C638.415 51.928 637.813 51.396 637.057 51.396C636.301 51.396 635.699 51.928 635.699 52.74C635.699 53.538 636.301 54.112 637.057 54.112Z" fill="#737373"/>
<rect x="659" y="26.5" width="45" height="45" rx="4.5" stroke="#ECECEC"/>
<path d="M674.5 43.5C674.5 43.1022 674.658 42.7206 674.939 42.4393C675.221 42.158 675.602 42 676 42H679C679.398 42 679.779 42.158 680.061 42.4393C680.342 42.7206 680.5 43.1022 680.5 43.5V46.5C680.5 46.8978 680.342 47.2794 680.061 47.5607C679.779 47.842 679.398 48 679 48H676C675.602 48 675.221 47.842 674.939 47.5607C674.658 47.2794 674.5 46.8978 674.5 46.5V43.5ZM682.5 43.5C682.5 43.1022 682.658 42.7206 682.939 42.4393C683.221 42.158 683.602 42 684 42H687C687.398 42 687.779 42.158 688.061 42.4393C688.342 42.7206 688.5 43.1022 688.5 43.5V46.5C688.5 46.8978 688.342 47.2794 688.061 47.5607C687.779 47.842 687.398 48 687 48H684C683.602 48 683.221 47.842 682.939 47.5607C682.658 47.2794 682.5 46.8978 682.5 46.5V43.5ZM674.5 51.5C674.5 51.1022 674.658 50.7206 674.939 50.4393C675.221 50.158 675.602 50 676 50H679C679.398 50 679.779 50.158 680.061 50.4393C680.342 50.7206 680.5 51.1022 680.5 51.5V54.5C680.5 54.8978 680.342 55.2794 680.061 55.5607C679.779 55.842 679.398 56 679 56H676C675.602 56 675.221 55.842 674.939 55.5607C674.658 55.2794 674.5 54.8978 674.5 54.5V51.5ZM682.5 51.5C682.5 51.1022 682.658 50.7206 682.939 50.4393C683.221 50.158 683.602 50 684 50H687C687.398 50 687.779 50.158 688.061 50.4393C688.342 50.7206 688.5 51.1022 688.5 51.5V54.5C688.5 54.8978 688.342 55.2794 688.061 55.5607C687.779 55.842 687.398 56 687 56H684C683.602 56 683.221 55.842 682.939 55.5607C682.658 55.2794 682.5 54.8978 682.5 54.5V51.5Z" fill="#252B42"/>
<rect x="720" y="26.5" width="45" height="45" rx="4.5" stroke="#ECECEC"/>
<path fill-rule="evenodd" clip-rule="evenodd" d="M739.001 53.5009C739.001 53.3683 739.053 53.2411 739.147 53.1473C739.241 53.0536 739.368 53.0009 739.501 53.0009H748.501C748.633 53.0009 748.76 53.0536 748.854 53.1473C748.948 53.2411 749.001 53.3683 749.001 53.5009C749.001 53.6335 748.948 53.7607 748.854 53.8544C748.76 53.9482 748.633 54.0009 748.501 54.0009H739.501C739.368 54.0009 739.241 53.9482 739.147 53.8544C739.053 53.7607 739.001 53.6335 739.001 53.5009ZM739.001 49.5009C739.001 49.3683 739.053 49.2411 739.147 49.1473C739.241 49.0536 739.368 49.0009 739.501 49.0009H748.501C748.633 49.0009 748.76 49.0536 748.854 49.1473C748.948 49.2411 749.001 49.3683 749.001 49.5009C749.001 49.6335 748.948 49.7607 748.854 49.8544C748.76 49.9482 748.633 50.0009 748.501 50.0009H739.501C739.368 50.0009 739.241 49.9482 739.147 49.8544C739.053 49.7607 739.001 49.6335 739.001 49.5009ZM739.001 45.5009C739.001 45.3683 739.053 45.2411 739.147 45.1473C739.241 45.0536 739.368 45.0009 739.501 45.0009H748.501C748.633 45.0009 748.76 45.0536 748.854 45.1473C748.948 45.2411 749.001 45.3683 749.001 45.5009C749.001 45.6335 748.948 45.7607 748.854 45.8544C748.76 45.9482 748.633 46.0009 748.501 46.0009H739.501C739.368 46.0009 739.241 45.9482 739.147 45.8544C739.053 45.7607 739.001 45.6335 739.001 45.5009ZM737.855 44.1469C737.901 44.1933 737.938 44.2485 737.963 44.3093C737.989 44.37 738.002 44.4351 738.002 44.5009C738.002 44.5667 737.989 44.6318 737.963 44.6925C737.938 44.7533 737.901 44.8084 737.855 44.8549L736.355 46.3549C736.308 46.4015 736.253 46.4384 736.192 46.4636C736.132 46.4888 736.066 46.5018 736.001 46.5018C735.935 46.5018 735.87 46.4888 735.809 46.4636C735.748 46.4384 735.693 46.4015 735.647 46.3549L735.147 45.8549C735.1 45.8084 735.063 45.7532 735.038 45.6925C735.013 45.6317 735 45.5666 735 45.5009C735 45.4351 735.013 45.37 735.038 45.3093C735.063 45.2486 735.1 45.1934 735.147 45.1469C735.193 45.1004 735.248 45.0635 735.309 45.0384C735.37 45.0132 735.435 45.0003 735.501 45.0003C735.566 45.0003 735.631 45.0132 735.692 45.0384C735.753 45.0635 735.808 45.1004 735.855 45.1469L736.001 45.2939L737.147 44.1469C737.193 44.1003 737.248 44.0634 737.309 44.0382C737.37 44.013 737.435 44 737.501 44C737.566 44 737.632 44.013 737.692 44.0382C737.753 44.0634 737.808 44.1003 737.855 44.1469ZM737.855 48.1469C737.901 48.1933 737.938 48.2485 737.963 48.3093C737.989 48.37 738.002 48.4351 738.002 48.5009C738.002 48.5667 737.989 48.6318 737.963 48.6925C737.938 48.7533 737.901 48.8084 737.855 48.8549L736.355 50.3549C736.308 50.4015 736.253 50.4384 736.192 50.4636C736.132 50.4888 736.066 50.5018 736.001 50.5018C735.935 50.5018 735.87 50.4888 735.809 50.4636C735.748 50.4384 735.693 50.4015 735.647 50.3549L735.147 49.8549C735.053 49.761 735 49.6337 735 49.5009C735 49.3681 735.053 49.2408 735.147 49.1469C735.241 49.053 735.368 49.0003 735.501 49.0003C735.633 49.0003 735.761 49.053 735.855 49.1469L736.001 49.2939L737.147 48.1469C737.193 48.1003 737.248 48.0634 737.309 48.0382C737.37 48.013 737.435 48 737.501 48C737.566 48 737.632 48.013 737.692 48.0382C737.753 48.0634 737.808 48.1003 737.855 48.1469ZM737.855 52.1469C737.901 52.1933 737.938 52.2485 737.963 52.3093C737.989 52.37 738.002 52.4351 738.002 52.5009C738.002 52.5667 737.989 52.6318 737.963 52.6925C737.938 52.7533 737.901 52.8084 737.855 52.8549L736.355 54.3549C736.308 54.4015 736.253 54.4384 736.192 54.4636C736.132 54.4888 736.066 54.5018 736.001 54.5018C735.935 54.5018 735.87 54.4888 735.809 54.4636C735.748 54.4384 735.693 54.4015 735.647 54.3549L735.147 53.8549C735.053 53.761 735 53.6337 735 53.5009C735 53.3681 735.053 53.2408 735.147 53.1469C735.241 53.053 735.368 53.0003 735.501 53.0003C735.633 53.0003 735.761 53.053 735.855 53.1469L736.001 53.2939L737.147 52.1469C737.193 52.1003 737.248 52.0634 737.309 52.0382C737.37 52.013 737.435 52 737.501 52C737.566 52 737.632 52.013 737.692 52.0382C737.753 52.0634 737.808 52.1003 737.855 52.1469Z" fill="#737373"/>
<g clip-path="url(#clip1_1_6886)">
<g clip-path="url(#clip2_1_6886)">
<rect x="994" y="24.5" width="140" height="49" rx="4.5" fill="#F9F9F9"/>
<rect x="994" y="24.5" width="140" height="49" rx="4.5" stroke="#DDDDDD"/>
<path d="M1016.76 44.2H1013.1V54H1014.13V50.906H1016.76C1019.26 50.906 1020.77 49.646 1020.77 47.56C1020.77 45.46 1019.26 44.2 1016.76 44.2ZM1016.74 49.996H1014.13V45.096H1016.74C1018.7 45.096 1019.73 45.992 1019.73 47.56C1019.73 49.1 1018.7 49.996 1016.74 49.996ZM1025.97 54.07C1028.12 54.07 1029.71 52.502 1029.71 50.318C1029.71 48.134 1028.12 46.58 1025.97 46.58C1023.81 46.58 1022.22 48.134 1022.22 50.318C1022.22 52.502 1023.81 54.07 1025.97 54.07ZM1025.97 53.188C1024.4 53.188 1023.22 52.04 1023.22 50.318C1023.22 48.596 1024.4 47.448 1025.97 47.448C1027.54 47.448 1028.7 48.596 1028.7 50.318C1028.7 52.04 1027.54 53.188 1025.97 53.188ZM1035.73 46.58C1034.51 46.58 1033.49 47.112 1032.89 48.092V46.636H1031.93V56.716H1032.93V52.614C1033.54 53.566 1034.55 54.07 1035.73 54.07C1037.83 54.07 1039.4 52.558 1039.4 50.318C1039.4 48.092 1037.83 46.58 1035.73 46.58ZM1035.66 53.188C1034.09 53.188 1032.91 52.04 1032.91 50.318C1032.91 48.61 1034.09 47.448 1035.66 47.448C1037.21 47.448 1038.4 48.61 1038.4 50.318C1038.4 52.04 1037.21 53.188 1035.66 53.188ZM1047.26 46.636V50.5C1047.26 52.18 1046.3 53.174 1044.76 53.174C1043.36 53.174 1042.55 52.376 1042.55 50.808V46.636H1041.55V50.906C1041.55 53.02 1042.78 54.07 1044.66 54.07C1045.84 54.07 1046.79 53.552 1047.31 52.656V54H1048.26V46.636H1047.26ZM1051.24 54H1052.24V43.612H1051.24V54ZM1057.78 46.58C1056.62 46.58 1055.52 46.944 1054.78 47.574L1055.23 48.316C1055.83 47.784 1056.73 47.448 1057.68 47.448C1059.05 47.448 1059.77 48.134 1059.77 49.394V49.842H1057.43C1055.31 49.842 1054.59 50.794 1054.59 51.928C1054.59 53.202 1055.61 54.07 1057.27 54.07C1058.49 54.07 1059.36 53.608 1059.81 52.852V54H1060.76V49.436C1060.76 47.532 1059.68 46.58 1057.78 46.58ZM1057.43 53.286C1056.25 53.286 1055.57 52.754 1055.57 51.9C1055.57 51.144 1056.03 50.584 1057.46 50.584H1059.77V51.788C1059.37 52.754 1058.55 53.286 1057.43 53.286ZM1064.61 48.078V46.636H1063.66V54H1064.65V50.248C1064.65 48.512 1065.59 47.532 1067.13 47.532C1067.2 47.532 1067.29 47.546 1067.37 47.546V46.58C1066.01 46.58 1065.07 47.098 1064.61 48.078ZM1069.87 45.026C1070.29 45.026 1070.6 44.704 1070.6 44.298C1070.6 43.92 1070.28 43.612 1069.87 43.612C1069.47 43.612 1069.15 43.934 1069.15 44.312C1069.15 44.704 1069.47 45.026 1069.87 45.026ZM1069.37 54H1070.36V46.636H1069.37V54ZM1076.86 52.838C1076.58 53.09 1076.17 53.216 1075.77 53.216C1074.94 53.216 1074.49 52.74 1074.49 51.872V47.476H1076.73V46.636H1074.49V45.026H1073.5V46.636H1072.18V47.476H1073.5V51.928C1073.5 53.286 1074.27 54.07 1075.65 54.07C1076.23 54.07 1076.82 53.902 1077.21 53.552L1076.86 52.838ZM1084.29 46.636L1081.52 52.894L1078.74 46.636H1077.71L1081 53.986L1080.68 54.7C1080.26 55.624 1079.81 55.932 1079.15 55.932C1078.62 55.932 1078.17 55.736 1077.81 55.372L1077.34 56.114C1077.79 56.562 1078.45 56.786 1079.14 56.786C1080.19 56.786 1080.97 56.324 1081.59 54.882L1085.27 46.636H1084.29Z" fill="#737373"/>
<path d="M1093.49 45L1098.49 50L1103.49 45L1105.49 46L1098.49 53L1091.49 46L1093.49 45Z" fill="#737373"/>
</g>
</g>
<rect x="1149.5" y="24" width="94" height="50" rx="5" fill="#23A6F0"/>
<path d="M1185.32 43.02V41.2H1177.92V51H1180.19V47.43H1184.72V45.61H1180.19V43.02H1185.32ZM1187.86 42.418C1188.67 42.418 1189.22 41.886 1189.22 41.158C1189.22 40.486 1188.67 39.982 1187.86 39.982C1187.05 39.982 1186.5 40.514 1186.5 41.2C1186.5 41.886 1187.05 42.418 1187.86 42.418ZM1186.77 51H1188.95V43.468H1186.77V51ZM1191.18 51H1193.36V40.612H1191.18V51ZM1200.41 49.096C1200.17 49.278 1199.85 49.376 1199.53 49.376C1198.94 49.376 1198.59 49.026 1198.59 48.382V45.316H1200.46V43.636H1198.59V41.802H1196.4V43.636H1195.24V45.316H1196.4V48.41C1196.4 50.202 1197.44 51.112 1199.22 51.112C1199.89 51.112 1200.55 50.958 1201 50.636L1200.41 49.096ZM1209.57 47.262C1209.57 44.84 1207.86 43.356 1205.65 43.356C1203.35 43.356 1201.63 44.98 1201.63 47.234C1201.63 49.474 1203.32 51.112 1205.93 51.112C1207.29 51.112 1208.34 50.692 1209.04 49.894L1207.87 48.634C1207.36 49.124 1206.78 49.362 1205.98 49.362C1204.84 49.362 1204.04 48.788 1203.83 47.85H1209.53C1209.54 47.668 1209.57 47.43 1209.57 47.262ZM1205.66 45.008C1206.64 45.008 1207.36 45.624 1207.51 46.576H1203.8C1203.95 45.61 1204.67 45.008 1205.66 45.008ZM1213.31 44.462V43.468H1211.22V51H1213.41V47.444C1213.41 46.002 1214.2 45.344 1215.41 45.344C1215.58 45.344 1215.72 45.358 1215.9 45.372V43.356C1214.74 43.356 1213.84 43.734 1213.31 44.462Z" fill="white"/>
</g>
<defs>
<clipPath id="clip0_1_6886">
<rect width="1049" height="50" fill="white" transform="translate(195.5 24)"/>
</clipPath>
<clipPath id="clip1_1_6886">
<rect width="141" height="50" fill="white" transform="translate(993.5 24)"/>
</clipPath>
<clipPath id="clip2_1_6886">
<rect width="141" height="50" fill="white" transform="translate(993.5 24)"/>
</clipPath>
</defs>
</svg>
