<svg width="414" height="520" viewBox="0 0 414 520" fill="none" xmlns="http://www.w3.org/2000/svg">
<rect width="414" height="520" fill="#2A7CC7"/>
<g clip-path="url(#clip0_232_587)">
<path d="M147.864 103.248L149.848 96.816H152.456L154.424 103.248L156.648 96.816H159.352L155.448 108H153.592L151.144 100.224L148.712 108H146.856L142.952 96.816H145.656L147.864 103.248ZM169.161 102.352C169.161 101.349 168.841 100.496 168.201 99.792C167.561 99.088 166.772 98.736 165.833 98.736C164.905 98.736 164.121 99.088 163.481 99.792C162.841 100.496 162.521 101.349 162.521 102.352C162.521 103.344 162.841 104.192 163.481 104.896C164.121 105.589 164.905 105.936 165.833 105.936C166.772 105.936 167.561 105.589 168.201 104.896C168.841 104.192 169.161 103.344 169.161 102.352ZM170.009 106.464C168.878 107.563 167.486 108.112 165.833 108.112C164.18 108.112 162.788 107.563 161.657 106.464C160.526 105.355 159.961 103.979 159.961 102.336C159.961 100.693 160.526 99.3227 161.657 98.224C162.788 97.1147 164.18 96.56 165.833 96.56C167.486 96.56 168.878 97.1147 170.009 98.224C171.14 99.3227 171.705 100.693 171.705 102.336C171.705 103.979 171.14 105.355 170.009 106.464ZM182.992 100.528C182.992 102.32 182.282 103.477 180.864 104L183.696 108H180.624L178.144 104.432H176.416V108H173.92V96.816H178.16C179.898 96.816 181.136 97.1093 181.872 97.696C182.618 98.2827 182.992 99.2267 182.992 100.528ZM178.24 102.272C179.093 102.272 179.674 102.133 179.984 101.856C180.293 101.579 180.448 101.141 180.448 100.544C180.448 99.936 180.288 99.52 179.968 99.296C179.648 99.072 179.088 98.96 178.288 98.96H176.416V102.272H178.24ZM185.645 96.816H188.141V101.408L192.365 96.816H195.453L191.005 101.76C191.389 102.293 192.098 103.291 193.133 104.752C194.167 106.203 194.941 107.285 195.453 108H192.541L189.261 103.584L188.141 104.832V108H185.645V96.816ZM204.911 103.248L206.895 96.816H209.503L211.471 103.248L213.695 96.816H216.399L212.495 108H210.639L208.191 100.224L205.759 108H203.903L199.999 96.816H202.703L204.911 103.248ZM217.82 96.816H220.316V108H217.82V96.816ZM227.906 98.976V108H225.41V98.976H222.242V96.816H231.074V98.976H227.906ZM239.948 96.816H242.444V108H239.948V103.6H235.5V108H233.004V96.816H235.5V101.488H239.948V96.816ZM252.57 105.12C252.986 105.632 253.546 105.888 254.25 105.888C254.954 105.888 255.509 105.632 255.914 105.12C256.33 104.597 256.538 103.888 256.538 102.992V96.816H259.034V103.072C259.034 104.693 258.586 105.941 257.69 106.816C256.794 107.68 255.648 108.112 254.25 108.112C252.853 108.112 251.701 107.675 250.794 106.8C249.898 105.925 249.45 104.683 249.45 103.072V96.816H251.946V102.992C251.946 103.888 252.154 104.597 252.57 105.12ZM265.326 98.752C264.91 98.752 264.579 98.8533 264.334 99.056C264.099 99.248 263.982 99.5093 263.982 99.84C263.982 100.16 264.126 100.416 264.414 100.608C264.713 100.8 265.39 101.029 266.446 101.296C267.513 101.552 268.339 101.941 268.926 102.464C269.513 102.987 269.806 103.749 269.806 104.752C269.806 105.755 269.427 106.571 268.67 107.2C267.923 107.819 266.937 108.128 265.71 108.128C263.939 108.128 262.345 107.472 260.926 106.16L262.414 104.336C263.619 105.392 264.734 105.92 265.758 105.92C266.217 105.92 266.574 105.824 266.83 105.632C267.097 105.429 267.23 105.163 267.23 104.832C267.23 104.491 267.091 104.224 266.814 104.032C266.537 103.829 265.987 103.627 265.166 103.424C263.865 103.115 262.91 102.715 262.302 102.224C261.705 101.723 261.406 100.944 261.406 99.888C261.406 98.8213 261.785 98 262.542 97.424C263.31 96.848 264.265 96.56 265.406 96.56C266.153 96.56 266.899 96.688 267.646 96.944C268.393 97.2 269.043 97.5627 269.598 98.032L268.334 99.856C267.363 99.12 266.361 98.752 265.326 98.752Z" fill="white"/>
<path d="M129.452 149.04H135.692V177H129.452L116.132 159.48V177H109.892V149.04H115.732L129.452 167.04V149.04ZM146.987 166.24C146.987 168 147.48 169.44 148.467 170.56C149.48 171.653 150.76 172.2 152.307 172.2C153.88 172.2 155.16 171.653 156.147 170.56C157.16 169.44 157.667 168 157.667 166.24C157.667 164.48 157.16 163.04 156.147 161.92C155.16 160.8 153.88 160.24 152.307 160.24C150.76 160.24 149.48 160.8 148.467 161.92C147.48 163.04 146.987 164.48 146.987 166.24ZM163.707 166.24C163.707 169.36 162.627 171.987 160.467 174.12C158.307 176.253 155.587 177.32 152.307 177.32C149.054 177.32 146.347 176.253 144.187 174.12C142.027 171.987 140.947 169.36 140.947 166.24C140.947 163.12 142.027 160.493 144.187 158.36C146.347 156.2 149.054 155.12 152.307 155.12C155.587 155.12 158.307 156.2 160.467 158.36C162.627 160.493 163.707 163.12 163.707 166.24ZM179.173 177H172.973L165.653 155.48H171.853L176.053 168.48L180.253 155.48H186.053L190.253 168.48L194.453 155.48H200.693L193.373 177H187.133L183.173 165.28L179.173 177ZM215.613 177V149.04H221.853V171.44H233.773V177H215.613ZM256.588 173.88C254.161 176.173 251.308 177.32 248.028 177.32C244.774 177.32 242.081 176.32 239.948 174.32C237.814 172.293 236.748 169.587 236.748 166.2C236.748 162.813 237.828 160.12 239.988 158.12C242.174 156.12 244.748 155.12 247.708 155.12C250.668 155.12 253.174 156.013 255.228 157.8C257.308 159.587 258.348 162.04 258.348 165.16V168.36H242.668C242.854 169.533 243.468 170.493 244.508 171.24C245.548 171.987 246.721 172.36 248.028 172.36C250.134 172.36 251.868 171.653 253.228 170.24L256.588 173.88ZM252.268 164.08C252.134 162.8 251.654 161.813 250.828 161.12C250.001 160.427 248.988 160.08 247.788 160.08C246.614 160.08 245.534 160.44 244.548 161.16C243.561 161.88 242.988 162.853 242.828 164.08H252.268ZM269.8 159.8V169.44C269.8 170.267 270.013 170.92 270.44 171.4C270.867 171.853 271.373 172.08 271.96 172.08C273.08 172.08 274.027 171.573 274.8 170.56L277.04 174.76C275.173 176.467 273.2 177.32 271.12 177.32C269.067 177.32 267.32 176.64 265.88 175.28C264.467 173.92 263.76 172.067 263.76 169.72V159.8H261.24V155.48H263.76V149.04H269.8V155.48H275V159.8H269.8ZM280.497 154.88C279.617 154.293 279.177 153.48 279.177 152.44C279.177 151.373 279.484 150.533 280.097 149.92C280.737 149.307 281.524 149 282.457 149C283.417 149 284.204 149.293 284.817 149.88C285.457 150.467 285.777 151.227 285.777 152.16C285.777 153.093 285.484 154.013 284.897 154.92L281.977 159.16H278.697L280.497 154.88ZM305.607 170.32C305.607 172.427 304.821 174.12 303.247 175.4C301.701 176.68 299.727 177.32 297.327 177.32C295.727 177.32 294.061 177.04 292.327 176.48C290.594 175.893 289.034 175.04 287.647 173.92L290.287 170.16C292.527 171.893 294.914 172.76 297.447 172.76C298.221 172.76 298.834 172.613 299.287 172.32C299.741 172 299.967 171.587 299.967 171.08C299.967 170.573 299.647 170.107 299.007 169.68C298.394 169.253 297.487 168.853 296.287 168.48C295.114 168.107 294.207 167.787 293.567 167.52C292.954 167.253 292.247 166.867 291.447 166.36C289.821 165.347 289.007 163.853 289.007 161.88C289.007 159.88 289.807 158.253 291.407 157C293.007 155.747 295.074 155.12 297.607 155.12C300.141 155.12 302.674 155.973 305.207 157.68L302.967 161.68C301.101 160.4 299.234 159.76 297.367 159.76C295.527 159.76 294.607 160.267 294.607 161.28C294.607 161.84 294.901 162.28 295.487 162.6C296.074 162.92 297.047 163.293 298.407 163.72C299.767 164.147 300.727 164.48 301.287 164.72C301.874 164.933 302.567 165.28 303.367 165.76C304.861 166.667 305.607 168.187 305.607 170.32ZM110.875 215.8C110.875 214.067 110.395 212.707 109.435 211.72C108.475 210.733 107.289 210.24 105.875 210.24C104.462 210.24 103.235 210.733 102.195 211.72C101.182 212.707 100.675 214.053 100.675 215.76C100.675 217.467 101.169 218.853 102.155 219.92C103.169 220.96 104.395 221.48 105.835 221.48C107.275 221.48 108.475 220.96 109.435 219.92C110.395 218.88 110.875 217.507 110.875 215.8ZM111.715 223.36C109.822 225.467 107.462 226.52 104.635 226.52C101.835 226.52 99.4621 225.573 97.5155 223.68C95.5955 221.76 94.6355 219.213 94.6355 216.04C94.6355 212.84 95.6221 210.227 97.5955 208.2C99.5955 206.147 101.875 205.12 104.435 205.12C106.995 205.12 109.115 206.173 110.795 208.28V205.44H116.795V224.2C116.795 226.12 116.462 227.827 115.795 229.32C115.129 230.813 114.235 231.987 113.115 232.84C110.902 234.6 108.289 235.48 105.275 235.48C103.675 235.48 102.035 235.213 100.355 234.68C98.7021 234.173 97.2488 233.44 95.9955 232.48L98.3155 227.96C100.289 229.453 102.369 230.2 104.555 230.2C106.769 230.2 108.515 229.653 109.795 228.56C111.075 227.467 111.715 225.733 111.715 223.36ZM133.995 210.76C132.208 210.76 130.875 211.4 129.995 212.68C129.115 213.933 128.675 215.6 128.675 217.68V227H122.675V205.48H128.675V208.32C129.448 207.44 130.408 206.693 131.555 206.08C132.728 205.467 133.915 205.147 135.115 205.12L135.155 210.76H133.995ZM143.808 216.24C143.808 218 144.301 219.44 145.288 220.56C146.301 221.653 147.581 222.2 149.128 222.2C150.701 222.2 151.981 221.653 152.968 220.56C153.981 219.44 154.488 218 154.488 216.24C154.488 214.48 153.981 213.04 152.968 211.92C151.981 210.8 150.701 210.24 149.128 210.24C147.581 210.24 146.301 210.8 145.288 211.92C144.301 213.04 143.808 214.48 143.808 216.24ZM160.528 216.24C160.528 219.36 159.448 221.987 157.288 224.12C155.128 226.253 152.408 227.32 149.128 227.32C145.875 227.32 143.168 226.253 141.008 224.12C138.848 221.987 137.768 219.36 137.768 216.24C137.768 213.12 138.848 210.493 141.008 208.36C143.168 206.2 145.875 205.12 149.128 205.12C152.408 205.12 155.128 206.2 157.288 208.36C159.448 210.493 160.528 213.12 160.528 216.24ZM175.994 227H169.794L162.474 205.48H168.674L172.874 218.48L177.074 205.48H182.874L187.074 218.48L191.274 205.48H197.514L190.194 227H183.954L179.994 215.28L175.994 227ZM224.475 227H218.235V215.96L208.555 199.04H215.315L221.355 209.44L227.395 199.04H234.155L224.475 215.96V227ZM239.452 216.24C239.452 218 239.945 219.44 240.932 220.56C241.945 221.653 243.225 222.2 244.772 222.2C246.345 222.2 247.625 221.653 248.612 220.56C249.625 219.44 250.132 218 250.132 216.24C250.132 214.48 249.625 213.04 248.612 211.92C247.625 210.8 246.345 210.24 244.772 210.24C243.225 210.24 241.945 210.8 240.932 211.92C239.945 213.04 239.452 214.48 239.452 216.24ZM256.172 216.24C256.172 219.36 255.092 221.987 252.932 224.12C250.772 226.253 248.052 227.32 244.772 227.32C241.518 227.32 238.812 226.253 236.652 224.12C234.492 221.987 233.412 219.36 233.412 216.24C233.412 213.12 234.492 210.493 236.652 208.36C238.812 206.2 241.518 205.12 244.772 205.12C248.052 205.12 250.772 206.2 252.932 208.36C255.092 210.493 256.172 213.12 256.172 216.24ZM274.708 217.08V205.48H280.748V227H274.708V224.16C273.215 226.267 271.282 227.32 268.908 227.32C266.562 227.32 264.588 226.587 262.988 225.12C261.388 223.627 260.588 221.427 260.588 218.52V205.48H266.628V217.2C266.628 220.507 267.842 222.16 270.268 222.16C271.468 222.16 272.508 221.733 273.388 220.88C274.268 220 274.708 218.733 274.708 217.08ZM297.934 210.76C296.148 210.76 294.814 211.4 293.934 212.68C293.054 213.933 292.614 215.6 292.614 217.68V227H286.614V205.48H292.614V208.32C293.388 207.44 294.348 206.693 295.494 206.08C296.668 205.467 297.854 205.147 299.054 205.12L299.094 210.76H297.934ZM319.303 220.32C319.303 222.427 318.517 224.12 316.943 225.4C315.397 226.68 313.423 227.32 311.023 227.32C309.423 227.32 307.757 227.04 306.023 226.48C304.29 225.893 302.73 225.04 301.343 223.92L303.983 220.16C306.223 221.893 308.61 222.76 311.143 222.76C311.917 222.76 312.53 222.613 312.983 222.32C313.437 222 313.663 221.587 313.663 221.08C313.663 220.573 313.343 220.107 312.703 219.68C312.09 219.253 311.183 218.853 309.983 218.48C308.81 218.107 307.903 217.787 307.263 217.52C306.65 217.253 305.943 216.867 305.143 216.36C303.517 215.347 302.703 213.853 302.703 211.88C302.703 209.88 303.503 208.253 305.103 207C306.703 205.747 308.77 205.12 311.303 205.12C313.837 205.12 316.37 205.973 318.903 207.68L316.663 211.68C314.797 210.4 312.93 209.76 311.063 209.76C309.223 209.76 308.303 210.267 308.303 211.28C308.303 211.84 308.597 212.28 309.183 212.6C309.77 212.92 310.743 213.293 312.103 213.72C313.463 214.147 314.423 214.48 314.983 214.72C315.57 214.933 316.263 215.28 317.063 215.76C318.557 216.667 319.303 218.187 319.303 220.32Z" fill="white"/>
<path d="M108.394 268.726V277H106.742V268.726H103.774V267.214H111.362V268.726H108.394ZM114.623 272.968V277H113.055V266.626H114.623V270.91C114.847 270.453 115.183 270.093 115.631 269.832C116.088 269.571 116.578 269.44 117.101 269.44C117.941 269.44 118.618 269.697 119.131 270.21C119.654 270.723 119.915 271.465 119.915 272.436V277H118.347V272.912C118.347 271.54 117.778 270.854 116.639 270.854C116.098 270.854 115.626 271.036 115.225 271.4C114.824 271.755 114.623 272.277 114.623 272.968ZM129.236 273.962H123.398C123.435 274.503 123.682 274.942 124.14 275.278C124.597 275.605 125.12 275.768 125.708 275.768C126.641 275.768 127.35 275.474 127.836 274.886L128.732 275.866C127.929 276.697 126.884 277.112 125.596 277.112C124.55 277.112 123.659 276.767 122.922 276.076C122.194 275.376 121.83 274.443 121.83 273.276C121.83 272.1 122.203 271.167 122.95 270.476C123.696 269.785 124.574 269.44 125.582 269.44C126.599 269.44 127.462 269.748 128.172 270.364C128.881 270.971 129.236 271.811 129.236 272.884V273.962ZM123.398 272.73H127.668C127.668 272.105 127.472 271.624 127.08 271.288C126.688 270.952 126.202 270.784 125.624 270.784C125.054 270.784 124.541 270.961 124.084 271.316C123.626 271.661 123.398 272.133 123.398 272.73ZM142.09 269.552V276.048C142.09 277.364 141.73 278.349 141.012 279.002C140.302 279.665 139.388 279.996 138.268 279.996C137.148 279.996 136.135 279.646 135.23 278.946L135.972 277.756C136.7 278.307 137.432 278.582 138.17 278.582C138.916 278.582 139.504 278.391 139.934 278.008C140.372 277.625 140.592 277.014 140.592 276.174V275.222C140.358 275.661 140.022 276.011 139.584 276.272C139.154 276.533 138.669 276.664 138.128 276.664C137.138 276.664 136.326 276.319 135.692 275.628C135.057 274.937 134.74 274.079 134.74 273.052C134.74 272.025 135.057 271.167 135.692 270.476C136.326 269.785 137.134 269.44 138.114 269.44C139.103 269.44 139.906 269.846 140.522 270.658V269.552H142.09ZM136.28 272.996C136.28 273.603 136.466 274.13 136.84 274.578C137.222 275.017 137.731 275.236 138.366 275.236C139.01 275.236 139.528 275.021 139.92 274.592C140.321 274.163 140.522 273.631 140.522 272.996C140.522 272.352 140.321 271.811 139.92 271.372C139.518 270.924 139 270.7 138.366 270.7C137.731 270.7 137.222 270.929 136.84 271.386C136.466 271.843 136.28 272.38 136.28 272.996ZM148.468 271.022C147.693 271.022 147.11 271.274 146.718 271.778C146.326 272.282 146.13 272.959 146.13 273.808V277H144.562V269.552H146.13V271.05C146.382 270.583 146.723 270.201 147.152 269.902C147.591 269.603 148.053 269.449 148.538 269.44L148.552 271.022C148.524 271.022 148.496 271.022 148.468 271.022ZM156.292 277H154.864V276.006C154.248 276.743 153.422 277.112 152.386 277.112C151.611 277.112 150.967 276.893 150.454 276.454C149.95 276.015 149.698 275.432 149.698 274.704C149.698 273.967 149.969 273.416 150.51 273.052C151.051 272.688 151.784 272.506 152.708 272.506H154.738V272.226C154.738 271.237 154.187 270.742 153.086 270.742C152.395 270.742 151.677 270.994 150.93 271.498L150.23 270.518C151.135 269.799 152.162 269.44 153.31 269.44C154.187 269.44 154.901 269.664 155.452 270.112C156.012 270.551 156.292 271.246 156.292 272.198V277ZM154.724 274.228V273.598H152.96C151.831 273.598 151.266 273.953 151.266 274.662C151.266 275.026 151.406 275.306 151.686 275.502C151.966 275.689 152.353 275.782 152.848 275.782C153.352 275.782 153.791 275.642 154.164 275.362C154.537 275.082 154.724 274.704 154.724 274.228ZM161.713 277.112C160.77 277.112 159.949 276.757 159.249 276.048C158.549 275.339 158.199 274.405 158.199 273.248C158.199 272.091 158.558 271.167 159.277 270.476C159.995 269.785 160.849 269.44 161.839 269.44C162.837 269.44 163.64 269.86 164.247 270.7V266.612H165.815V277H164.247V275.88C163.668 276.701 162.823 277.112 161.713 277.112ZM159.767 273.318C159.767 274.027 159.995 274.606 160.453 275.054C160.91 275.502 161.447 275.726 162.063 275.726C162.679 275.726 163.201 275.502 163.631 275.054C164.06 274.597 164.275 274.013 164.275 273.304C164.275 272.595 164.06 272.002 163.631 271.526C163.201 271.05 162.674 270.812 162.049 270.812C161.423 270.812 160.887 271.05 160.439 271.526C159.991 272.002 159.767 272.599 159.767 273.318ZM173.489 273.584V269.552H175.057V277H173.489V275.642C173.237 276.099 172.887 276.459 172.439 276.72C172 276.981 171.524 277.112 171.011 277.112C170.171 277.112 169.49 276.855 168.967 276.342C168.454 275.829 168.197 275.087 168.197 274.116V269.552H169.765V273.64C169.765 275.012 170.334 275.698 171.473 275.698C172.014 275.698 172.486 275.521 172.887 275.166C173.288 274.802 173.489 274.275 173.489 273.584ZM183.566 277H182.138V276.006C181.522 276.743 180.696 277.112 179.66 277.112C178.885 277.112 178.241 276.893 177.728 276.454C177.224 276.015 176.972 275.432 176.972 274.704C176.972 273.967 177.243 273.416 177.784 273.052C178.325 272.688 179.058 272.506 179.982 272.506H182.012V272.226C182.012 271.237 181.461 270.742 180.36 270.742C179.669 270.742 178.951 270.994 178.204 271.498L177.504 270.518C178.409 269.799 179.436 269.44 180.584 269.44C181.461 269.44 182.175 269.664 182.726 270.112C183.286 270.551 183.566 271.246 183.566 272.198V277ZM181.998 274.228V273.598H180.234C179.105 273.598 178.54 273.953 178.54 274.662C178.54 275.026 178.68 275.306 178.96 275.502C179.24 275.689 179.627 275.782 180.122 275.782C180.626 275.782 181.065 275.642 181.438 275.362C181.811 275.082 181.998 274.704 181.998 274.228ZM187.517 277H185.949V266.612H187.517V277ZM200.066 277H198.638V276.006C198.022 276.743 197.196 277.112 196.16 277.112C195.386 277.112 194.742 276.893 194.228 276.454C193.724 276.015 193.472 275.432 193.472 274.704C193.472 273.967 193.743 273.416 194.284 273.052C194.826 272.688 195.558 272.506 196.482 272.506H198.512V272.226C198.512 271.237 197.962 270.742 196.86 270.742C196.17 270.742 195.451 270.994 194.704 271.498L194.004 270.518C194.91 269.799 195.936 269.44 197.084 269.44C197.962 269.44 198.676 269.664 199.226 270.112C199.786 270.551 200.066 271.246 200.066 272.198V277ZM198.498 274.228V273.598H196.734C195.605 273.598 195.04 273.953 195.04 274.662C195.04 275.026 195.18 275.306 195.46 275.502C195.74 275.689 196.128 275.782 196.622 275.782C197.126 275.782 197.565 275.642 197.938 275.362C198.312 275.082 198.498 274.704 198.498 274.228ZM205.753 277.112C204.717 277.112 203.826 276.762 203.079 276.062C202.332 275.353 201.959 274.429 201.959 273.29C201.959 272.151 202.346 271.227 203.121 270.518C203.905 269.799 204.857 269.44 205.977 269.44C207.097 269.44 208.044 269.827 208.819 270.602L207.895 271.736C207.251 271.176 206.602 270.896 205.949 270.896C205.296 270.896 204.726 271.115 204.241 271.554C203.765 271.983 203.527 272.543 203.527 273.234C203.527 273.915 203.765 274.494 204.241 274.97C204.717 275.446 205.3 275.684 205.991 275.684C206.691 275.684 207.349 275.367 207.965 274.732L208.889 275.74C207.984 276.655 206.938 277.112 205.753 277.112ZM214.019 277.112C212.983 277.112 212.092 276.762 211.345 276.062C210.599 275.353 210.225 274.429 210.225 273.29C210.225 272.151 210.613 271.227 211.387 270.518C212.171 269.799 213.123 269.44 214.243 269.44C215.363 269.44 216.311 269.827 217.085 270.602L216.161 271.736C215.517 271.176 214.869 270.896 214.215 270.896C213.562 270.896 212.993 271.115 212.507 271.554C212.031 271.983 211.793 272.543 211.793 273.234C211.793 273.915 212.031 274.494 212.507 274.97C212.983 275.446 213.567 275.684 214.257 275.684C214.957 275.684 215.615 275.367 216.231 274.732L217.155 275.74C216.25 276.655 215.205 277.112 214.019 277.112ZM224.19 273.584V269.552H225.758V277H224.19V275.642C223.938 276.099 223.588 276.459 223.14 276.72C222.701 276.981 222.225 277.112 221.712 277.112C220.872 277.112 220.191 276.855 219.668 276.342C219.155 275.829 218.898 275.087 218.898 274.116V269.552H220.466V273.64C220.466 275.012 221.035 275.698 222.174 275.698C222.715 275.698 223.187 275.521 223.588 275.166C223.989 274.802 224.19 274.275 224.19 273.584ZM229.801 272.968V277H228.233V269.552H229.801V270.91C230.025 270.453 230.361 270.093 230.809 269.832C231.266 269.571 231.756 269.44 232.279 269.44C233.455 269.44 234.253 269.925 234.673 270.896C235.41 269.925 236.329 269.44 237.431 269.44C238.271 269.44 238.947 269.697 239.461 270.21C239.983 270.723 240.245 271.465 240.245 272.436V277H238.677V272.912C238.677 271.54 238.107 270.854 236.969 270.854C236.437 270.854 235.97 271.027 235.569 271.372C235.177 271.708 234.971 272.203 234.953 272.856V277H233.385V272.912C233.385 272.203 233.259 271.685 233.007 271.358C232.755 271.022 232.358 270.854 231.817 270.854C231.275 270.854 230.804 271.036 230.403 271.4C230.001 271.755 229.801 272.277 229.801 272.968ZM247.832 273.584V269.552H249.4V277H247.832V275.642C247.58 276.099 247.23 276.459 246.782 276.72C246.343 276.981 245.867 277.112 245.354 277.112C244.514 277.112 243.833 276.855 243.31 276.342C242.797 275.829 242.54 275.087 242.54 274.116V269.552H244.108V273.64C244.108 275.012 244.677 275.698 245.816 275.698C246.357 275.698 246.829 275.521 247.23 275.166C247.631 274.802 247.832 274.275 247.832 273.584ZM253.443 277H251.875V266.612H253.443V277ZM261.951 277H260.523V276.006C259.907 276.743 259.081 277.112 258.045 277.112C257.27 277.112 256.626 276.893 256.113 276.454C255.609 276.015 255.357 275.432 255.357 274.704C255.357 273.967 255.627 273.416 256.169 273.052C256.71 272.688 257.443 272.506 258.367 272.506H260.397V272.226C260.397 271.237 259.846 270.742 258.745 270.742C258.054 270.742 257.335 270.994 256.589 271.498L255.889 270.518C256.794 269.799 257.821 269.44 258.969 269.44C259.846 269.44 260.56 269.664 261.111 270.112C261.671 270.551 261.951 271.246 261.951 272.198V277ZM260.383 274.228V273.598H258.619C257.489 273.598 256.925 273.953 256.925 274.662C256.925 275.026 257.065 275.306 257.345 275.502C257.625 275.689 258.012 275.782 258.507 275.782C259.011 275.782 259.449 275.642 259.823 275.362C260.196 275.082 260.383 274.704 260.383 274.228ZM266.183 270.812V274.592C266.183 274.947 266.277 275.231 266.463 275.446C266.65 275.651 266.911 275.754 267.247 275.754C267.583 275.754 267.905 275.591 268.213 275.264L268.857 276.37C268.307 276.865 267.695 277.112 267.023 277.112C266.361 277.112 265.791 276.883 265.315 276.426C264.849 275.959 264.615 275.334 264.615 274.55V270.812H263.677V269.552H264.615V267.214H266.183V269.552H268.143V270.812H266.183ZM271.871 277H270.303V269.552H271.871V277ZM270.401 268.068C270.205 267.872 270.107 267.639 270.107 267.368C270.107 267.097 270.205 266.864 270.401 266.668C270.597 266.472 270.83 266.374 271.101 266.374C271.372 266.374 271.605 266.472 271.801 266.668C271.997 266.864 272.095 267.097 272.095 267.368C272.095 267.639 271.997 267.872 271.801 268.068C271.605 268.264 271.372 268.362 271.101 268.362C270.83 268.362 270.597 268.264 270.401 268.068ZM276.081 275.04C276.529 275.488 277.093 275.712 277.775 275.712C278.456 275.712 279.016 275.488 279.455 275.04C279.903 274.583 280.127 273.995 280.127 273.276C280.127 272.557 279.903 271.974 279.455 271.526C279.016 271.069 278.456 270.84 277.775 270.84C277.093 270.84 276.529 271.069 276.081 271.526C275.642 271.974 275.423 272.557 275.423 273.276C275.423 273.995 275.642 274.583 276.081 275.04ZM280.575 276.006C279.828 276.743 278.895 277.112 277.775 277.112C276.655 277.112 275.721 276.743 274.975 276.006C274.228 275.259 273.855 274.349 273.855 273.276C273.855 272.203 274.228 271.297 274.975 270.56C275.721 269.813 276.655 269.44 277.775 269.44C278.895 269.44 279.828 269.813 280.575 270.56C281.321 271.297 281.695 272.203 281.695 273.276C281.695 274.349 281.321 275.259 280.575 276.006ZM285.246 272.968V277H283.678V269.552H285.246V270.91C285.498 270.453 285.843 270.093 286.282 269.832C286.73 269.571 287.21 269.44 287.724 269.44C288.564 269.44 289.24 269.697 289.754 270.21C290.276 270.723 290.538 271.465 290.538 272.436V277H288.97V272.912C288.97 271.54 288.4 270.854 287.262 270.854C286.72 270.854 286.249 271.036 285.848 271.4C285.446 271.755 285.246 272.277 285.246 272.968ZM298.706 275.04C299.154 275.488 299.719 275.712 300.4 275.712C301.081 275.712 301.641 275.488 302.08 275.04C302.528 274.583 302.752 273.995 302.752 273.276C302.752 272.557 302.528 271.974 302.08 271.526C301.641 271.069 301.081 270.84 300.4 270.84C299.719 270.84 299.154 271.069 298.706 271.526C298.267 271.974 298.048 272.557 298.048 273.276C298.048 273.995 298.267 274.583 298.706 275.04ZM303.2 276.006C302.453 276.743 301.52 277.112 300.4 277.112C299.28 277.112 298.347 276.743 297.6 276.006C296.853 275.259 296.48 274.349 296.48 273.276C296.48 272.203 296.853 271.297 297.6 270.56C298.347 269.813 299.28 269.44 300.4 269.44C301.52 269.44 302.453 269.813 303.2 270.56C303.947 271.297 304.32 272.203 304.32 273.276C304.32 274.349 303.947 275.259 303.2 276.006ZM308.126 268.936V269.552H310.086V270.812H308.126V277H306.558V270.812H305.62V269.552H306.558V268.978C306.558 268.194 306.791 267.573 307.258 267.116C307.734 266.649 308.303 266.416 308.966 266.416C309.638 266.416 310.249 266.663 310.8 267.158L310.156 268.264C309.848 267.937 309.526 267.774 309.19 267.774C308.854 267.774 308.592 267.881 308.406 268.096C308.219 268.301 308.126 268.581 308.126 268.936ZM98.9967 297H97.4287V289.552H98.9967V297ZM97.5267 288.068C97.3307 287.872 97.2327 287.639 97.2327 287.368C97.2327 287.097 97.3307 286.864 97.5267 286.668C97.7227 286.472 97.9561 286.374 98.2267 286.374C98.4974 286.374 98.7307 286.472 98.9267 286.668C99.1227 286.864 99.2207 287.097 99.2207 287.368C99.2207 287.639 99.1227 287.872 98.9267 288.068C98.7307 288.264 98.4974 288.362 98.2267 288.362C97.9561 288.362 97.7227 288.264 97.5267 288.068ZM103.039 292.968V297H101.471V289.552H103.039V290.91C103.291 290.453 103.636 290.093 104.075 289.832C104.523 289.571 105.003 289.44 105.517 289.44C106.357 289.44 107.033 289.697 107.547 290.21C108.069 290.723 108.331 291.465 108.331 292.436V297H106.763V292.912C106.763 291.54 106.193 290.854 105.055 290.854C104.513 290.854 104.042 291.036 103.641 291.4C103.239 291.755 103.039 292.277 103.039 292.968ZM112.585 288.936V289.552H114.545V290.812H112.585V297H111.017V290.812H110.079V289.552H111.017V288.978C111.017 288.194 111.25 287.573 111.717 287.116C112.193 286.649 112.762 286.416 113.425 286.416C114.097 286.416 114.708 286.663 115.259 287.158L114.615 288.264C114.307 287.937 113.985 287.774 113.649 287.774C113.313 287.774 113.052 287.881 112.865 288.096C112.678 288.301 112.585 288.581 112.585 288.936ZM117.812 295.04C118.26 295.488 118.824 295.712 119.506 295.712C120.187 295.712 120.747 295.488 121.186 295.04C121.634 294.583 121.858 293.995 121.858 293.276C121.858 292.557 121.634 291.974 121.186 291.526C120.747 291.069 120.187 290.84 119.506 290.84C118.824 290.84 118.26 291.069 117.812 291.526C117.373 291.974 117.154 292.557 117.154 293.276C117.154 293.995 117.373 294.583 117.812 295.04ZM122.306 296.006C121.559 296.743 120.626 297.112 119.506 297.112C118.386 297.112 117.452 296.743 116.706 296.006C115.959 295.259 115.586 294.349 115.586 293.276C115.586 292.203 115.959 291.297 116.706 290.56C117.452 289.813 118.386 289.44 119.506 289.44C120.626 289.44 121.559 289.813 122.306 290.56C123.052 291.297 123.426 292.203 123.426 293.276C123.426 294.349 123.052 295.259 122.306 296.006ZM129.314 291.022C128.54 291.022 127.956 291.274 127.564 291.778C127.172 292.282 126.976 292.959 126.976 293.808V297H125.408V289.552H126.976V291.05C127.228 290.583 127.569 290.201 127.998 289.902C128.437 289.603 128.899 289.449 129.384 289.44L129.398 291.022C129.37 291.022 129.342 291.022 129.314 291.022ZM132.741 292.968V297H131.173V289.552H132.741V290.91C132.965 290.453 133.301 290.093 133.749 289.832C134.206 289.571 134.696 289.44 135.219 289.44C136.395 289.44 137.193 289.925 137.613 290.896C138.35 289.925 139.27 289.44 140.371 289.44C141.211 289.44 141.888 289.697 142.401 290.21C142.924 290.723 143.185 291.465 143.185 292.436V297H141.617V292.912C141.617 291.54 141.048 290.854 139.909 290.854C139.377 290.854 138.91 291.027 138.509 291.372C138.117 291.708 137.912 292.203 137.893 292.856V297H136.325V292.912C136.325 292.203 136.199 291.685 135.947 291.358C135.695 291.022 135.298 290.854 134.757 290.854C134.216 290.854 133.744 291.036 133.343 291.4C132.942 291.755 132.741 292.277 132.741 292.968ZM151.598 297H150.17V296.006C149.554 296.743 148.728 297.112 147.692 297.112C146.918 297.112 146.274 296.893 145.76 296.454C145.256 296.015 145.004 295.432 145.004 294.704C145.004 293.967 145.275 293.416 145.816 293.052C146.358 292.688 147.09 292.506 148.014 292.506H150.044V292.226C150.044 291.237 149.494 290.742 148.392 290.742C147.702 290.742 146.983 290.994 146.236 291.498L145.536 290.518C146.442 289.799 147.468 289.44 148.616 289.44C149.494 289.44 150.208 289.664 150.758 290.112C151.318 290.551 151.598 291.246 151.598 292.198V297ZM150.03 294.228V293.598H148.266C147.137 293.598 146.572 293.953 146.572 294.662C146.572 295.026 146.712 295.306 146.992 295.502C147.272 295.689 147.66 295.782 148.154 295.782C148.658 295.782 149.097 295.642 149.47 295.362C149.844 295.082 150.03 294.704 150.03 294.228ZM155.831 290.812V294.592C155.831 294.947 155.924 295.231 156.111 295.446C156.298 295.651 156.559 295.754 156.895 295.754C157.231 295.754 157.553 295.591 157.861 295.264L158.505 296.37C157.954 296.865 157.343 297.112 156.671 297.112C156.008 297.112 155.439 296.883 154.963 296.426C154.496 295.959 154.263 295.334 154.263 294.55V290.812H153.325V289.552H154.263V287.214H155.831V289.552H157.791V290.812H155.831ZM161.519 297H159.951V289.552H161.519V297ZM160.049 288.068C159.853 287.872 159.755 287.639 159.755 287.368C159.755 287.097 159.853 286.864 160.049 286.668C160.245 286.472 160.478 286.374 160.749 286.374C161.019 286.374 161.253 286.472 161.449 286.668C161.645 286.864 161.743 287.097 161.743 287.368C161.743 287.639 161.645 287.872 161.449 288.068C161.253 288.264 161.019 288.362 160.749 288.362C160.478 288.362 160.245 288.264 160.049 288.068ZM165.728 295.04C166.176 295.488 166.741 295.712 167.422 295.712C168.104 295.712 168.664 295.488 169.102 295.04C169.55 294.583 169.774 293.995 169.774 293.276C169.774 292.557 169.55 291.974 169.102 291.526C168.664 291.069 168.104 290.84 167.422 290.84C166.741 290.84 166.176 291.069 165.728 291.526C165.29 291.974 165.07 292.557 165.07 293.276C165.07 293.995 165.29 294.583 165.728 295.04ZM170.222 296.006C169.476 296.743 168.542 297.112 167.422 297.112C166.302 297.112 165.369 296.743 164.622 296.006C163.876 295.259 163.502 294.349 163.502 293.276C163.502 292.203 163.876 291.297 164.622 290.56C165.369 289.813 166.302 289.44 167.422 289.44C168.542 289.44 169.476 289.813 170.222 290.56C170.969 291.297 171.342 292.203 171.342 293.276C171.342 294.349 170.969 295.259 170.222 296.006ZM174.893 292.968V297H173.325V289.552H174.893V290.91C175.145 290.453 175.491 290.093 175.929 289.832C176.377 289.571 176.858 289.44 177.371 289.44C178.211 289.44 178.888 289.697 179.401 290.21C179.924 290.723 180.185 291.465 180.185 292.436V297H178.617V292.912C178.617 291.54 178.048 290.854 176.909 290.854C176.368 290.854 175.897 291.036 175.495 291.4C175.094 291.755 174.893 292.277 174.893 292.968ZM192.652 297H191.224V296.006C190.608 296.743 189.782 297.112 188.746 297.112C187.971 297.112 187.327 296.893 186.814 296.454C186.31 296.015 186.058 295.432 186.058 294.704C186.058 293.967 186.328 293.416 186.87 293.052C187.411 292.688 188.144 292.506 189.068 292.506H191.098V292.226C191.098 291.237 190.547 290.742 189.446 290.742C188.755 290.742 188.036 290.994 187.29 291.498L186.59 290.518C187.495 289.799 188.522 289.44 189.67 289.44C190.547 289.44 191.261 289.664 191.812 290.112C192.372 290.551 192.652 291.246 192.652 292.198V297ZM191.084 294.228V293.598H189.32C188.19 293.598 187.626 293.953 187.626 294.662C187.626 295.026 187.766 295.306 188.046 295.502C188.326 295.689 188.713 295.782 189.208 295.782C189.712 295.782 190.15 295.642 190.524 295.362C190.897 295.082 191.084 294.704 191.084 294.228ZM199.025 289.44C200.023 289.44 200.877 289.785 201.587 290.476C202.296 291.167 202.651 292.086 202.651 293.234C202.651 294.382 202.296 295.315 201.587 296.034C200.887 296.753 200.065 297.112 199.123 297.112C198.189 297.112 197.349 296.701 196.603 295.88V297H195.035V286.612H196.603V290.854C197.219 289.911 198.026 289.44 199.025 289.44ZM196.575 293.29C196.575 293.999 196.789 294.583 197.219 295.04C197.648 295.488 198.171 295.712 198.787 295.712C199.403 295.712 199.939 295.488 200.397 295.04C200.854 294.592 201.083 294.013 201.083 293.304C201.083 292.585 200.859 291.993 200.411 291.526C199.963 291.05 199.426 290.812 198.801 290.812C198.175 290.812 197.648 291.05 197.219 291.526C196.789 291.993 196.575 292.581 196.575 293.29ZM206.377 295.04C206.825 295.488 207.39 295.712 208.071 295.712C208.752 295.712 209.312 295.488 209.751 295.04C210.199 294.583 210.423 293.995 210.423 293.276C210.423 292.557 210.199 291.974 209.751 291.526C209.312 291.069 208.752 290.84 208.071 290.84C207.39 290.84 206.825 291.069 206.377 291.526C205.938 291.974 205.719 292.557 205.719 293.276C205.719 293.995 205.938 294.583 206.377 295.04ZM210.871 296.006C210.124 296.743 209.191 297.112 208.071 297.112C206.951 297.112 206.018 296.743 205.271 296.006C204.524 295.259 204.151 294.349 204.151 293.276C204.151 292.203 204.524 291.297 205.271 290.56C206.018 289.813 206.951 289.44 208.071 289.44C209.191 289.44 210.124 289.813 210.871 290.56C211.618 291.297 211.991 292.203 211.991 293.276C211.991 294.349 211.618 295.259 210.871 296.006ZM219.182 293.584V289.552H220.75V297H219.182V295.642C218.93 296.099 218.58 296.459 218.132 296.72C217.693 296.981 217.217 297.112 216.704 297.112C215.864 297.112 215.182 296.855 214.66 296.342C214.146 295.829 213.89 295.087 213.89 294.116V289.552H215.458V293.64C215.458 295.012 216.027 295.698 217.166 295.698C217.707 295.698 218.178 295.521 218.58 295.166C218.981 294.802 219.182 294.275 219.182 293.584ZM225.156 290.812V294.592C225.156 294.947 225.25 295.231 225.436 295.446C225.623 295.651 225.884 295.754 226.22 295.754C226.556 295.754 226.878 295.591 227.186 295.264L227.83 296.37C227.28 296.865 226.668 297.112 225.996 297.112C225.334 297.112 224.764 296.883 224.288 296.426C223.822 295.959 223.588 295.334 223.588 294.55V290.812H222.65V289.552H223.588V287.214H225.156V289.552H227.116V290.812H225.156ZM239.352 297H237.924V296.006C237.308 296.743 236.482 297.112 235.446 297.112C234.671 297.112 234.027 296.893 233.514 296.454C233.01 296.015 232.758 295.432 232.758 294.704C232.758 293.967 233.028 293.416 233.57 293.052C234.111 292.688 234.844 292.506 235.768 292.506H237.798V292.226C237.798 291.237 237.247 290.742 236.146 290.742C235.455 290.742 234.736 290.994 233.99 291.498L233.29 290.518C234.195 289.799 235.222 289.44 236.37 289.44C237.247 289.44 237.961 289.664 238.512 290.112C239.072 290.551 239.352 291.246 239.352 292.198V297ZM237.784 294.228V293.598H236.02C234.89 293.598 234.326 293.953 234.326 294.662C234.326 295.026 234.466 295.306 234.746 295.502C235.026 295.689 235.413 295.782 235.908 295.782C236.412 295.782 236.85 295.642 237.224 295.362C237.597 295.082 237.784 294.704 237.784 294.228ZM243.585 290.812V294.592C243.585 294.947 243.678 295.231 243.865 295.446C244.051 295.651 244.313 295.754 244.649 295.754C244.985 295.754 245.307 295.591 245.615 295.264L246.259 296.37C245.708 296.865 245.097 297.112 244.425 297.112C243.762 297.112 243.193 296.883 242.717 296.426C242.25 295.959 242.017 295.334 242.017 294.55V290.812H241.079V289.552H242.017V287.214H243.585V289.552H245.545V290.812H243.585ZM249.385 295.04C249.833 295.488 250.398 295.712 251.079 295.712C251.761 295.712 252.321 295.488 252.759 295.04C253.207 294.583 253.431 293.995 253.431 293.276C253.431 292.557 253.207 291.974 252.759 291.526C252.321 291.069 251.761 290.84 251.079 290.84C250.398 290.84 249.833 291.069 249.385 291.526C248.947 291.974 248.727 292.557 248.727 293.276C248.727 293.995 248.947 294.583 249.385 295.04ZM253.879 296.006C253.133 296.743 252.199 297.112 251.079 297.112C249.959 297.112 249.026 296.743 248.279 296.006C247.533 295.259 247.159 294.349 247.159 293.276C247.159 292.203 247.533 291.297 248.279 290.56C249.026 289.813 249.959 289.44 251.079 289.44C252.199 289.44 253.133 289.813 253.879 290.56C254.626 291.297 254.999 292.203 254.999 293.276C254.999 294.349 254.626 295.259 253.879 296.006ZM258.55 292.968V297H256.982V289.552H258.55V290.91C258.774 290.453 259.11 290.093 259.558 289.832C260.016 289.571 260.506 289.44 261.028 289.44C262.204 289.44 263.002 289.925 263.422 290.896C264.16 289.925 265.079 289.44 266.18 289.44C267.02 289.44 267.697 289.697 268.21 290.21C268.733 290.723 268.994 291.465 268.994 292.436V297H267.426V292.912C267.426 291.54 266.857 290.854 265.718 290.854C265.186 290.854 264.72 291.027 264.318 291.372C263.926 291.708 263.721 292.203 263.702 292.856V297H262.134V292.912C262.134 292.203 262.008 291.685 261.756 291.358C261.504 291.022 261.108 290.854 260.566 290.854C260.025 290.854 259.554 291.036 259.152 291.4C258.751 291.755 258.55 292.277 258.55 292.968ZM272.942 297H271.374V289.552H272.942V297ZM271.472 288.068C271.276 287.872 271.178 287.639 271.178 287.368C271.178 287.097 271.276 286.864 271.472 286.668C271.668 286.472 271.901 286.374 272.172 286.374C272.442 286.374 272.676 286.472 272.872 286.668C273.068 286.864 273.166 287.097 273.166 287.368C273.166 287.639 273.068 287.872 272.872 288.068C272.676 288.264 272.442 288.362 272.172 288.362C271.901 288.362 271.668 288.264 271.472 288.068ZM278.719 297.112C277.683 297.112 276.792 296.762 276.045 296.062C275.299 295.353 274.925 294.429 274.925 293.29C274.925 292.151 275.313 291.227 276.087 290.518C276.871 289.799 277.823 289.44 278.943 289.44C280.063 289.44 281.011 289.827 281.785 290.602L280.861 291.736C280.217 291.176 279.569 290.896 278.915 290.896C278.262 290.896 277.693 291.115 277.207 291.554C276.731 291.983 276.493 292.543 276.493 293.234C276.493 293.915 276.731 294.494 277.207 294.97C277.683 295.446 278.267 295.684 278.957 295.684C279.657 295.684 280.315 295.367 280.931 294.732L281.855 295.74C280.95 296.655 279.905 297.112 278.719 297.112ZM293.758 297H292.33V296.006C291.714 296.743 290.888 297.112 289.852 297.112C289.077 297.112 288.433 296.893 287.92 296.454C287.416 296.015 287.164 295.432 287.164 294.704C287.164 293.967 287.434 293.416 287.976 293.052C288.517 292.688 289.25 292.506 290.174 292.506H292.204V292.226C292.204 291.237 291.653 290.742 290.552 290.742C289.861 290.742 289.142 290.994 288.396 291.498L287.696 290.518C288.601 289.799 289.628 289.44 290.776 289.44C291.653 289.44 292.367 289.664 292.918 290.112C293.478 290.551 293.758 291.246 293.758 292.198V297ZM292.19 294.228V293.598H290.426C289.296 293.598 288.732 293.953 288.732 294.662C288.732 295.026 288.872 295.306 289.152 295.502C289.432 295.689 289.819 295.782 290.314 295.782C290.818 295.782 291.256 295.642 291.63 295.362C292.003 295.082 292.19 294.704 292.19 294.228ZM297.708 292.968V297H296.14V289.552H297.708V290.91C297.96 290.453 298.306 290.093 298.744 289.832C299.192 289.571 299.673 289.44 300.186 289.44C301.026 289.44 301.703 289.697 302.216 290.21C302.739 290.723 303 291.465 303 292.436V297H301.432V292.912C301.432 291.54 300.863 290.854 299.724 290.854C299.183 290.854 298.712 291.036 298.31 291.4C297.909 291.755 297.708 292.277 297.708 292.968ZM308.429 297.112C307.487 297.112 306.665 296.757 305.965 296.048C305.265 295.339 304.915 294.405 304.915 293.248C304.915 292.091 305.275 291.167 305.993 290.476C306.712 289.785 307.566 289.44 308.555 289.44C309.554 289.44 310.357 289.86 310.963 290.7V286.612H312.531V297H310.963V295.88C310.385 296.701 309.54 297.112 308.429 297.112ZM306.483 293.318C306.483 294.027 306.712 294.606 307.169 295.054C307.627 295.502 308.163 295.726 308.779 295.726C309.395 295.726 309.918 295.502 310.347 295.054C310.777 294.597 310.991 294.013 310.991 293.304C310.991 292.595 310.777 292.002 310.347 291.526C309.918 291.05 309.391 290.812 308.765 290.812C308.14 290.812 307.603 291.05 307.155 291.526C306.707 292.002 306.483 292.599 306.483 293.318ZM99.0441 314.774C99.0441 315.483 98.7874 316.053 98.2741 316.482C97.7608 316.902 97.1028 317.112 96.3001 317.112C95.7588 317.112 95.1941 317.014 94.6061 316.818C94.0274 316.622 93.5141 316.347 93.0661 315.992L93.8221 314.774C94.6901 315.427 95.5301 315.754 96.3421 315.754C96.6968 315.754 96.9768 315.675 97.1821 315.516C97.3874 315.348 97.4901 315.138 97.4901 314.886C97.4901 314.513 96.9954 314.177 96.0061 313.878C95.9314 313.85 95.8754 313.831 95.8381 313.822C94.2888 313.402 93.5141 312.702 93.5141 311.722C93.5141 311.031 93.7801 310.481 94.3121 310.07C94.8534 309.65 95.5534 309.44 96.4121 309.44C97.2708 309.44 98.0828 309.692 98.8481 310.196L98.2601 311.358C97.6534 310.957 96.9954 310.756 96.2861 310.756C95.9128 310.756 95.6094 310.826 95.3761 310.966C95.1428 311.097 95.0261 311.297 95.0261 311.568C95.0261 311.811 95.1474 311.988 95.3901 312.1C95.5581 312.184 95.7914 312.263 96.0901 312.338C96.3981 312.413 96.6688 312.487 96.9021 312.562C97.1354 312.637 97.3594 312.721 97.5741 312.814C97.7981 312.907 98.0361 313.038 98.2881 313.206C98.7921 313.542 99.0441 314.065 99.0441 314.774ZM102.588 312.968V317H101.02V309.552H102.588V310.91C102.812 310.453 103.148 310.093 103.596 309.832C104.053 309.571 104.543 309.44 105.066 309.44C106.242 309.44 107.04 309.925 107.46 310.896C108.197 309.925 109.117 309.44 110.218 309.44C111.058 309.44 111.735 309.697 112.248 310.21C112.771 310.723 113.032 311.465 113.032 312.436V317H111.464V312.912C111.464 311.54 110.895 310.854 109.756 310.854C109.224 310.854 108.757 311.027 108.356 311.372C107.964 311.708 107.759 312.203 107.74 312.856V317H106.172V312.912C106.172 312.203 106.046 311.685 105.794 311.358C105.542 311.022 105.145 310.854 104.604 310.854C104.063 310.854 103.591 311.036 103.19 311.4C102.789 311.755 102.588 312.277 102.588 312.968ZM121.446 317H120.018V316.006C119.402 316.743 118.576 317.112 117.54 317.112C116.765 317.112 116.121 316.893 115.608 316.454C115.104 316.015 114.852 315.432 114.852 314.704C114.852 313.967 115.122 313.416 115.664 313.052C116.205 312.688 116.938 312.506 117.862 312.506H119.892V312.226C119.892 311.237 119.341 310.742 118.24 310.742C117.549 310.742 116.83 310.994 116.084 311.498L115.384 310.518C116.289 309.799 117.316 309.44 118.464 309.44C119.341 309.44 120.055 309.664 120.606 310.112C121.166 310.551 121.446 311.246 121.446 312.198V317ZM119.878 314.228V313.598H118.114C116.984 313.598 116.42 313.953 116.42 314.662C116.42 315.026 116.56 315.306 116.84 315.502C117.12 315.689 117.507 315.782 118.002 315.782C118.506 315.782 118.944 315.642 119.318 315.362C119.691 315.082 119.878 314.704 119.878 314.228ZM125.396 317H123.828V306.612H125.396V317ZM129.438 317H127.87V306.612H129.438V317ZM131.786 313.556V312.086H136.434V313.556H131.786ZM144.076 314.774C144.076 315.483 143.819 316.053 143.306 316.482C142.793 316.902 142.135 317.112 141.332 317.112C140.791 317.112 140.226 317.014 139.638 316.818C139.059 316.622 138.546 316.347 138.098 315.992L138.854 314.774C139.722 315.427 140.562 315.754 141.374 315.754C141.729 315.754 142.009 315.675 142.214 315.516C142.419 315.348 142.522 315.138 142.522 314.886C142.522 314.513 142.027 314.177 141.038 313.878C140.963 313.85 140.907 313.831 140.87 313.822C139.321 313.402 138.546 312.702 138.546 311.722C138.546 311.031 138.812 310.481 139.344 310.07C139.885 309.65 140.585 309.44 141.444 309.44C142.303 309.44 143.115 309.692 143.88 310.196L143.292 311.358C142.685 310.957 142.027 310.756 141.318 310.756C140.945 310.756 140.641 310.826 140.408 310.966C140.175 311.097 140.058 311.297 140.058 311.568C140.058 311.811 140.179 311.988 140.422 312.1C140.59 312.184 140.823 312.263 141.122 312.338C141.43 312.413 141.701 312.487 141.934 312.562C142.167 312.637 142.391 312.721 142.606 312.814C142.83 312.907 143.068 313.038 143.32 313.206C143.824 313.542 144.076 314.065 144.076 314.774ZM149.356 317.112C148.32 317.112 147.429 316.762 146.682 316.062C145.936 315.353 145.562 314.429 145.562 313.29C145.562 312.151 145.95 311.227 146.724 310.518C147.508 309.799 148.46 309.44 149.58 309.44C150.7 309.44 151.648 309.827 152.422 310.602L151.498 311.736C150.854 311.176 150.206 310.896 149.552 310.896C148.899 310.896 148.33 311.115 147.844 311.554C147.368 311.983 147.13 312.543 147.13 313.234C147.13 313.915 147.368 314.494 147.844 314.97C148.32 315.446 148.904 315.684 149.594 315.684C150.294 315.684 150.952 315.367 151.568 314.732L152.492 315.74C151.587 316.655 150.542 317.112 149.356 317.112ZM160.298 317H158.87V316.006C158.254 316.743 157.428 317.112 156.392 317.112C155.617 317.112 154.973 316.893 154.46 316.454C153.956 316.015 153.704 315.432 153.704 314.704C153.704 313.967 153.975 313.416 154.516 313.052C155.057 312.688 155.79 312.506 156.714 312.506H158.744V312.226C158.744 311.237 158.193 310.742 157.092 310.742C156.401 310.742 155.683 310.994 154.936 311.498L154.236 310.518C155.141 309.799 156.168 309.44 157.316 309.44C158.193 309.44 158.907 309.664 159.458 310.112C160.018 310.551 160.298 311.246 160.298 312.198V317ZM158.73 314.228V313.598H156.966C155.837 313.598 155.272 313.953 155.272 314.662C155.272 315.026 155.412 315.306 155.692 315.502C155.972 315.689 156.359 315.782 156.854 315.782C157.358 315.782 157.797 315.642 158.17 315.362C158.543 315.082 158.73 314.704 158.73 314.228ZM164.249 317H162.681V306.612H164.249V317ZM173.652 313.962H167.814C167.852 314.503 168.099 314.942 168.556 315.278C169.014 315.605 169.536 315.768 170.124 315.768C171.058 315.768 171.767 315.474 172.252 314.886L173.148 315.866C172.346 316.697 171.3 317.112 170.012 317.112C168.967 317.112 168.076 316.767 167.338 316.076C166.61 315.376 166.246 314.443 166.246 313.276C166.246 312.1 166.62 311.167 167.366 310.476C168.113 309.785 168.99 309.44 169.998 309.44C171.016 309.44 171.879 309.748 172.588 310.364C173.298 310.971 173.652 311.811 173.652 312.884V313.962ZM167.814 312.73H172.084C172.084 312.105 171.888 311.624 171.496 311.288C171.104 310.952 170.619 310.784 170.04 310.784C169.471 310.784 168.958 310.961 168.5 311.316C168.043 311.661 167.814 312.133 167.814 312.73ZM183.609 309.44C184.607 309.44 185.461 309.785 186.171 310.476C186.88 311.167 187.235 312.086 187.235 313.234C187.235 314.382 186.88 315.315 186.171 316.034C185.471 316.753 184.649 317.112 183.707 317.112C182.773 317.112 181.933 316.701 181.187 315.88V317H179.619V306.612H181.187V310.854C181.803 309.911 182.61 309.44 183.609 309.44ZM181.159 313.29C181.159 313.999 181.373 314.583 181.803 315.04C182.232 315.488 182.755 315.712 183.371 315.712C183.987 315.712 184.523 315.488 184.981 315.04C185.438 314.592 185.667 314.013 185.667 313.304C185.667 312.585 185.443 311.993 184.995 311.526C184.547 311.05 184.01 310.812 183.385 310.812C182.759 310.812 182.232 311.05 181.803 311.526C181.373 311.993 181.159 312.581 181.159 313.29ZM196.155 313.962H190.317C190.354 314.503 190.601 314.942 191.059 315.278C191.516 315.605 192.039 315.768 192.627 315.768C193.56 315.768 194.269 315.474 194.755 314.886L195.651 315.866C194.848 316.697 193.803 317.112 192.515 317.112C191.469 317.112 190.578 316.767 189.841 316.076C189.113 315.376 188.749 314.443 188.749 313.276C188.749 312.1 189.122 311.167 189.869 310.476C190.615 309.785 191.493 309.44 192.501 309.44C193.518 309.44 194.381 309.748 195.091 310.364C195.8 310.971 196.155 311.811 196.155 312.884V313.962ZM190.317 312.73H194.587C194.587 312.105 194.391 311.624 193.999 311.288C193.607 310.952 193.121 310.784 192.543 310.784C191.973 310.784 191.46 310.961 191.003 311.316C190.545 311.661 190.317 312.133 190.317 312.73ZM199.647 312.968V317H198.079V306.626H199.647V310.91C199.871 310.453 200.207 310.093 200.655 309.832C201.112 309.571 201.602 309.44 202.125 309.44C202.965 309.44 203.642 309.697 204.155 310.21C204.678 310.723 204.939 311.465 204.939 312.436V317H203.371V312.912C203.371 311.54 202.802 310.854 201.663 310.854C201.122 310.854 200.65 311.036 200.249 311.4C199.848 311.755 199.647 312.277 199.647 312.968ZM213.364 317H211.936V316.006C211.32 316.743 210.494 317.112 209.458 317.112C208.683 317.112 208.039 316.893 207.526 316.454C207.022 316.015 206.77 315.432 206.77 314.704C206.77 313.967 207.041 313.416 207.582 313.052C208.123 312.688 208.856 312.506 209.78 312.506H211.81V312.226C211.81 311.237 211.259 310.742 210.158 310.742C209.467 310.742 208.749 310.994 208.002 311.498L207.302 310.518C208.207 309.799 209.234 309.44 210.382 309.44C211.259 309.44 211.973 309.664 212.524 310.112C213.084 310.551 213.364 311.246 213.364 312.198V317ZM211.796 314.228V313.598H210.032C208.903 313.598 208.338 313.953 208.338 314.662C208.338 315.026 208.478 315.306 208.758 315.502C209.038 315.689 209.425 315.782 209.92 315.782C210.424 315.782 210.863 315.642 211.236 315.362C211.609 315.082 211.796 314.704 211.796 314.228ZM217.639 317L214.643 309.552H216.267L218.535 315.18L220.803 309.552H222.427L219.431 317H217.639ZM225.444 317H223.876V309.552H225.444V317ZM223.974 308.068C223.778 307.872 223.68 307.639 223.68 307.368C223.68 307.097 223.778 306.864 223.974 306.668C224.17 306.472 224.404 306.374 224.674 306.374C224.945 306.374 225.178 306.472 225.374 306.668C225.57 306.864 225.668 307.097 225.668 307.368C225.668 307.639 225.57 307.872 225.374 308.068C225.178 308.264 224.945 308.362 224.674 308.362C224.404 308.362 224.17 308.264 223.974 308.068ZM229.654 315.04C230.102 315.488 230.667 315.712 231.348 315.712C232.03 315.712 232.59 315.488 233.028 315.04C233.476 314.583 233.7 313.995 233.7 313.276C233.7 312.557 233.476 311.974 233.028 311.526C232.59 311.069 232.03 310.84 231.348 310.84C230.667 310.84 230.102 311.069 229.654 311.526C229.216 311.974 228.996 312.557 228.996 313.276C228.996 313.995 229.216 314.583 229.654 315.04ZM234.148 316.006C233.402 316.743 232.468 317.112 231.348 317.112C230.228 317.112 229.295 316.743 228.548 316.006C227.802 315.259 227.428 314.349 227.428 313.276C227.428 312.203 227.802 311.297 228.548 310.56C229.295 309.813 230.228 309.44 231.348 309.44C232.468 309.44 233.402 309.813 234.148 310.56C234.895 311.297 235.268 312.203 235.268 313.276C235.268 314.349 234.895 315.259 234.148 316.006ZM241.157 311.022C240.382 311.022 239.799 311.274 239.407 311.778C239.015 312.282 238.819 312.959 238.819 313.808V317H237.251V309.552H238.819V311.05C239.071 310.583 239.412 310.201 239.841 309.902C240.28 309.603 240.742 309.449 241.227 309.44L241.241 311.022C241.213 311.022 241.185 311.022 241.157 311.022ZM250.095 317.112C249.153 317.112 248.331 316.757 247.631 316.048C246.931 315.339 246.581 314.405 246.581 313.248C246.581 312.091 246.941 311.167 247.659 310.476C248.378 309.785 249.232 309.44 250.221 309.44C251.22 309.44 252.023 309.86 252.629 310.7V306.612H254.197V317H252.629V315.88C252.051 316.701 251.206 317.112 250.095 317.112ZM248.149 313.318C248.149 314.027 248.378 314.606 248.835 315.054C249.293 315.502 249.829 315.726 250.445 315.726C251.061 315.726 251.584 315.502 252.013 315.054C252.443 314.597 252.657 314.013 252.657 313.304C252.657 312.595 252.443 312.002 252.013 311.526C251.584 311.05 251.057 310.812 250.431 310.812C249.806 310.812 249.269 311.05 248.821 311.526C248.373 312.002 248.149 312.599 248.149 313.318ZM261.871 313.584V309.552H263.439V317H261.871V315.642C261.619 316.099 261.269 316.459 260.821 316.72C260.383 316.981 259.907 317.112 259.393 317.112C258.553 317.112 257.872 316.855 257.349 316.342C256.836 315.829 256.579 315.087 256.579 314.116V309.552H258.147V313.64C258.147 315.012 258.717 315.698 259.855 315.698C260.397 315.698 260.868 315.521 261.269 315.166C261.671 314.802 261.871 314.275 261.871 313.584ZM269.82 311.022C269.046 311.022 268.462 311.274 268.07 311.778C267.678 312.282 267.482 312.959 267.482 313.808V317H265.914V309.552H267.482V311.05C267.734 310.583 268.075 310.201 268.504 309.902C268.943 309.603 269.405 309.449 269.89 309.44L269.904 311.022C269.876 311.022 269.848 311.022 269.82 311.022ZM273.247 317H271.679V309.552H273.247V317ZM271.777 308.068C271.581 307.872 271.483 307.639 271.483 307.368C271.483 307.097 271.581 306.864 271.777 306.668C271.973 306.472 272.206 306.374 272.477 306.374C272.747 306.374 272.981 306.472 273.177 306.668C273.373 306.864 273.471 307.097 273.471 307.368C273.471 307.639 273.373 307.872 273.177 308.068C272.981 308.264 272.747 308.362 272.477 308.362C272.206 308.362 271.973 308.264 271.777 308.068ZM277.289 312.968V317H275.721V309.552H277.289V310.91C277.541 310.453 277.886 310.093 278.325 309.832C278.773 309.571 279.253 309.44 279.767 309.44C280.607 309.44 281.283 309.697 281.797 310.21C282.319 310.723 282.581 311.465 282.581 312.436V317H281.013V312.912C281.013 311.54 280.443 310.854 279.305 310.854C278.763 310.854 278.292 311.036 277.891 311.4C277.489 311.755 277.289 312.277 277.289 312.968ZM291.859 309.552V316.048C291.859 317.364 291.5 318.349 290.781 319.002C290.072 319.665 289.157 319.996 288.037 319.996C286.917 319.996 285.905 319.646 284.999 318.946L285.741 317.756C286.469 318.307 287.202 318.582 287.939 318.582C288.686 318.582 289.274 318.391 289.703 318.008C290.142 317.625 290.361 317.014 290.361 316.174V315.222C290.128 315.661 289.792 316.011 289.353 316.272C288.924 316.533 288.439 316.664 287.897 316.664C286.908 316.664 286.096 316.319 285.461 315.628C284.827 314.937 284.509 314.079 284.509 313.052C284.509 312.025 284.827 311.167 285.461 310.476C286.096 309.785 286.903 309.44 287.883 309.44C288.873 309.44 289.675 309.846 290.291 310.658V309.552H291.859ZM286.049 312.996C286.049 313.603 286.236 314.13 286.609 314.578C286.992 315.017 287.501 315.236 288.135 315.236C288.779 315.236 289.297 315.021 289.689 314.592C290.091 314.163 290.291 313.631 290.291 312.996C290.291 312.352 290.091 311.811 289.689 311.372C289.288 310.924 288.77 310.7 288.135 310.7C287.501 310.7 286.992 310.929 286.609 311.386C286.236 311.843 286.049 312.38 286.049 312.996ZM300.305 310.812V314.592C300.305 314.947 300.399 315.231 300.585 315.446C300.772 315.651 301.033 315.754 301.369 315.754C301.705 315.754 302.027 315.591 302.335 315.264L302.979 316.37C302.429 316.865 301.817 317.112 301.145 317.112C300.483 317.112 299.913 316.883 299.437 316.426C298.971 315.959 298.737 315.334 298.737 314.55V310.812H297.799V309.552H298.737V307.214H300.305V309.552H302.265V310.812H300.305ZM305.993 312.968V317H304.425V306.626H305.993V310.91C306.217 310.453 306.553 310.093 307.001 309.832C307.458 309.571 307.948 309.44 308.471 309.44C309.311 309.44 309.987 309.697 310.501 310.21C311.023 310.723 311.285 311.465 311.285 312.436V317H309.717V312.912C309.717 311.54 309.147 310.854 308.009 310.854C307.467 310.854 306.996 311.036 306.595 311.4C306.193 311.755 305.993 312.277 305.993 312.968ZM320.606 313.962H314.768C314.805 314.503 315.052 314.942 315.51 315.278C315.967 315.605 316.49 315.768 317.078 315.768C318.011 315.768 318.72 315.474 319.206 314.886L320.102 315.866C319.299 316.697 318.254 317.112 316.966 317.112C315.92 317.112 315.029 316.767 314.292 316.076C313.564 315.376 313.2 314.443 313.2 313.276C313.2 312.1 313.573 311.167 314.32 310.476C315.066 309.785 315.944 309.44 316.952 309.44C317.969 309.44 318.832 309.748 319.542 310.364C320.251 310.971 320.606 311.811 320.606 312.884V313.962ZM314.768 312.73H319.038C319.038 312.105 318.842 311.624 318.45 311.288C318.058 310.952 317.572 310.784 316.994 310.784C316.424 310.784 315.911 310.961 315.454 311.316C314.996 311.661 314.768 312.133 314.768 312.73ZM124.475 328.936V329.552H126.435V330.812H124.475V337H122.907V330.812H121.969V329.552H122.907V328.978C122.907 328.194 123.141 327.573 123.607 327.116C124.083 326.649 124.653 326.416 125.315 326.416C125.987 326.416 126.599 326.663 127.149 327.158L126.505 328.264C126.197 327.937 125.875 327.774 125.539 327.774C125.203 327.774 124.942 327.881 124.755 328.096C124.569 328.301 124.475 328.581 124.475 328.936ZM129.712 337H128.144V329.552H129.712V337ZM128.242 328.068C128.046 327.872 127.948 327.639 127.948 327.368C127.948 327.097 128.046 326.864 128.242 326.668C128.438 326.472 128.671 326.374 128.942 326.374C129.212 326.374 129.446 326.472 129.642 326.668C129.838 326.864 129.936 327.097 129.936 327.368C129.936 327.639 129.838 327.872 129.642 328.068C129.446 328.264 129.212 328.362 128.942 328.362C128.671 328.362 128.438 328.264 128.242 328.068ZM136.091 331.022C135.317 331.022 134.733 331.274 134.341 331.778C133.949 332.282 133.753 332.959 133.753 333.808V337H132.185V329.552H133.753V331.05C134.005 330.583 134.346 330.201 134.775 329.902C135.214 329.603 135.676 329.449 136.161 329.44L136.175 331.022C136.147 331.022 136.119 331.022 136.091 331.022ZM143.256 334.774C143.256 335.483 142.999 336.053 142.486 336.482C141.972 336.902 141.314 337.112 140.512 337.112C139.97 337.112 139.406 337.014 138.818 336.818C138.239 336.622 137.726 336.347 137.278 335.992L138.034 334.774C138.902 335.427 139.742 335.754 140.554 335.754C140.908 335.754 141.188 335.675 141.394 335.516C141.599 335.348 141.702 335.138 141.702 334.886C141.702 334.513 141.207 334.177 140.218 333.878C140.143 333.85 140.087 333.831 140.05 333.822C138.5 333.402 137.726 332.702 137.726 331.722C137.726 331.031 137.992 330.481 138.524 330.07C139.065 329.65 139.765 329.44 140.624 329.44C141.482 329.44 142.294 329.692 143.06 330.196L142.472 331.358C141.865 330.957 141.207 330.756 140.498 330.756C140.124 330.756 139.821 330.826 139.588 330.966C139.354 331.097 139.238 331.297 139.238 331.568C139.238 331.811 139.359 331.988 139.602 332.1C139.77 332.184 140.003 332.263 140.302 332.338C140.61 332.413 140.88 332.487 141.114 332.562C141.347 332.637 141.571 332.721 141.786 332.814C142.01 332.907 142.248 333.038 142.5 333.206C143.004 333.542 143.256 334.065 143.256 334.774ZM147.164 330.812V334.592C147.164 334.947 147.257 335.231 147.444 335.446C147.631 335.651 147.892 335.754 148.228 335.754C148.564 335.754 148.886 335.591 149.194 335.264L149.838 336.37C149.287 336.865 148.676 337.112 148.004 337.112C147.341 337.112 146.772 336.883 146.296 336.426C145.829 335.959 145.596 335.334 145.596 334.55V330.812H144.658V329.552H145.596V327.214H147.164V329.552H149.124V330.812H147.164ZM158.363 337.112C157.43 337.112 156.609 336.753 155.899 336.034C155.199 335.315 154.849 334.382 154.849 333.234C154.849 332.086 155.204 331.167 155.913 330.476C156.623 329.785 157.477 329.44 158.475 329.44C159.474 329.44 160.281 329.911 160.897 330.854V329.552H162.465V339.716H160.897V335.88C160.151 336.701 159.306 337.112 158.363 337.112ZM156.417 333.304C156.417 334.013 156.646 334.592 157.103 335.04C157.561 335.488 158.097 335.712 158.713 335.712C159.329 335.712 159.852 335.488 160.281 335.04C160.711 334.583 160.925 333.999 160.925 333.29C160.925 332.581 160.711 331.993 160.281 331.526C159.852 331.05 159.325 330.812 158.699 330.812C158.074 330.812 157.537 331.05 157.089 331.526C156.641 331.993 156.417 332.585 156.417 333.304ZM170.139 333.584V329.552H171.707V337H170.139V335.642C169.887 336.099 169.537 336.459 169.089 336.72C168.651 336.981 168.175 337.112 167.661 337.112C166.821 337.112 166.14 336.855 165.617 336.342C165.104 335.829 164.847 335.087 164.847 334.116V329.552H166.415V333.64C166.415 335.012 166.985 335.698 168.123 335.698C168.665 335.698 169.136 335.521 169.537 335.166C169.939 334.802 170.139 334.275 170.139 333.584ZM180.216 337H178.788V336.006C178.172 336.743 177.346 337.112 176.31 337.112C175.536 337.112 174.892 336.893 174.378 336.454C173.874 336.015 173.622 335.432 173.622 334.704C173.622 333.967 173.893 333.416 174.434 333.052C174.976 332.688 175.708 332.506 176.632 332.506H178.662V332.226C178.662 331.237 178.112 330.742 177.01 330.742C176.32 330.742 175.601 330.994 174.854 331.498L174.154 330.518C175.06 329.799 176.086 329.44 177.234 329.44C178.112 329.44 178.826 329.664 179.376 330.112C179.936 330.551 180.216 331.246 180.216 332.198V337ZM178.648 334.228V333.598H176.884C175.755 333.598 175.19 333.953 175.19 334.662C175.19 335.026 175.33 335.306 175.61 335.502C175.89 335.689 176.278 335.782 176.772 335.782C177.276 335.782 177.715 335.642 178.088 335.362C178.462 335.082 178.648 334.704 178.648 334.228ZM186.505 331.022C185.73 331.022 185.147 331.274 184.755 331.778C184.363 332.282 184.167 332.959 184.167 333.808V337H182.599V329.552H184.167V331.05C184.419 330.583 184.76 330.201 185.189 329.902C185.628 329.603 186.09 329.449 186.575 329.44L186.589 331.022C186.561 331.022 186.533 331.022 186.505 331.022ZM190.295 330.812V334.592C190.295 334.947 190.389 335.231 190.575 335.446C190.762 335.651 191.023 335.754 191.359 335.754C191.695 335.754 192.017 335.591 192.325 335.264L192.969 336.37C192.419 336.865 191.807 337.112 191.135 337.112C190.473 337.112 189.903 336.883 189.427 336.426C188.961 335.959 188.727 335.334 188.727 334.55V330.812H187.789V329.552H188.727V327.214H190.295V329.552H192.255V330.812H190.295ZM201.345 333.962H195.507C195.544 334.503 195.792 334.942 196.249 335.278C196.706 335.605 197.229 335.768 197.817 335.768C198.75 335.768 199.46 335.474 199.945 334.886L200.841 335.866C200.038 336.697 198.993 337.112 197.705 337.112C196.66 337.112 195.768 336.767 195.031 336.076C194.303 335.376 193.939 334.443 193.939 333.276C193.939 332.1 194.312 331.167 195.059 330.476C195.806 329.785 196.683 329.44 197.691 329.44C198.708 329.44 199.572 329.748 200.281 330.364C200.99 330.971 201.345 331.811 201.345 332.884V333.962ZM195.507 332.73H199.777C199.777 332.105 199.581 331.624 199.189 331.288C198.797 330.952 198.312 330.784 197.733 330.784C197.164 330.784 196.65 330.961 196.193 331.316C195.736 331.661 195.507 332.133 195.507 332.73ZM207.175 331.022C206.401 331.022 205.817 331.274 205.425 331.778C205.033 332.282 204.837 332.959 204.837 333.808V337H203.269V329.552H204.837V331.05C205.089 330.583 205.43 330.201 205.859 329.902C206.298 329.603 206.76 329.449 207.245 329.44L207.259 331.022C207.231 331.022 207.203 331.022 207.175 331.022ZM214.812 335.04C215.26 335.488 215.824 335.712 216.506 335.712C217.187 335.712 217.747 335.488 218.186 335.04C218.634 334.583 218.858 333.995 218.858 333.276C218.858 332.557 218.634 331.974 218.186 331.526C217.747 331.069 217.187 330.84 216.506 330.84C215.824 330.84 215.26 331.069 214.812 331.526C214.373 331.974 214.154 332.557 214.154 333.276C214.154 333.995 214.373 334.583 214.812 335.04ZM219.306 336.006C218.559 336.743 217.626 337.112 216.506 337.112C215.386 337.112 214.452 336.743 213.706 336.006C212.959 335.259 212.586 334.349 212.586 333.276C212.586 332.203 212.959 331.297 213.706 330.56C214.452 329.813 215.386 329.44 216.506 329.44C217.626 329.44 218.559 329.813 219.306 330.56C220.052 331.297 220.426 332.203 220.426 333.276C220.426 334.349 220.052 335.259 219.306 336.006ZM224.231 328.936V329.552H226.191V330.812H224.231V337H222.663V330.812H221.725V329.552H222.663V328.978C222.663 328.194 222.896 327.573 223.363 327.116C223.839 326.649 224.408 326.416 225.071 326.416C225.743 326.416 226.354 326.663 226.905 327.158L226.261 328.264C225.953 327.937 225.631 327.774 225.295 327.774C224.959 327.774 224.698 327.881 224.511 328.096C224.324 328.301 224.231 328.581 224.231 328.936ZM233.873 330.812V334.592C233.873 334.947 233.967 335.231 234.153 335.446C234.34 335.651 234.601 335.754 234.937 335.754C235.273 335.754 235.595 335.591 235.903 335.264L236.547 336.37C235.997 336.865 235.385 337.112 234.713 337.112C234.051 337.112 233.481 336.883 233.005 336.426C232.539 335.959 232.305 335.334 232.305 334.55V330.812H231.367V329.552H232.305V327.214H233.873V329.552H235.833V330.812H233.873ZM239.561 332.968V337H237.993V326.626H239.561V330.91C239.785 330.453 240.121 330.093 240.569 329.832C241.026 329.571 241.516 329.44 242.039 329.44C242.879 329.44 243.555 329.697 244.069 330.21C244.591 330.723 244.853 331.465 244.853 332.436V337H243.285V332.912C243.285 331.54 242.715 330.854 241.577 330.854C241.035 330.854 240.564 331.036 240.163 331.4C239.761 331.755 239.561 332.277 239.561 332.968ZM254.174 333.962H248.336C248.373 334.503 248.62 334.942 249.078 335.278C249.535 335.605 250.058 335.768 250.646 335.768C251.579 335.768 252.288 335.474 252.774 334.886L253.67 335.866C252.867 336.697 251.822 337.112 250.534 337.112C249.488 337.112 248.597 336.767 247.86 336.076C247.132 335.376 246.768 334.443 246.768 333.276C246.768 332.1 247.141 331.167 247.888 330.476C248.634 329.785 249.512 329.44 250.52 329.44C251.537 329.44 252.4 329.748 253.11 330.364C253.819 330.971 254.174 331.811 254.174 332.884V333.962ZM248.336 332.73H252.606C252.606 332.105 252.41 331.624 252.018 331.288C251.626 330.952 251.14 330.784 250.562 330.784C249.992 330.784 249.479 330.961 249.022 331.316C248.564 331.661 248.336 332.133 248.336 332.73ZM262.786 332.618C263.448 331.946 263.92 331.419 264.2 331.036C264.48 330.653 264.62 330.266 264.62 329.874C264.62 329.482 264.47 329.151 264.172 328.88C263.873 328.6 263.495 328.46 263.038 328.46C262.235 328.46 261.568 328.871 261.036 329.692L259.706 328.922C260.135 328.278 260.606 327.793 261.12 327.466C261.642 327.139 262.31 326.976 263.122 326.976C263.943 326.976 264.662 327.237 265.278 327.76C265.894 328.273 266.202 328.978 266.202 329.874C266.202 330.378 266.071 330.859 265.81 331.316C265.548 331.773 265.068 332.361 264.368 333.08L262.072 335.418H266.51V337H259.818V335.6L262.786 332.618ZM270.446 329.398C270.063 330.07 269.872 330.952 269.872 332.044C269.872 333.136 270.063 334.018 270.446 334.69C270.838 335.362 271.444 335.698 272.266 335.698C273.087 335.698 273.684 335.367 274.058 334.704C274.44 334.032 274.632 333.145 274.632 332.044C274.632 330.943 274.44 330.061 274.058 329.398C273.684 328.726 273.087 328.39 272.266 328.39C271.444 328.39 270.838 328.726 270.446 329.398ZM269.27 335.74C268.607 334.816 268.276 333.584 268.276 332.044C268.276 330.504 268.607 329.277 269.27 328.362C269.932 327.438 270.931 326.976 272.266 326.976C273.6 326.976 274.599 327.438 275.262 328.362C275.924 329.277 276.256 330.504 276.256 332.044C276.256 333.584 275.924 334.816 275.262 335.74C274.599 336.655 273.6 337.112 272.266 337.112C270.931 337.112 269.932 336.655 269.27 335.74ZM280.354 330.812V334.592C280.354 334.947 280.448 335.231 280.634 335.446C280.821 335.651 281.082 335.754 281.418 335.754C281.754 335.754 282.076 335.591 282.384 335.264L283.028 336.37C282.478 336.865 281.866 337.112 281.194 337.112C280.532 337.112 279.962 336.883 279.486 336.426C279.02 335.959 278.786 335.334 278.786 334.55V330.812H277.848V329.552H278.786V327.214H280.354V329.552H282.314V330.812H280.354ZM286.042 332.968V337H284.474V326.626H286.042V330.91C286.266 330.453 286.602 330.093 287.05 329.832C287.507 329.571 287.997 329.44 288.52 329.44C289.36 329.44 290.037 329.697 290.55 330.21C291.073 330.723 291.334 331.465 291.334 332.436V337H289.766V332.912C289.766 331.54 289.197 330.854 288.058 330.854C287.517 330.854 287.045 331.036 286.644 331.4C286.243 331.755 286.042 332.277 286.042 332.968Z" fill="white"/>
<rect x="141.5" y="366.5" width="131" height="51" rx="4.5" stroke="#FAFAFA"/>
<path d="M182.191 397V387.2H186.979C188.211 387.2 189.135 387.433 189.751 387.9C190.377 388.367 190.689 388.983 190.689 389.748C190.689 390.261 190.563 390.709 190.311 391.092C190.059 391.465 189.714 391.755 189.275 391.96C188.837 392.165 188.333 392.268 187.763 392.268L188.029 391.694C188.645 391.694 189.191 391.797 189.667 392.002C190.143 392.198 190.512 392.492 190.773 392.884C191.044 393.276 191.179 393.757 191.179 394.326C191.179 395.166 190.848 395.824 190.185 396.3C189.523 396.767 188.547 397 187.259 397H182.191ZM184.445 395.292H187.091C187.679 395.292 188.123 395.199 188.421 395.012C188.729 394.816 188.883 394.508 188.883 394.088C188.883 393.677 188.729 393.374 188.421 393.178C188.123 392.973 187.679 392.87 187.091 392.87H184.277V391.218H186.699C187.25 391.218 187.67 391.125 187.959 390.938C188.258 390.742 188.407 390.448 188.407 390.056C188.407 389.673 188.258 389.389 187.959 389.202C187.67 389.006 187.25 388.908 186.699 388.908H184.445V395.292ZM196.12 397.112C195.495 397.112 194.935 396.991 194.44 396.748C193.955 396.505 193.577 396.137 193.306 395.642C193.036 395.138 192.9 394.499 192.9 393.724V389.468H195.084V393.402C195.084 394.027 195.215 394.489 195.476 394.788C195.747 395.077 196.125 395.222 196.61 395.222C196.946 395.222 197.245 395.152 197.506 395.012C197.768 394.863 197.973 394.639 198.122 394.34C198.272 394.032 198.346 393.649 198.346 393.192V389.468H200.53V397H198.458V394.928L198.836 395.53C198.584 396.053 198.211 396.449 197.716 396.72C197.231 396.981 196.699 397.112 196.12 397.112ZM205.834 397.112C204.947 397.112 204.256 396.888 203.762 396.44C203.267 395.983 203.02 395.306 203.02 394.41V387.802H205.204V394.382C205.204 394.699 205.288 394.947 205.456 395.124C205.624 395.292 205.852 395.376 206.142 395.376C206.487 395.376 206.781 395.283 207.024 395.096L207.612 396.636C207.388 396.795 207.117 396.916 206.8 397C206.492 397.075 206.17 397.112 205.834 397.112ZM201.858 391.316V389.636H207.08V391.316H201.858ZM211.954 397.112C211.067 397.112 210.376 396.888 209.882 396.44C209.387 395.983 209.14 395.306 209.14 394.41V387.802H211.324V394.382C211.324 394.699 211.408 394.947 211.576 395.124C211.744 395.292 211.972 395.376 212.262 395.376C212.607 395.376 212.901 395.283 213.144 395.096L213.732 396.636C213.508 396.795 213.237 396.916 212.92 397C212.612 397.075 212.29 397.112 211.954 397.112ZM207.978 391.316V389.636H213.2V391.316H207.978ZM218.509 397.112C217.707 397.112 216.993 396.944 216.367 396.608C215.751 396.272 215.261 395.815 214.897 395.236C214.543 394.648 214.365 393.981 214.365 393.234C214.365 392.478 214.543 391.811 214.897 391.232C215.261 390.644 215.751 390.187 216.367 389.86C216.993 389.524 217.707 389.356 218.509 389.356C219.303 389.356 220.012 389.524 220.637 389.86C221.263 390.187 221.753 390.639 222.107 391.218C222.462 391.797 222.639 392.469 222.639 393.234C222.639 393.981 222.462 394.648 222.107 395.236C221.753 395.815 221.263 396.272 220.637 396.608C220.012 396.944 219.303 397.112 218.509 397.112ZM218.509 395.32C218.873 395.32 219.2 395.236 219.489 395.068C219.779 394.9 220.007 394.662 220.175 394.354C220.343 394.037 220.427 393.663 220.427 393.234C220.427 392.795 220.343 392.422 220.175 392.114C220.007 391.806 219.779 391.568 219.489 391.4C219.2 391.232 218.873 391.148 218.509 391.148C218.145 391.148 217.819 391.232 217.529 391.4C217.24 391.568 217.007 391.806 216.829 392.114C216.661 392.422 216.577 392.795 216.577 393.234C216.577 393.663 216.661 394.037 216.829 394.354C217.007 394.662 217.24 394.9 217.529 395.068C217.819 395.236 218.145 395.32 218.509 395.32ZM228.877 389.356C229.474 389.356 230.006 389.477 230.473 389.72C230.949 389.953 231.322 390.317 231.593 390.812C231.864 391.297 231.999 391.923 231.999 392.688V397H229.815V393.024C229.815 392.417 229.68 391.969 229.409 391.68C229.148 391.391 228.774 391.246 228.289 391.246C227.944 391.246 227.631 391.321 227.351 391.47C227.08 391.61 226.866 391.829 226.707 392.128C226.558 392.427 226.483 392.809 226.483 393.276V397H224.299V389.468H226.385V391.554L225.993 390.924C226.264 390.42 226.651 390.033 227.155 389.762C227.659 389.491 228.233 389.356 228.877 389.356Z" fill="#FAFAFA"/>
</g>
<defs>
<clipPath id="clip0_232_587">
<rect width="272" height="328" fill="white" transform="translate(71 90)"/>
</clipPath>
</defs>
</svg>
