<svg width="414" height="1444" viewBox="0 0 414 1444" fill="none" xmlns="http://www.w3.org/2000/svg">
<rect width="414" height="1444" fill="#FAFAFA"/>
<g clip-path="url(#clip0_232_559)">
<path d="M187.411 159H175.171V131.04H186.051C187.945 131.04 189.571 131.267 190.931 131.72C192.318 132.173 193.358 132.787 194.051 133.56C195.305 135 195.931 136.627 195.931 138.44C195.931 140.627 195.225 142.253 193.811 143.32C193.331 143.693 192.998 143.933 192.811 144.04C192.625 144.12 192.291 144.267 191.811 144.48C193.545 144.853 194.918 145.64 195.931 146.84C196.971 148.013 197.491 149.48 197.491 151.24C197.491 153.187 196.825 154.907 195.491 156.4C193.945 158.133 191.251 159 187.411 159ZM181.411 142.36H184.371C186.105 142.36 187.385 142.173 188.211 141.8C189.065 141.427 189.491 140.627 189.491 139.4C189.491 138.147 189.105 137.32 188.331 136.92C187.558 136.52 186.251 136.32 184.411 136.32H181.411V142.36ZM181.411 153.72H185.691C187.478 153.72 188.811 153.507 189.691 153.08C190.598 152.627 191.051 151.76 191.051 150.48C191.051 149.173 190.571 148.32 189.611 147.92C188.678 147.493 187.171 147.28 185.091 147.28H181.411V153.72ZM208.349 159H202.349V137.48H208.349V159ZM202.829 134.76C202.163 134.067 201.829 133.227 201.829 132.24C201.829 131.253 202.163 130.427 202.829 129.76C203.523 129.067 204.363 128.72 205.349 128.72C206.336 128.72 207.163 129.067 207.829 129.76C208.523 130.427 208.869 131.253 208.869 132.24C208.869 133.227 208.523 134.067 207.829 134.76C207.163 135.427 206.336 135.76 205.349 135.76C204.363 135.76 203.523 135.427 202.829 134.76ZM229.309 147.8C229.309 146.067 228.829 144.707 227.869 143.72C226.909 142.733 225.722 142.24 224.309 142.24C222.896 142.24 221.669 142.733 220.629 143.72C219.616 144.707 219.109 146.053 219.109 147.76C219.109 149.467 219.602 150.853 220.589 151.92C221.602 152.96 222.829 153.48 224.269 153.48C225.709 153.48 226.909 152.96 227.869 151.92C228.829 150.88 229.309 149.507 229.309 147.8ZM230.149 155.36C228.256 157.467 225.896 158.52 223.069 158.52C220.269 158.52 217.896 157.573 215.949 155.68C214.029 153.76 213.069 151.213 213.069 148.04C213.069 144.84 214.056 142.227 216.029 140.2C218.029 138.147 220.309 137.12 222.869 137.12C225.429 137.12 227.549 138.173 229.229 140.28V137.44H235.229V156.2C235.229 158.12 234.896 159.827 234.229 161.32C233.562 162.813 232.669 163.987 231.549 164.84C229.336 166.6 226.722 167.48 223.709 167.48C222.109 167.48 220.469 167.213 218.789 166.68C217.136 166.173 215.682 165.44 214.429 164.48L216.749 159.96C218.722 161.453 220.802 162.2 222.989 162.2C225.202 162.2 226.949 161.653 228.229 160.56C229.509 159.467 230.149 157.733 230.149 155.36ZM106.942 203.48C110.009 203.48 112.516 202.267 114.462 199.84L118.463 203.96C115.289 207.533 111.542 209.32 107.222 209.32C102.929 209.32 99.3825 207.96 96.5825 205.24C93.8092 202.52 92.4225 199.093 92.4225 194.96C92.4225 190.8 93.8358 187.333 96.6625 184.56C99.5158 181.787 102.996 180.4 107.102 180.4C111.689 180.4 115.529 182.147 118.623 185.64L114.743 190.04C112.769 187.587 110.316 186.36 107.382 186.36C105.036 186.36 103.022 187.133 101.342 188.68C99.6892 190.2 98.8625 192.267 98.8625 194.88C98.8625 197.467 99.6492 199.547 101.222 201.12C102.796 202.693 104.702 203.48 106.942 203.48ZM126.94 198.24C126.94 200 127.433 201.44 128.42 202.56C129.433 203.653 130.713 204.2 132.26 204.2C133.833 204.2 135.113 203.653 136.1 202.56C137.113 201.44 137.62 200 137.62 198.24C137.62 196.48 137.113 195.04 136.1 193.92C135.113 192.8 133.833 192.24 132.26 192.24C130.713 192.24 129.433 192.8 128.42 193.92C127.433 195.04 126.94 196.48 126.94 198.24ZM143.66 198.24C143.66 201.36 142.58 203.987 140.42 206.12C138.26 208.253 135.54 209.32 132.26 209.32C129.007 209.32 126.3 208.253 124.14 206.12C121.98 203.987 120.9 201.36 120.9 198.24C120.9 195.12 121.98 192.493 124.14 190.36C126.3 188.2 129.007 187.12 132.26 187.12C135.54 187.12 138.26 188.2 140.42 190.36C142.58 192.493 143.66 195.12 143.66 198.24ZM168.077 197.4V209H162.037V197.24C162.037 195.533 161.77 194.28 161.237 193.48C160.73 192.68 159.89 192.28 158.717 192.28C157.57 192.28 156.543 192.72 155.637 193.6C154.757 194.453 154.317 195.72 154.317 197.4V209H148.317V187.48H154.317V189.92C155.97 188.053 157.863 187.12 159.997 187.12C161.357 187.12 162.583 187.52 163.677 188.32C164.797 189.12 165.637 190.093 166.197 191.24C167.023 189.933 168.13 188.92 169.517 188.2C170.93 187.48 172.343 187.12 173.757 187.12C176.29 187.12 178.33 187.88 179.877 189.4C181.423 190.893 182.197 193.067 182.197 195.92V209H176.157V197.24C176.157 193.933 174.943 192.28 172.517 192.28C171.317 192.28 170.277 192.72 169.397 193.6C168.517 194.453 168.077 195.72 168.077 197.4ZM200.372 187.12C202.879 187.12 205.106 188.173 207.052 190.28C209.026 192.36 210.012 194.987 210.012 198.16C210.012 201.333 209.026 203.987 207.052 206.12C205.106 208.253 202.812 209.32 200.172 209.32C197.559 209.32 195.452 208.267 193.852 206.16V216.76H187.852V187.48H193.852V189.88C195.692 188.04 197.866 187.12 200.372 187.12ZM193.772 198.28C193.772 200.013 194.252 201.44 195.212 202.56C196.199 203.653 197.386 204.2 198.772 204.2C200.159 204.2 201.372 203.653 202.412 202.56C203.452 201.44 203.972 200.013 203.972 198.28C203.972 196.547 203.466 195.093 202.452 193.92C201.439 192.747 200.226 192.16 198.812 192.16C197.399 192.16 196.199 192.747 195.212 193.92C194.252 195.067 193.772 196.52 193.772 198.28ZM232.973 209H227.333V206.4C225.786 208.347 223.866 209.32 221.573 209.32C219.306 209.32 217.4 208.667 215.853 207.36C214.306 206.027 213.533 204.267 213.533 202.08C213.533 199.867 214.333 198.213 215.933 197.12C217.533 196.027 219.72 195.48 222.493 195.48H226.973V195.36C226.973 193.067 225.76 191.92 223.333 191.92C222.293 191.92 221.186 192.133 220.013 192.56C218.866 192.96 217.893 193.467 217.093 194.08L214.413 190.2C217.24 188.147 220.466 187.12 224.093 187.12C226.706 187.12 228.84 187.773 230.493 189.08C232.146 190.387 232.973 192.453 232.973 195.28V209ZM226.933 200.8V199.76H223.173C220.773 199.76 219.573 200.507 219.573 202C219.573 202.773 219.853 203.373 220.413 203.8C221 204.2 221.826 204.4 222.893 204.4C223.96 204.4 224.893 204.08 225.693 203.44C226.52 202.773 226.933 201.893 226.933 200.8ZM244.643 197V209H238.643V187.48H244.643V189.88C246.456 188.04 248.496 187.12 250.763 187.12C253.03 187.12 254.923 187.92 256.443 189.52C257.99 191.12 258.763 193.253 258.763 195.92V209H252.763V196.84C252.763 193.533 251.55 191.88 249.123 191.88C247.923 191.88 246.87 192.32 245.963 193.2C245.083 194.053 244.643 195.32 244.643 197ZM270.39 209H264.39V187.48H270.39V209ZM264.87 184.76C264.203 184.067 263.87 183.227 263.87 182.24C263.87 181.253 264.203 180.427 264.87 179.76C265.563 179.067 266.403 178.72 267.39 178.72C268.377 178.72 269.203 179.067 269.87 179.76C270.563 180.427 270.91 181.253 270.91 182.24C270.91 183.227 270.563 184.067 269.87 184.76C269.203 185.427 268.377 185.76 267.39 185.76C266.403 185.76 265.563 185.427 264.87 184.76ZM294.91 205.88C292.483 208.173 289.63 209.32 286.35 209.32C283.096 209.32 280.403 208.32 278.27 206.32C276.136 204.293 275.07 201.587 275.07 198.2C275.07 194.813 276.15 192.12 278.31 190.12C280.496 188.12 283.07 187.12 286.03 187.12C288.99 187.12 291.496 188.013 293.55 189.8C295.63 191.587 296.67 194.04 296.67 197.16V200.36H280.99C281.176 201.533 281.79 202.493 282.83 203.24C283.87 203.987 285.043 204.36 286.35 204.36C288.456 204.36 290.19 203.653 291.55 202.24L294.91 205.88ZM290.59 196.08C290.456 194.8 289.976 193.813 289.15 193.12C288.323 192.427 287.31 192.08 286.11 192.08C284.936 192.08 283.856 192.44 282.87 193.16C281.883 193.88 281.31 194.853 281.15 196.08H290.59ZM317.396 202.32C317.396 204.427 316.61 206.12 315.036 207.4C313.49 208.68 311.516 209.32 309.116 209.32C307.516 209.32 305.85 209.04 304.116 208.48C302.383 207.893 300.823 207.04 299.436 205.92L302.076 202.16C304.316 203.893 306.703 204.76 309.236 204.76C310.01 204.76 310.623 204.613 311.076 204.32C311.53 204 311.756 203.587 311.756 203.08C311.756 202.573 311.436 202.107 310.796 201.68C310.183 201.253 309.276 200.853 308.076 200.48C306.903 200.107 305.996 199.787 305.356 199.52C304.743 199.253 304.036 198.867 303.236 198.36C301.61 197.347 300.796 195.853 300.796 193.88C300.796 191.88 301.596 190.253 303.196 189C304.796 187.747 306.863 187.12 309.396 187.12C311.93 187.12 314.463 187.973 316.996 189.68L314.756 193.68C312.89 192.4 311.023 191.76 309.156 191.76C307.316 191.76 306.396 192.267 306.396 193.28C306.396 193.84 306.69 194.28 307.276 194.6C307.863 194.92 308.836 195.293 310.196 195.72C311.556 196.147 312.516 196.48 313.076 196.72C313.663 196.933 314.356 197.28 315.156 197.76C316.65 198.667 317.396 200.187 317.396 202.32ZM138.715 259L136.115 252.96H124.395L121.795 259H115.155L127.235 231.04H133.275L145.355 259H138.715ZM130.275 239.36L126.755 247.48H133.755L130.275 239.36ZM159.519 242.76C157.733 242.76 156.399 243.4 155.519 244.68C154.639 245.933 154.199 247.6 154.199 249.68V259H148.199V237.48H154.199V240.32C154.973 239.44 155.933 238.693 157.079 238.08C158.253 237.467 159.439 237.147 160.639 237.12L160.679 242.76H159.519ZM183.485 255.88C181.058 258.173 178.205 259.32 174.925 259.32C171.671 259.32 168.978 258.32 166.845 256.32C164.711 254.293 163.645 251.587 163.645 248.2C163.645 244.813 164.725 242.12 166.885 240.12C169.071 238.12 171.645 237.12 174.605 237.12C177.565 237.12 180.071 238.013 182.125 239.8C184.205 241.587 185.245 244.04 185.245 247.16V250.36H169.565C169.751 251.533 170.365 252.493 171.405 253.24C172.445 253.987 173.618 254.36 174.925 254.36C177.031 254.36 178.765 253.653 180.125 252.24L183.485 255.88ZM179.165 246.08C179.031 244.8 178.551 243.813 177.725 243.12C176.898 242.427 175.885 242.08 174.685 242.08C173.511 242.08 172.431 242.44 171.445 243.16C170.458 243.88 169.885 244.853 169.725 246.08H179.165ZM218.478 231.04H224.718V259H218.478V248H207.358V259H201.118V231.04H207.358V242.72H218.478V231.04ZM249.827 255.88C247.4 258.173 244.547 259.32 241.267 259.32C238.014 259.32 235.32 258.32 233.187 256.32C231.054 254.293 229.987 251.587 229.987 248.2C229.987 244.813 231.067 242.12 233.227 240.12C235.414 238.12 237.987 237.12 240.947 237.12C243.907 237.12 246.414 238.013 248.467 239.8C250.547 241.587 251.587 244.04 251.587 247.16V250.36H235.907C236.094 251.533 236.707 252.493 237.747 253.24C238.787 253.987 239.96 254.36 241.267 254.36C243.374 254.36 245.107 253.653 246.467 252.24L249.827 255.88ZM245.507 246.08C245.374 244.8 244.894 243.813 244.067 243.12C243.24 242.427 242.227 242.08 241.027 242.08C239.854 242.08 238.774 242.44 237.787 243.16C236.8 243.88 236.227 244.853 236.067 246.08H245.507ZM267.433 242.76C265.647 242.76 264.313 243.4 263.433 244.68C262.553 245.933 262.113 247.6 262.113 249.68V259H256.113V237.48H262.113V240.32C262.887 239.44 263.847 238.693 264.993 238.08C266.167 237.467 267.353 237.147 268.553 237.12L268.593 242.76H267.433ZM291.399 255.88C288.972 258.173 286.119 259.32 282.839 259.32C279.585 259.32 276.892 258.32 274.759 256.32C272.625 254.293 271.559 251.587 271.559 248.2C271.559 244.813 272.639 242.12 274.799 240.12C276.985 238.12 279.559 237.12 282.519 237.12C285.479 237.12 287.985 238.013 290.039 239.8C292.119 241.587 293.159 244.04 293.159 247.16V250.36H277.479C277.665 251.533 278.279 252.493 279.319 253.24C280.359 253.987 281.532 254.36 282.839 254.36C284.945 254.36 286.679 253.653 288.039 252.24L291.399 255.88ZM287.079 246.08C286.945 244.8 286.465 243.813 285.639 243.12C284.812 242.427 283.799 242.08 282.599 242.08C281.425 242.08 280.345 242.44 279.359 243.16C278.372 243.88 277.799 244.853 277.639 246.08H287.079Z" fill="#252B42"/>
<path d="M70.5758 305.214C72.0598 305.214 73.1425 305.499 73.8238 306.068C74.5052 306.637 74.8458 307.515 74.8458 308.7C74.8458 309.885 74.4958 310.753 73.7958 311.304C73.1052 311.855 72.0412 312.13 70.6038 312.13H68.8678V315H67.2158V305.214H70.5758ZM70.7858 310.632C71.7005 310.632 72.3212 310.459 72.6478 310.114C72.9838 309.759 73.1518 309.246 73.1518 308.574C73.1518 307.893 72.9418 307.412 72.5218 307.132C72.1018 306.852 71.4438 306.712 70.5478 306.712H68.8678V310.632H70.7858ZM80.6681 309.022C79.8935 309.022 79.3101 309.274 78.9181 309.778C78.5261 310.282 78.3301 310.959 78.3301 311.808V315H76.7621V307.552H78.3301V309.05C78.5821 308.583 78.9228 308.201 79.3521 307.902C79.7908 307.603 80.2528 307.449 80.7381 307.44L80.7521 309.022C80.7241 309.022 80.6961 309.022 80.6681 309.022ZM84.1259 313.04C84.5739 313.488 85.1385 313.712 85.8199 313.712C86.5012 313.712 87.0612 313.488 87.4999 313.04C87.9479 312.583 88.1719 311.995 88.1719 311.276C88.1719 310.557 87.9479 309.974 87.4999 309.526C87.0612 309.069 86.5012 308.84 85.8199 308.84C85.1385 308.84 84.5739 309.069 84.1259 309.526C83.6872 309.974 83.4679 310.557 83.4679 311.276C83.4679 311.995 83.6872 312.583 84.1259 313.04ZM88.6199 314.006C87.8732 314.743 86.9399 315.112 85.8199 315.112C84.6999 315.112 83.7665 314.743 83.0199 314.006C82.2732 313.259 81.8999 312.349 81.8999 311.276C81.8999 310.203 82.2732 309.297 83.0199 308.56C83.7665 307.813 84.6999 307.44 85.8199 307.44C86.9399 307.44 87.8732 307.813 88.6199 308.56C89.3665 309.297 89.7399 310.203 89.7399 311.276C89.7399 312.349 89.3665 313.259 88.6199 314.006ZM95.7127 307.44C96.7113 307.44 97.5653 307.785 98.2747 308.476C98.984 309.167 99.3387 310.086 99.3387 311.234C99.3387 312.382 98.984 313.315 98.2747 314.034C97.5747 314.753 96.7533 315.112 95.8107 315.112C94.8773 315.112 94.0373 314.701 93.2907 313.88V315H91.7227V304.612H93.2907V308.854C93.9067 307.911 94.714 307.44 95.7127 307.44ZM93.2627 311.29C93.2627 311.999 93.4773 312.583 93.9067 313.04C94.336 313.488 94.8587 313.712 95.4747 313.712C96.0907 313.712 96.6273 313.488 97.0847 313.04C97.542 312.592 97.7707 312.013 97.7707 311.304C97.7707 310.585 97.5467 309.993 97.0987 309.526C96.6507 309.05 96.114 308.812 95.4887 308.812C94.8633 308.812 94.336 309.05 93.9067 309.526C93.4773 309.993 93.2627 310.581 93.2627 311.29ZM102.897 315H101.329V304.612H102.897V315ZM112.301 311.962H106.463C106.5 312.503 106.747 312.942 107.205 313.278C107.662 313.605 108.185 313.768 108.773 313.768C109.706 313.768 110.415 313.474 110.901 312.886L111.797 313.866C110.994 314.697 109.949 315.112 108.661 315.112C107.615 315.112 106.724 314.767 105.987 314.076C105.259 313.376 104.895 312.443 104.895 311.276C104.895 310.1 105.268 309.167 106.015 308.476C106.761 307.785 107.639 307.44 108.647 307.44C109.664 307.44 110.527 307.748 111.237 308.364C111.946 308.971 112.301 309.811 112.301 310.884V311.962ZM106.463 310.73H110.733C110.733 310.105 110.537 309.624 110.145 309.288C109.753 308.952 109.267 308.784 108.689 308.784C108.119 308.784 107.606 308.961 107.149 309.316C106.691 309.661 106.463 310.133 106.463 310.73ZM115.793 310.968V315H114.225V307.552H115.793V308.91C116.017 308.453 116.353 308.093 116.801 307.832C117.258 307.571 117.748 307.44 118.271 307.44C119.447 307.44 120.245 307.925 120.665 308.896C121.402 307.925 122.322 307.44 123.423 307.44C124.263 307.44 124.94 307.697 125.453 308.21C125.976 308.723 126.237 309.465 126.237 310.436V315H124.669V310.912C124.669 309.54 124.1 308.854 122.961 308.854C122.429 308.854 121.962 309.027 121.561 309.372C121.169 309.708 120.964 310.203 120.945 310.856V315H119.377V310.912C119.377 310.203 119.251 309.685 118.999 309.358C118.747 309.022 118.35 308.854 117.809 308.854C117.268 308.854 116.796 309.036 116.395 309.4C115.994 309.755 115.793 310.277 115.793 310.968ZM133.922 312.774C133.922 313.483 133.666 314.053 133.152 314.482C132.639 314.902 131.981 315.112 131.178 315.112C130.637 315.112 130.072 315.014 129.484 314.818C128.906 314.622 128.392 314.347 127.944 313.992L128.7 312.774C129.568 313.427 130.408 313.754 131.22 313.754C131.575 313.754 131.855 313.675 132.06 313.516C132.266 313.348 132.368 313.138 132.368 312.886C132.368 312.513 131.874 312.177 130.884 311.878C130.81 311.85 130.754 311.831 130.716 311.822C129.167 311.402 128.392 310.702 128.392 309.722C128.392 309.031 128.658 308.481 129.19 308.07C129.732 307.65 130.432 307.44 131.29 307.44C132.149 307.44 132.961 307.692 133.726 308.196L133.138 309.358C132.532 308.957 131.874 308.756 131.164 308.756C130.791 308.756 130.488 308.826 130.254 308.966C130.021 309.097 129.904 309.297 129.904 309.568C129.904 309.811 130.026 309.988 130.268 310.1C130.436 310.184 130.67 310.263 130.968 310.338C131.276 310.413 131.547 310.487 131.78 310.562C132.014 310.637 132.238 310.721 132.452 310.814C132.676 310.907 132.914 311.038 133.166 311.206C133.67 311.542 133.922 312.065 133.922 312.774ZM141.872 308.812V312.592C141.872 312.947 141.966 313.231 142.152 313.446C142.339 313.651 142.6 313.754 142.936 313.754C143.272 313.754 143.594 313.591 143.902 313.264L144.546 314.37C143.996 314.865 143.384 315.112 142.712 315.112C142.05 315.112 141.48 314.883 141.004 314.426C140.538 313.959 140.304 313.334 140.304 312.55V308.812H139.366V307.552H140.304V305.214H141.872V307.552H143.832V308.812H141.872ZM149.898 309.022C149.123 309.022 148.54 309.274 148.148 309.778C147.756 310.282 147.56 310.959 147.56 311.808V315H145.992V307.552H147.56V309.05C147.812 308.583 148.152 308.201 148.582 307.902C149.02 307.603 149.482 307.449 149.968 307.44L149.982 309.022C149.954 309.022 149.926 309.022 149.898 309.022ZM152.694 317.968C152.013 317.968 151.397 317.721 150.846 317.226L151.56 315.952C151.887 316.26 152.223 316.414 152.568 316.414C152.923 316.414 153.208 316.288 153.422 316.036C153.646 315.784 153.758 315.509 153.758 315.21C153.758 315.079 152.755 312.527 150.748 307.552H152.428L154.654 313.04L156.88 307.552H158.56L154.948 316.4C154.734 316.885 154.426 317.268 154.024 317.548C153.623 317.828 153.18 317.968 152.694 317.968ZM161.563 315H159.995V307.552H161.563V315ZM160.093 306.068C159.897 305.872 159.799 305.639 159.799 305.368C159.799 305.097 159.897 304.864 160.093 304.668C160.289 304.472 160.523 304.374 160.793 304.374C161.064 304.374 161.297 304.472 161.493 304.668C161.689 304.864 161.787 305.097 161.787 305.368C161.787 305.639 161.689 305.872 161.493 306.068C161.297 306.264 161.064 306.362 160.793 306.362C160.523 306.362 160.289 306.264 160.093 306.068ZM165.605 310.968V315H164.037V307.552H165.605V308.91C165.857 308.453 166.202 308.093 166.641 307.832C167.089 307.571 167.57 307.44 168.083 307.44C168.923 307.44 169.6 307.697 170.113 308.21C170.636 308.723 170.897 309.465 170.897 310.436V315H169.329V310.912C169.329 309.54 168.76 308.854 167.621 308.854C167.08 308.854 166.608 309.036 166.207 309.4C165.806 309.755 165.605 310.277 165.605 310.968ZM180.176 307.552V314.048C180.176 315.364 179.817 316.349 179.098 317.002C178.389 317.665 177.474 317.996 176.354 317.996C175.234 317.996 174.221 317.646 173.316 316.946L174.058 315.756C174.786 316.307 175.519 316.582 176.256 316.582C177.003 316.582 177.591 316.391 178.02 316.008C178.459 315.625 178.678 315.014 178.678 314.174V313.222C178.445 313.661 178.109 314.011 177.67 314.272C177.241 314.533 176.755 314.664 176.214 314.664C175.225 314.664 174.413 314.319 173.778 313.628C173.143 312.937 172.826 312.079 172.826 311.052C172.826 310.025 173.143 309.167 173.778 308.476C174.413 307.785 175.22 307.44 176.2 307.44C177.189 307.44 177.992 307.846 178.608 308.658V307.552H180.176ZM174.366 310.996C174.366 311.603 174.553 312.13 174.926 312.578C175.309 313.017 175.817 313.236 176.452 313.236C177.096 313.236 177.614 313.021 178.006 312.592C178.407 312.163 178.608 311.631 178.608 310.996C178.608 310.352 178.407 309.811 178.006 309.372C177.605 308.924 177.087 308.7 176.452 308.7C175.817 308.7 175.309 308.929 174.926 309.386C174.553 309.843 174.366 310.38 174.366 310.996ZM188.622 308.812V312.592C188.622 312.947 188.715 313.231 188.902 313.446C189.089 313.651 189.35 313.754 189.686 313.754C190.022 313.754 190.344 313.591 190.652 313.264L191.296 314.37C190.745 314.865 190.134 315.112 189.462 315.112C188.799 315.112 188.23 314.883 187.754 314.426C187.287 313.959 187.054 313.334 187.054 312.55V308.812H186.116V307.552H187.054V305.214H188.622V307.552H190.582V308.812H188.622ZM194.423 313.04C194.871 313.488 195.435 313.712 196.117 313.712C196.798 313.712 197.358 313.488 197.797 313.04C198.245 312.583 198.469 311.995 198.469 311.276C198.469 310.557 198.245 309.974 197.797 309.526C197.358 309.069 196.798 308.84 196.117 308.84C195.435 308.84 194.871 309.069 194.423 309.526C193.984 309.974 193.765 310.557 193.765 311.276C193.765 311.995 193.984 312.583 194.423 313.04ZM198.917 314.006C198.17 314.743 197.237 315.112 196.117 315.112C194.997 315.112 194.063 314.743 193.317 314.006C192.57 313.259 192.197 312.349 192.197 311.276C192.197 310.203 192.57 309.297 193.317 308.56C194.063 307.813 194.997 307.44 196.117 307.44C197.237 307.44 198.17 307.813 198.917 308.56C199.663 309.297 200.037 310.203 200.037 311.276C200.037 312.349 199.663 313.259 198.917 314.006ZM209.967 309.022C209.193 309.022 208.609 309.274 208.217 309.778C207.825 310.282 207.629 310.959 207.629 311.808V315H206.061V307.552H207.629V309.05C207.881 308.583 208.222 308.201 208.651 307.902C209.09 307.603 209.552 307.449 210.037 307.44L210.051 309.022C210.023 309.022 209.995 309.022 209.967 309.022ZM218.756 311.962H212.918C212.955 312.503 213.202 312.942 213.66 313.278C214.117 313.605 214.64 313.768 215.228 313.768C216.161 313.768 216.87 313.474 217.356 312.886L218.252 313.866C217.449 314.697 216.404 315.112 215.116 315.112C214.07 315.112 213.179 314.767 212.442 314.076C211.714 313.376 211.35 312.443 211.35 311.276C211.35 310.1 211.723 309.167 212.47 308.476C213.216 307.785 214.094 307.44 215.102 307.44C216.119 307.44 216.982 307.748 217.692 308.364C218.401 308.971 218.756 309.811 218.756 310.884V311.962ZM212.918 310.73H217.188C217.188 310.105 216.992 309.624 216.6 309.288C216.208 308.952 215.722 308.784 215.144 308.784C214.574 308.784 214.061 308.961 213.604 309.316C213.146 309.661 212.918 310.133 212.918 310.73ZM225.986 312.774C225.986 313.483 225.729 314.053 225.216 314.482C224.703 314.902 224.045 315.112 223.242 315.112C222.701 315.112 222.136 315.014 221.548 314.818C220.969 314.622 220.456 314.347 220.008 313.992L220.764 312.774C221.632 313.427 222.472 313.754 223.284 313.754C223.639 313.754 223.919 313.675 224.124 313.516C224.329 313.348 224.432 313.138 224.432 312.886C224.432 312.513 223.937 312.177 222.948 311.878C222.873 311.85 222.817 311.831 222.78 311.822C221.231 311.402 220.456 310.702 220.456 309.722C220.456 309.031 220.722 308.481 221.254 308.07C221.795 307.65 222.495 307.44 223.354 307.44C224.213 307.44 225.025 307.692 225.79 308.196L225.202 309.358C224.595 308.957 223.937 308.756 223.228 308.756C222.855 308.756 222.551 308.826 222.318 308.966C222.085 309.097 221.968 309.297 221.968 309.568C221.968 309.811 222.089 309.988 222.332 310.1C222.5 310.184 222.733 310.263 223.032 310.338C223.34 310.413 223.611 310.487 223.844 310.562C224.077 310.637 224.301 310.721 224.516 310.814C224.74 310.907 224.978 311.038 225.23 311.206C225.734 311.542 225.986 312.065 225.986 312.774ZM229.698 313.04C230.146 313.488 230.711 313.712 231.392 313.712C232.073 313.712 232.633 313.488 233.072 313.04C233.52 312.583 233.744 311.995 233.744 311.276C233.744 310.557 233.52 309.974 233.072 309.526C232.633 309.069 232.073 308.84 231.392 308.84C230.711 308.84 230.146 309.069 229.698 309.526C229.259 309.974 229.04 310.557 229.04 311.276C229.04 311.995 229.259 312.583 229.698 313.04ZM234.192 314.006C233.445 314.743 232.512 315.112 231.392 315.112C230.272 315.112 229.339 314.743 228.592 314.006C227.845 313.259 227.472 312.349 227.472 311.276C227.472 310.203 227.845 309.297 228.592 308.56C229.339 307.813 230.272 307.44 231.392 307.44C232.512 307.44 233.445 307.813 234.192 308.56C234.939 309.297 235.312 310.203 235.312 311.276C235.312 312.349 234.939 313.259 234.192 314.006ZM238.863 315H237.295V304.612H238.863V315ZM243.311 315L240.315 307.552H241.939L244.207 313.18L246.475 307.552H248.099L245.103 315H243.311ZM256.478 311.962H250.64C250.678 312.503 250.925 312.942 251.382 313.278C251.84 313.605 252.362 313.768 252.95 313.768C253.884 313.768 254.593 313.474 255.078 312.886L255.974 313.866C255.172 314.697 254.126 315.112 252.838 315.112C251.793 315.112 250.902 314.767 250.164 314.076C249.436 313.376 249.072 312.443 249.072 311.276C249.072 310.1 249.446 309.167 250.192 308.476C250.939 307.785 251.816 307.44 252.824 307.44C253.842 307.44 254.705 307.748 255.414 308.364C256.124 308.971 256.478 309.811 256.478 310.884V311.962ZM250.64 310.73H254.91C254.91 310.105 254.714 309.624 254.322 309.288C253.93 308.952 253.445 308.784 252.866 308.784C252.297 308.784 251.784 308.961 251.326 309.316C250.869 309.661 250.64 310.133 250.64 310.73ZM264.377 308.812V312.592C264.377 312.947 264.47 313.231 264.657 313.446C264.843 313.651 265.105 313.754 265.441 313.754C265.777 313.754 266.099 313.591 266.407 313.264L267.051 314.37C266.5 314.865 265.889 315.112 265.217 315.112C264.554 315.112 263.985 314.883 263.509 314.426C263.042 313.959 262.809 313.334 262.809 312.55V308.812H261.871V307.552H262.809V305.214H264.377V307.552H266.337V308.812H264.377ZM270.064 310.968V315H268.496V304.626H270.064V308.91C270.288 308.453 270.624 308.093 271.072 307.832C271.529 307.571 272.019 307.44 272.542 307.44C273.382 307.44 274.059 307.697 274.572 308.21C275.095 308.723 275.356 309.465 275.356 310.436V315H273.788V310.912C273.788 309.54 273.219 308.854 272.08 308.854C271.539 308.854 271.067 309.036 270.666 309.4C270.265 309.755 270.064 310.277 270.064 310.968ZM284.677 311.962H278.839C278.876 312.503 279.124 312.942 279.581 313.278C280.038 313.605 280.561 313.768 281.149 313.768C282.082 313.768 282.792 313.474 283.277 312.886L284.173 313.866C283.37 314.697 282.325 315.112 281.037 315.112C279.992 315.112 279.1 314.767 278.363 314.076C277.635 313.376 277.271 312.443 277.271 311.276C277.271 310.1 277.644 309.167 278.391 308.476C279.138 307.785 280.015 307.44 281.023 307.44C282.04 307.44 282.904 307.748 283.613 308.364C284.322 308.971 284.677 309.811 284.677 310.884V311.962ZM278.839 310.73H283.109C283.109 310.105 282.913 309.624 282.521 309.288C282.129 308.952 281.644 308.784 281.065 308.784C280.496 308.784 279.982 308.961 279.525 309.316C279.068 309.661 278.839 310.133 278.839 310.73ZM293.947 315.112C292.911 315.112 292.02 314.762 291.273 314.062C290.526 313.353 290.153 312.429 290.153 311.29C290.153 310.151 290.54 309.227 291.315 308.518C292.099 307.799 293.051 307.44 294.171 307.44C295.291 307.44 296.238 307.827 297.013 308.602L296.089 309.736C295.445 309.176 294.796 308.896 294.143 308.896C293.49 308.896 292.92 309.115 292.435 309.554C291.959 309.983 291.721 310.543 291.721 311.234C291.721 311.915 291.959 312.494 292.435 312.97C292.911 313.446 293.494 313.684 294.185 313.684C294.885 313.684 295.543 313.367 296.159 312.732L297.083 313.74C296.178 314.655 295.132 315.112 293.947 315.112ZM300.495 313.04C300.943 313.488 301.508 313.712 302.189 313.712C302.87 313.712 303.43 313.488 303.869 313.04C304.317 312.583 304.541 311.995 304.541 311.276C304.541 310.557 304.317 309.974 303.869 309.526C303.43 309.069 302.87 308.84 302.189 308.84C301.508 308.84 300.943 309.069 300.495 309.526C300.056 309.974 299.837 310.557 299.837 311.276C299.837 311.995 300.056 312.583 300.495 313.04ZM304.989 314.006C304.242 314.743 303.309 315.112 302.189 315.112C301.069 315.112 300.136 314.743 299.389 314.006C298.642 313.259 298.269 312.349 298.269 311.276C298.269 310.203 298.642 309.297 299.389 308.56C300.136 307.813 301.069 307.44 302.189 307.44C303.309 307.44 304.242 307.813 304.989 308.56C305.736 309.297 306.109 310.203 306.109 311.276C306.109 312.349 305.736 313.259 304.989 314.006ZM309.66 310.968V315H308.092V307.552H309.66V308.91C309.912 308.453 310.257 308.093 310.696 307.832C311.144 307.571 311.624 307.44 312.138 307.44C312.978 307.44 313.654 307.697 314.168 308.21C314.69 308.723 314.952 309.465 314.952 310.436V315H313.384V310.912C313.384 309.54 312.814 308.854 311.676 308.854C311.134 308.854 310.663 309.036 310.262 309.4C309.86 309.755 309.66 310.277 309.66 310.968ZM319.206 306.936V307.552H321.166V308.812H319.206V315H317.638V308.812H316.7V307.552H317.638V306.978C317.638 306.194 317.872 305.573 318.338 305.116C318.814 304.649 319.384 304.416 320.046 304.416C320.718 304.416 321.33 304.663 321.88 305.158L321.236 306.264C320.928 305.937 320.606 305.774 320.27 305.774C319.934 305.774 319.673 305.881 319.486 306.096C319.3 306.301 319.206 306.581 319.206 306.936ZM324.443 315H322.875V304.612H324.443V315ZM328.484 315H326.916V307.552H328.484V315ZM327.014 306.068C326.818 305.872 326.72 305.639 326.72 305.368C326.72 305.097 326.818 304.864 327.014 304.668C327.21 304.472 327.444 304.374 327.714 304.374C327.985 304.374 328.218 304.472 328.414 304.668C328.61 304.864 328.708 305.097 328.708 305.368C328.708 305.639 328.61 305.872 328.414 306.068C328.218 306.264 327.985 306.362 327.714 306.362C327.444 306.362 327.21 306.264 327.014 306.068ZM334.262 315.112C333.226 315.112 332.335 314.762 331.588 314.062C330.842 313.353 330.468 312.429 330.468 311.29C330.468 310.151 330.856 309.227 331.63 308.518C332.414 307.799 333.366 307.44 334.486 307.44C335.606 307.44 336.554 307.827 337.328 308.602L336.404 309.736C335.76 309.176 335.112 308.896 334.458 308.896C333.805 308.896 333.236 309.115 332.75 309.554C332.274 309.983 332.036 310.543 332.036 311.234C332.036 311.915 332.274 312.494 332.75 312.97C333.226 313.446 333.81 313.684 334.5 313.684C335.2 313.684 335.858 313.367 336.474 312.732L337.398 313.74C336.493 314.655 335.448 315.112 334.262 315.112ZM341.157 308.812V312.592C341.157 312.947 341.25 313.231 341.437 313.446C341.623 313.651 341.885 313.754 342.221 313.754C342.557 313.754 342.879 313.591 343.187 313.264L343.831 314.37C343.28 314.865 342.669 315.112 341.997 315.112C341.334 315.112 340.765 314.883 340.289 314.426C339.822 313.959 339.589 313.334 339.589 312.55V308.812H338.651V307.552H339.589V305.214H341.157V307.552H343.117V308.812H341.157ZM55.7154 327.44C56.7141 327.44 57.5681 327.785 58.2774 328.476C58.9867 329.167 59.3414 330.086 59.3414 331.234C59.3414 332.382 58.9867 333.315 58.2774 334.034C57.5774 334.753 56.7561 335.112 55.8134 335.112C54.8801 335.112 54.0401 334.701 53.2934 333.88V335H51.7254V324.612H53.2934V328.854C53.9094 327.911 54.7167 327.44 55.7154 327.44ZM53.2654 331.29C53.2654 331.999 53.4801 332.583 53.9094 333.04C54.3387 333.488 54.8614 333.712 55.4774 333.712C56.0934 333.712 56.6301 333.488 57.0874 333.04C57.5447 332.592 57.7734 332.013 57.7734 331.304C57.7734 330.585 57.5494 329.993 57.1014 329.526C56.6534 329.05 56.1167 328.812 55.4914 328.812C54.8661 328.812 54.3387 329.05 53.9094 329.526C53.4801 329.993 53.2654 330.581 53.2654 331.29ZM68.2617 331.962H62.4237C62.461 332.503 62.7083 332.942 63.1657 333.278C63.623 333.605 64.1457 333.768 64.7337 333.768C65.667 333.768 66.3763 333.474 66.8617 332.886L67.7577 333.866C66.955 334.697 65.9097 335.112 64.6217 335.112C63.5763 335.112 62.685 334.767 61.9477 334.076C61.2197 333.376 60.8557 332.443 60.8557 331.276C60.8557 330.1 61.229 329.167 61.9757 328.476C62.7223 327.785 63.5997 327.44 64.6077 327.44C65.625 327.44 66.4883 327.748 67.1977 328.364C67.907 328.971 68.2617 329.811 68.2617 330.884V331.962ZM62.4237 330.73H66.6937C66.6937 330.105 66.4977 329.624 66.1057 329.288C65.7137 328.952 65.2283 328.784 64.6497 328.784C64.0803 328.784 63.567 328.961 63.1097 329.316C62.6523 329.661 62.4237 330.133 62.4237 330.73ZM72.0633 328.812V332.592C72.0633 332.947 72.1566 333.231 72.3433 333.446C72.5299 333.651 72.7913 333.754 73.1273 333.754C73.4633 333.754 73.7853 333.591 74.0933 333.264L74.7373 334.37C74.1866 334.865 73.5753 335.112 72.9033 335.112C72.2406 335.112 71.6713 334.883 71.1953 334.426C70.7286 333.959 70.4953 333.334 70.4953 332.55V328.812H69.5573V327.552H70.4953V325.214H72.0633V327.552H74.0233V328.812H72.0633ZM79.6688 335H77.8768L75.3008 327.552H76.9248L78.7728 333.18L80.6208 327.552H82.2448L84.0928 333.18L85.9408 327.552H87.5648L84.9888 335H83.1968L81.4328 329.904L79.6688 335ZM96.0824 331.962H90.2444C90.2817 332.503 90.529 332.942 90.9864 333.278C91.4437 333.605 91.9664 333.768 92.5544 333.768C93.4877 333.768 94.197 333.474 94.6824 332.886L95.5784 333.866C94.7757 334.697 93.7304 335.112 92.4424 335.112C91.397 335.112 90.5057 334.767 89.7684 334.076C89.0404 333.376 88.6764 332.443 88.6764 331.276C88.6764 330.1 89.0497 329.167 89.7964 328.476C90.543 327.785 91.4204 327.44 92.4284 327.44C93.4457 327.44 94.309 327.748 95.0184 328.364C95.7277 328.971 96.0824 329.811 96.0824 330.884V331.962ZM90.2444 330.73H94.5144C94.5144 330.105 94.3184 329.624 93.9264 329.288C93.5344 328.952 93.049 328.784 92.4704 328.784C91.901 328.784 91.3877 328.961 90.9304 329.316C90.473 329.661 90.2444 330.133 90.2444 330.73ZM104.937 331.962H99.0987C99.136 332.503 99.3833 332.942 99.8407 333.278C100.298 333.605 100.821 333.768 101.409 333.768C102.342 333.768 103.051 333.474 103.537 332.886L104.433 333.866C103.63 334.697 102.585 335.112 101.297 335.112C100.251 335.112 99.36 334.767 98.6227 334.076C97.8947 333.376 97.5307 332.443 97.5307 331.276C97.5307 330.1 97.904 329.167 98.6507 328.476C99.3973 327.785 100.275 327.44 101.283 327.44C102.3 327.44 103.163 327.748 103.873 328.364C104.582 328.971 104.937 329.811 104.937 330.884V331.962ZM99.0987 330.73H103.369C103.369 330.105 103.173 329.624 102.781 329.288C102.389 328.952 101.903 328.784 101.325 328.784C100.755 328.784 100.242 328.961 99.7847 329.316C99.3273 329.661 99.0987 330.133 99.0987 330.73ZM108.429 330.968V335H106.861V327.552H108.429V328.91C108.681 328.453 109.026 328.093 109.465 327.832C109.913 327.571 110.394 327.44 110.907 327.44C111.747 327.44 112.424 327.697 112.937 328.21C113.46 328.723 113.721 329.465 113.721 330.436V335H112.153V330.912C112.153 329.54 111.584 328.854 110.445 328.854C109.904 328.854 109.432 329.036 109.031 329.4C108.63 329.755 108.429 330.277 108.429 330.968ZM122.086 328.812V332.592C122.086 332.947 122.179 333.231 122.366 333.446C122.552 333.651 122.814 333.754 123.15 333.754C123.486 333.754 123.808 333.591 124.116 333.264L124.76 334.37C124.209 334.865 123.598 335.112 122.926 335.112C122.263 335.112 121.694 334.883 121.218 334.426C120.751 333.959 120.518 333.334 120.518 332.55V328.812H119.58V327.552H120.518V325.214H122.086V327.552H124.046V328.812H122.086ZM127.773 330.968V335H126.205V324.626H127.773V328.91C127.997 328.453 128.333 328.093 128.781 327.832C129.238 327.571 129.728 327.44 130.251 327.44C131.091 327.44 131.768 327.697 132.281 328.21C132.804 328.723 133.065 329.465 133.065 330.436V335H131.497V330.912C131.497 329.54 130.928 328.854 129.789 328.854C129.248 328.854 128.776 329.036 128.375 329.4C127.974 329.755 127.773 330.277 127.773 330.968ZM142.386 331.962H136.548C136.585 332.503 136.833 332.942 137.29 333.278C137.747 333.605 138.27 333.768 138.858 333.768C139.791 333.768 140.501 333.474 140.986 332.886L141.882 333.866C141.079 334.697 140.034 335.112 138.746 335.112C137.701 335.112 136.809 334.767 136.072 334.076C135.344 333.376 134.98 332.443 134.98 331.276C134.98 330.1 135.353 329.167 136.1 328.476C136.847 327.785 137.724 327.44 138.732 327.44C139.749 327.44 140.613 327.748 141.322 328.364C142.031 328.971 142.386 329.811 142.386 330.884V331.962ZM136.548 330.73H140.818C140.818 330.105 140.622 329.624 140.23 329.288C139.838 328.952 139.353 328.784 138.774 328.784C138.205 328.784 137.691 328.961 137.234 329.316C136.777 329.661 136.548 330.133 136.548 330.73ZM150.284 328.812V332.592C150.284 332.947 150.377 333.231 150.564 333.446C150.751 333.651 151.012 333.754 151.348 333.754C151.684 333.754 152.006 333.591 152.314 333.264L152.958 334.37C152.407 334.865 151.796 335.112 151.124 335.112C150.461 335.112 149.892 334.883 149.416 334.426C148.949 333.959 148.716 333.334 148.716 332.55V328.812H147.778V327.552H148.716V325.214H150.284V327.552H152.244V328.812H150.284ZM157.89 335H156.098L153.522 327.552H155.146L156.994 333.18L158.842 327.552H160.466L162.314 333.18L164.162 327.552H165.786L163.21 335H161.418L159.654 329.904L157.89 335ZM169.013 333.04C169.461 333.488 170.026 333.712 170.707 333.712C171.389 333.712 171.949 333.488 172.387 333.04C172.835 332.583 173.059 331.995 173.059 331.276C173.059 330.557 172.835 329.974 172.387 329.526C171.949 329.069 171.389 328.84 170.707 328.84C170.026 328.84 169.461 329.069 169.013 329.526C168.575 329.974 168.355 330.557 168.355 331.276C168.355 331.995 168.575 332.583 169.013 333.04ZM173.507 334.006C172.761 334.743 171.827 335.112 170.707 335.112C169.587 335.112 168.654 334.743 167.907 334.006C167.161 333.259 166.787 332.349 166.787 331.276C166.787 330.203 167.161 329.297 167.907 328.56C168.654 327.813 169.587 327.44 170.707 327.44C171.827 327.44 172.761 327.813 173.507 328.56C174.254 329.297 174.627 330.203 174.627 331.276C174.627 332.349 174.254 333.259 173.507 334.006ZM182.22 330.968V335H180.652V327.552H182.22V328.91C182.444 328.453 182.78 328.093 183.228 327.832C183.685 327.571 184.175 327.44 184.698 327.44C185.874 327.44 186.672 327.925 187.092 328.896C187.829 327.925 188.749 327.44 189.85 327.44C190.69 327.44 191.367 327.697 191.88 328.21C192.403 328.723 192.664 329.465 192.664 330.436V335H191.096V330.912C191.096 329.54 190.527 328.854 189.388 328.854C188.856 328.854 188.389 329.027 187.988 329.372C187.596 329.708 187.391 330.203 187.372 330.856V335H185.804V330.912C185.804 330.203 185.678 329.685 185.426 329.358C185.174 329.022 184.777 328.854 184.236 328.854C183.695 328.854 183.223 329.036 182.822 329.4C182.421 329.755 182.22 330.277 182.22 330.968ZM201.077 335H199.649V334.006C199.033 334.743 198.207 335.112 197.171 335.112C196.397 335.112 195.753 334.893 195.239 334.454C194.735 334.015 194.483 333.432 194.483 332.704C194.483 331.967 194.754 331.416 195.295 331.052C195.837 330.688 196.569 330.506 197.493 330.506H199.523V330.226C199.523 329.237 198.973 328.742 197.871 328.742C197.181 328.742 196.462 328.994 195.715 329.498L195.015 328.518C195.921 327.799 196.947 327.44 198.095 327.44C198.973 327.44 199.687 327.664 200.237 328.112C200.797 328.551 201.077 329.246 201.077 330.198V335ZM199.509 332.228V331.598H197.745C196.616 331.598 196.051 331.953 196.051 332.662C196.051 333.026 196.191 333.306 196.471 333.502C196.751 333.689 197.139 333.782 197.633 333.782C198.137 333.782 198.576 333.642 198.949 333.362C199.323 333.082 199.509 332.704 199.509 332.228ZM203.46 335.35V327.552H205.028V335.406C205.028 336.19 204.79 336.811 204.314 337.268C203.848 337.735 203.278 337.968 202.606 337.968C201.944 337.968 201.337 337.721 200.786 337.226L201.514 336.05C201.832 336.358 202.149 336.512 202.466 336.512C202.793 336.512 203.04 336.409 203.208 336.204C203.376 335.999 203.46 335.714 203.46 335.35ZM203.53 326.068C203.334 325.872 203.236 325.639 203.236 325.368C203.236 325.097 203.334 324.864 203.53 324.668C203.726 324.472 203.96 324.374 204.23 324.374C204.501 324.374 204.734 324.472 204.93 324.668C205.126 324.864 205.224 325.097 205.224 325.368C205.224 325.639 205.126 325.872 204.93 326.068C204.734 326.264 204.501 326.362 204.23 326.362C203.96 326.362 203.726 326.264 203.53 326.068ZM209.238 333.04C209.686 333.488 210.251 333.712 210.932 333.712C211.613 333.712 212.173 333.488 212.612 333.04C213.06 332.583 213.284 331.995 213.284 331.276C213.284 330.557 213.06 329.974 212.612 329.526C212.173 329.069 211.613 328.84 210.932 328.84C210.251 328.84 209.686 329.069 209.238 329.526C208.799 329.974 208.58 330.557 208.58 331.276C208.58 331.995 208.799 332.583 209.238 333.04ZM213.732 334.006C212.985 334.743 212.052 335.112 210.932 335.112C209.812 335.112 208.879 334.743 208.132 334.006C207.385 333.259 207.012 332.349 207.012 331.276C207.012 330.203 207.385 329.297 208.132 328.56C208.879 327.813 209.812 327.44 210.932 327.44C212.052 327.44 212.985 327.813 213.732 328.56C214.479 329.297 214.852 330.203 214.852 331.276C214.852 332.349 214.479 333.259 213.732 334.006ZM220.741 329.022C219.966 329.022 219.383 329.274 218.991 329.778C218.599 330.282 218.403 330.959 218.403 331.808V335H216.835V327.552H218.403V329.05C218.655 328.583 218.995 328.201 219.425 327.902C219.863 327.603 220.325 327.449 220.811 327.44L220.825 329.022C220.797 329.022 220.769 329.022 220.741 329.022ZM230.547 329.022C229.772 329.022 229.189 329.274 228.797 329.778C228.405 330.282 228.209 330.959 228.209 331.808V335H226.641V327.552H228.209V329.05C228.461 328.583 228.802 328.201 229.231 327.902C229.67 327.603 230.132 327.449 230.617 327.44L230.631 329.022C230.603 329.022 230.575 329.022 230.547 329.022ZM239.335 331.962H233.497C233.535 332.503 233.782 332.942 234.239 333.278C234.697 333.605 235.219 333.768 235.807 333.768C236.741 333.768 237.45 333.474 237.935 332.886L238.831 333.866C238.029 334.697 236.983 335.112 235.695 335.112C234.65 335.112 233.759 334.767 233.021 334.076C232.293 333.376 231.929 332.443 231.929 331.276C231.929 330.1 232.303 329.167 233.049 328.476C233.796 327.785 234.673 327.44 235.681 327.44C236.699 327.44 237.562 327.748 238.271 328.364C238.981 328.971 239.335 329.811 239.335 330.884V331.962ZM233.497 330.73H237.767C237.767 330.105 237.571 329.624 237.179 329.288C236.787 328.952 236.302 328.784 235.723 328.784C235.154 328.784 234.641 328.961 234.183 329.316C233.726 329.661 233.497 330.133 233.497 330.73ZM247.294 335H245.866V334.006C245.25 334.743 244.424 335.112 243.388 335.112C242.613 335.112 241.969 334.893 241.456 334.454C240.952 334.015 240.7 333.432 240.7 332.704C240.7 331.967 240.97 331.416 241.512 331.052C242.053 330.688 242.786 330.506 243.71 330.506H245.74V330.226C245.74 329.237 245.189 328.742 244.088 328.742C243.397 328.742 242.678 328.994 241.932 329.498L241.232 328.518C242.137 327.799 243.164 327.44 244.312 327.44C245.189 327.44 245.903 327.664 246.454 328.112C247.014 328.551 247.294 329.246 247.294 330.198V335ZM245.726 332.228V331.598H243.962C242.832 331.598 242.268 331.953 242.268 332.662C242.268 333.026 242.408 333.306 242.688 333.502C242.968 333.689 243.355 333.782 243.85 333.782C244.354 333.782 244.792 333.642 245.166 333.362C245.539 333.082 245.726 332.704 245.726 332.228ZM251.245 335H249.677V324.612H251.245V335ZM255.286 330.968V335H253.718V327.552H255.286V328.91C255.51 328.453 255.846 328.093 256.294 327.832C256.752 327.571 257.242 327.44 257.764 327.44C258.94 327.44 259.738 327.925 260.158 328.896C260.896 327.925 261.815 327.44 262.916 327.44C263.756 327.44 264.433 327.697 264.946 328.21C265.469 328.723 265.73 329.465 265.73 330.436V335H264.162V330.912C264.162 329.54 263.593 328.854 262.454 328.854C261.922 328.854 261.456 329.027 261.054 329.372C260.662 329.708 260.457 330.203 260.438 330.856V335H258.87V330.912C258.87 330.203 258.744 329.685 258.492 329.358C258.24 329.022 257.844 328.854 257.302 328.854C256.761 328.854 256.29 329.036 255.888 329.4C255.487 329.755 255.286 330.277 255.286 330.968ZM273.416 332.774C273.416 333.483 273.159 334.053 272.646 334.482C272.132 334.902 271.474 335.112 270.672 335.112C270.13 335.112 269.566 335.014 268.978 334.818C268.399 334.622 267.886 334.347 267.438 333.992L268.194 332.774C269.062 333.427 269.902 333.754 270.714 333.754C271.068 333.754 271.348 333.675 271.554 333.516C271.759 333.348 271.862 333.138 271.862 332.886C271.862 332.513 271.367 332.177 270.378 331.878C270.303 331.85 270.247 331.831 270.21 331.822C268.66 331.402 267.886 330.702 267.886 329.722C267.886 329.031 268.152 328.481 268.684 328.07C269.225 327.65 269.925 327.44 270.784 327.44C271.642 327.44 272.454 327.692 273.22 328.196L272.632 329.358C272.025 328.957 271.367 328.756 270.658 328.756C270.284 328.756 269.981 328.826 269.748 328.966C269.514 329.097 269.398 329.297 269.398 329.568C269.398 329.811 269.519 329.988 269.762 330.1C269.93 330.184 270.163 330.263 270.462 330.338C270.77 330.413 271.04 330.487 271.274 330.562C271.507 330.637 271.731 330.721 271.946 330.814C272.17 330.907 272.408 331.038 272.66 331.206C273.164 331.542 273.416 332.065 273.416 332.774ZM281.17 333.04C281.618 333.488 282.182 333.712 282.864 333.712C283.545 333.712 284.105 333.488 284.544 333.04C284.992 332.583 285.216 331.995 285.216 331.276C285.216 330.557 284.992 329.974 284.544 329.526C284.105 329.069 283.545 328.84 282.864 328.84C282.182 328.84 281.618 329.069 281.17 329.526C280.731 329.974 280.512 330.557 280.512 331.276C280.512 331.995 280.731 332.583 281.17 333.04ZM285.664 334.006C284.917 334.743 283.984 335.112 282.864 335.112C281.744 335.112 280.81 334.743 280.064 334.006C279.317 333.259 278.944 332.349 278.944 331.276C278.944 330.203 279.317 329.297 280.064 328.56C280.81 327.813 281.744 327.44 282.864 327.44C283.984 327.44 284.917 327.813 285.664 328.56C286.41 329.297 286.784 330.203 286.784 331.276C286.784 332.349 286.41 333.259 285.664 334.006ZM290.589 326.936V327.552H292.549V328.812H290.589V335H289.021V328.812H288.083V327.552H289.021V326.978C289.021 326.194 289.254 325.573 289.721 325.116C290.197 324.649 290.766 324.416 291.429 324.416C292.101 324.416 292.712 324.663 293.263 325.158L292.619 326.264C292.311 325.937 291.989 325.774 291.653 325.774C291.317 325.774 291.056 325.881 290.869 326.096C290.682 326.301 290.589 326.581 290.589 326.936ZM302.989 333.502C303.559 333.502 304.049 333.409 304.459 333.222C304.87 333.026 305.299 332.718 305.747 332.298L306.811 333.39C305.775 334.538 304.515 335.112 303.031 335.112C301.557 335.112 300.329 334.636 299.349 333.684C298.379 332.732 297.893 331.528 297.893 330.072C297.893 328.616 298.388 327.403 299.377 326.432C300.376 325.461 301.631 324.976 303.143 324.976C304.665 324.976 305.934 325.536 306.951 326.656L305.901 327.804C305.435 327.356 304.991 327.043 304.571 326.866C304.161 326.689 303.675 326.6 303.115 326.6C302.126 326.6 301.295 326.922 300.623 327.566C299.951 328.201 299.615 329.017 299.615 330.016C299.615 331.005 299.947 331.836 300.609 332.508C301.281 333.171 302.075 333.502 302.989 333.502ZM310.376 335H308.808V324.612H310.376V335ZM318.884 335H317.456V334.006C316.84 334.743 316.014 335.112 314.978 335.112C314.203 335.112 313.559 334.893 313.046 334.454C312.542 334.015 312.29 333.432 312.29 332.704C312.29 331.967 312.56 331.416 313.102 331.052C313.643 330.688 314.376 330.506 315.3 330.506H317.33V330.226C317.33 329.237 316.779 328.742 315.678 328.742C314.987 328.742 314.268 328.994 313.522 329.498L312.822 328.518C313.727 327.799 314.754 327.44 315.902 327.44C316.779 327.44 317.493 327.664 318.044 328.112C318.604 328.551 318.884 329.246 318.884 330.198V335ZM317.316 332.228V331.598H315.552C314.422 331.598 313.858 331.953 313.858 332.662C313.858 333.026 313.998 333.306 314.278 333.502C314.558 333.689 314.945 333.782 315.44 333.782C315.944 333.782 316.382 333.642 316.756 333.362C317.129 333.082 317.316 332.704 317.316 332.228ZM326.572 332.774C326.572 333.483 326.316 334.053 325.802 334.482C325.289 334.902 324.631 335.112 323.828 335.112C323.287 335.112 322.722 335.014 322.134 334.818C321.556 334.622 321.042 334.347 320.594 333.992L321.35 332.774C322.218 333.427 323.058 333.754 323.87 333.754C324.225 333.754 324.505 333.675 324.71 333.516C324.916 333.348 325.018 333.138 325.018 332.886C325.018 332.513 324.524 332.177 323.534 331.878C323.46 331.85 323.404 331.831 323.366 331.822C321.817 331.402 321.042 330.702 321.042 329.722C321.042 329.031 321.308 328.481 321.84 328.07C322.382 327.65 323.082 327.44 323.94 327.44C324.799 327.44 325.611 327.692 326.376 328.196L325.788 329.358C325.182 328.957 324.524 328.756 323.814 328.756C323.441 328.756 323.138 328.826 322.904 328.966C322.671 329.097 322.554 329.297 322.554 329.568C322.554 329.811 322.676 329.988 322.918 330.1C323.086 330.184 323.32 330.263 323.618 330.338C323.926 330.413 324.197 330.487 324.43 330.562C324.664 330.637 324.888 330.721 325.102 330.814C325.326 330.907 325.564 331.038 325.816 331.206C326.32 331.542 326.572 332.065 326.572 332.774ZM333.854 332.774C333.854 333.483 333.598 334.053 333.084 334.482C332.571 334.902 331.913 335.112 331.11 335.112C330.569 335.112 330.004 335.014 329.416 334.818C328.838 334.622 328.324 334.347 327.876 333.992L328.632 332.774C329.5 333.427 330.34 333.754 331.152 333.754C331.507 333.754 331.787 333.675 331.992 333.516C332.198 333.348 332.3 333.138 332.3 332.886C332.3 332.513 331.806 332.177 330.816 331.878C330.742 331.85 330.686 331.831 330.648 331.822C329.099 331.402 328.324 330.702 328.324 329.722C328.324 329.031 328.59 328.481 329.122 328.07C329.664 327.65 330.364 327.44 331.222 327.44C332.081 327.44 332.893 327.692 333.658 328.196L333.07 329.358C332.464 328.957 331.806 328.756 331.096 328.756C330.723 328.756 330.42 328.826 330.186 328.966C329.953 329.097 329.836 329.297 329.836 329.568C329.836 329.811 329.958 329.988 330.2 330.1C330.368 330.184 330.602 330.263 330.9 330.338C331.208 330.413 331.479 330.487 331.712 330.562C331.946 330.637 332.17 330.721 332.384 330.814C332.608 330.907 332.846 331.038 333.098 331.206C333.602 331.542 333.854 332.065 333.854 332.774ZM337.398 335H335.83V327.552H337.398V335ZM335.928 326.068C335.732 325.872 335.634 325.639 335.634 325.368C335.634 325.097 335.732 324.864 335.928 324.668C336.124 324.472 336.358 324.374 336.628 324.374C336.899 324.374 337.132 324.472 337.328 324.668C337.524 324.864 337.622 325.097 337.622 325.368C337.622 325.639 337.524 325.872 337.328 326.068C337.132 326.264 336.899 326.362 336.628 326.362C336.358 326.362 336.124 326.264 335.928 326.068ZM343.176 335.112C342.14 335.112 341.249 334.762 340.502 334.062C339.756 333.353 339.382 332.429 339.382 331.29C339.382 330.151 339.77 329.227 340.544 328.518C341.328 327.799 342.28 327.44 343.4 327.44C344.52 327.44 345.468 327.827 346.242 328.602L345.318 329.736C344.674 329.176 344.026 328.896 343.372 328.896C342.719 328.896 342.15 329.115 341.664 329.554C341.188 329.983 340.95 330.543 340.95 331.234C340.95 331.915 341.188 332.494 341.664 332.97C342.14 333.446 342.724 333.684 343.414 333.684C344.114 333.684 344.772 333.367 345.388 332.732L346.312 333.74C345.407 334.655 344.362 335.112 343.176 335.112ZM354.118 335H352.69V334.006C352.074 334.743 351.248 335.112 350.212 335.112C349.437 335.112 348.793 334.893 348.28 334.454C347.776 334.015 347.524 333.432 347.524 332.704C347.524 331.967 347.795 331.416 348.336 331.052C348.877 330.688 349.61 330.506 350.534 330.506H352.564V330.226C352.564 329.237 352.013 328.742 350.912 328.742C350.221 328.742 349.503 328.994 348.756 329.498L348.056 328.518C348.961 327.799 349.988 327.44 351.136 327.44C352.013 327.44 352.727 327.664 353.278 328.112C353.838 328.551 354.118 329.246 354.118 330.198V335ZM352.55 332.228V331.598H350.786C349.657 331.598 349.092 331.953 349.092 332.662C349.092 333.026 349.232 333.306 349.512 333.502C349.792 333.689 350.179 333.782 350.674 333.782C351.178 333.782 351.617 333.642 351.99 333.362C352.363 333.082 352.55 332.704 352.55 332.228ZM358.069 335H356.501V324.612H358.069V335ZM98.0242 347.44C99.0229 347.44 99.8769 347.785 100.586 348.476C101.296 349.167 101.65 350.086 101.65 351.234C101.65 352.382 101.296 353.315 100.586 354.034C99.8862 354.753 99.0649 355.112 98.1222 355.112C97.1889 355.112 96.3489 354.701 95.6022 353.88V357.716H94.0342V347.552H95.6022V348.854C96.2182 347.911 97.0255 347.44 98.0242 347.44ZM95.5742 351.29C95.5742 351.999 95.7889 352.583 96.2182 353.04C96.6475 353.488 97.1702 353.712 97.7862 353.712C98.4022 353.712 98.9389 353.488 99.3962 353.04C99.8535 352.592 100.082 352.013 100.082 351.304C100.082 350.585 99.8582 349.993 99.4102 349.526C98.9622 349.05 98.4255 348.812 97.8002 348.812C97.1749 348.812 96.6475 349.05 96.2182 349.526C95.7889 349.993 95.5742 350.581 95.5742 351.29ZM105.208 350.968V355H103.64V344.626H105.208V348.91C105.432 348.453 105.768 348.093 106.216 347.832C106.674 347.571 107.164 347.44 107.686 347.44C108.526 347.44 109.203 347.697 109.716 348.21C110.239 348.723 110.5 349.465 110.5 350.436V355H108.932V350.912C108.932 349.54 108.363 348.854 107.224 348.854C106.683 348.854 106.212 349.036 105.81 349.4C105.409 349.755 105.208 350.277 105.208 350.968ZM113.829 357.968C113.148 357.968 112.532 357.721 111.981 357.226L112.695 355.952C113.022 356.26 113.358 356.414 113.703 356.414C114.058 356.414 114.343 356.288 114.557 356.036C114.781 355.784 114.893 355.509 114.893 355.21C114.893 355.079 113.89 352.527 111.883 347.552H113.563L115.789 353.04L118.015 347.552H119.695L116.083 356.4C115.869 356.885 115.561 357.268 115.159 357.548C114.758 357.828 114.315 357.968 113.829 357.968ZM126.354 352.774C126.354 353.483 126.098 354.053 125.584 354.482C125.071 354.902 124.413 355.112 123.61 355.112C123.069 355.112 122.504 355.014 121.916 354.818C121.338 354.622 120.824 354.347 120.376 353.992L121.132 352.774C122 353.427 122.84 353.754 123.652 353.754C124.007 353.754 124.287 353.675 124.492 353.516C124.698 353.348 124.8 353.138 124.8 352.886C124.8 352.513 124.306 352.177 123.316 351.878C123.242 351.85 123.186 351.831 123.148 351.822C121.599 351.402 120.824 350.702 120.824 349.722C120.824 349.031 121.09 348.481 121.622 348.07C122.164 347.65 122.864 347.44 123.722 347.44C124.581 347.44 125.393 347.692 126.158 348.196L125.57 349.358C124.964 348.957 124.306 348.756 123.596 348.756C123.223 348.756 122.92 348.826 122.686 348.966C122.453 349.097 122.336 349.297 122.336 349.568C122.336 349.811 122.458 349.988 122.7 350.1C122.868 350.184 123.102 350.263 123.4 350.338C123.708 350.413 123.979 350.487 124.212 350.562C124.446 350.637 124.67 350.721 124.884 350.814C125.108 350.907 125.346 351.038 125.598 351.206C126.102 351.542 126.354 352.065 126.354 352.774ZM129.898 355H128.33V347.552H129.898V355ZM128.428 346.068C128.232 345.872 128.134 345.639 128.134 345.368C128.134 345.097 128.232 344.864 128.428 344.668C128.624 344.472 128.858 344.374 129.128 344.374C129.399 344.374 129.632 344.472 129.828 344.668C130.024 344.864 130.122 345.097 130.122 345.368C130.122 345.639 130.024 345.872 129.828 346.068C129.632 346.264 129.399 346.362 129.128 346.362C128.858 346.362 128.624 346.264 128.428 346.068ZM135.676 355.112C134.64 355.112 133.749 354.762 133.002 354.062C132.255 353.353 131.882 352.429 131.882 351.29C131.882 350.151 132.269 349.227 133.044 348.518C133.828 347.799 134.78 347.44 135.9 347.44C137.02 347.44 137.967 347.827 138.742 348.602L137.818 349.736C137.174 349.176 136.525 348.896 135.872 348.896C135.219 348.896 134.649 349.115 134.164 349.554C133.688 349.983 133.45 350.543 133.45 351.234C133.45 351.915 133.688 352.494 134.164 352.97C134.64 353.446 135.223 353.684 135.914 353.684C136.614 353.684 137.272 353.367 137.888 352.732L138.812 353.74C137.907 354.655 136.861 355.112 135.676 355.112ZM145.89 352.774C145.89 353.483 145.633 354.053 145.12 354.482C144.606 354.902 143.948 355.112 143.146 355.112C142.604 355.112 142.04 355.014 141.452 354.818C140.873 354.622 140.36 354.347 139.912 353.992L140.668 352.774C141.536 353.427 142.376 353.754 143.188 353.754C143.542 353.754 143.822 353.675 144.028 353.516C144.233 353.348 144.336 353.138 144.336 352.886C144.336 352.513 143.841 352.177 142.852 351.878C142.777 351.85 142.721 351.831 142.684 351.822C141.134 351.402 140.36 350.702 140.36 349.722C140.36 349.031 140.626 348.481 141.158 348.07C141.699 347.65 142.399 347.44 143.258 347.44C144.116 347.44 144.928 347.692 145.694 348.196L145.106 349.358C144.499 348.957 143.841 348.756 143.132 348.756C142.758 348.756 142.455 348.826 142.222 348.966C141.988 349.097 141.872 349.297 141.872 349.568C141.872 349.811 141.993 349.988 142.236 350.1C142.404 350.184 142.637 350.263 142.936 350.338C143.244 350.413 143.514 350.487 143.748 350.562C143.981 350.637 144.205 350.721 144.42 350.814C144.644 350.907 144.882 351.038 145.134 351.206C145.638 351.542 145.89 352.065 145.89 352.774ZM148.034 354.804C147.838 354.599 147.74 354.351 147.74 354.062C147.74 353.773 147.838 353.53 148.034 353.334C148.239 353.129 148.487 353.026 148.776 353.026C149.065 353.026 149.313 353.129 149.518 353.334C149.723 353.53 149.826 353.773 149.826 354.062C149.826 354.351 149.723 354.599 149.518 354.804C149.313 355.009 149.065 355.112 148.776 355.112C148.487 355.112 148.239 355.009 148.034 354.804ZM148.034 351.374C147.838 351.169 147.74 350.921 147.74 350.632C147.74 350.343 147.838 350.1 148.034 349.904C148.239 349.699 148.487 349.596 148.776 349.596C149.065 349.596 149.313 349.699 149.518 349.904C149.723 350.1 149.826 350.343 149.826 350.632C149.826 350.921 149.723 351.169 149.518 351.374C149.313 351.579 149.065 351.682 148.776 351.682C148.487 351.682 148.239 351.579 148.034 351.374ZM163.769 345.214H165.421V355H163.629L158.085 347.86V355H156.433V345.214H158.085L163.769 352.522V345.214ZM175.042 351.962H169.204C169.242 352.503 169.489 352.942 169.946 353.278C170.404 353.605 170.926 353.768 171.514 353.768C172.448 353.768 173.157 353.474 173.642 352.886L174.538 353.866C173.736 354.697 172.69 355.112 171.402 355.112C170.357 355.112 169.466 354.767 168.728 354.076C168 353.376 167.636 352.443 167.636 351.276C167.636 350.1 168.01 349.167 168.756 348.476C169.503 347.785 170.38 347.44 171.388 347.44C172.406 347.44 173.269 347.748 173.978 348.364C174.688 348.971 175.042 349.811 175.042 350.884V351.962ZM169.204 350.73H173.474C173.474 350.105 173.278 349.624 172.886 349.288C172.494 348.952 172.009 348.784 171.43 348.784C170.861 348.784 170.348 348.961 169.89 349.316C169.433 349.661 169.204 350.133 169.204 350.73ZM180.453 355H178.661L176.085 347.552H177.709L179.557 353.18L181.405 347.552H183.029L184.877 353.18L186.725 347.552H188.349L185.773 355H183.981L182.217 349.904L180.453 355ZM191.868 348.812V352.592C191.868 352.947 191.961 353.231 192.148 353.446C192.335 353.651 192.596 353.754 192.932 353.754C193.268 353.754 193.59 353.591 193.898 353.264L194.542 354.37C193.991 354.865 193.38 355.112 192.708 355.112C192.045 355.112 191.476 354.883 191 354.426C190.533 353.959 190.3 353.334 190.3 352.55V348.812H189.362V347.552H190.3V345.214H191.868V347.552H193.828V348.812H191.868ZM197.669 353.04C198.117 353.488 198.682 353.712 199.363 353.712C200.044 353.712 200.604 353.488 201.043 353.04C201.491 352.583 201.715 351.995 201.715 351.276C201.715 350.557 201.491 349.974 201.043 349.526C200.604 349.069 200.044 348.84 199.363 348.84C198.682 348.84 198.117 349.069 197.669 349.526C197.23 349.974 197.011 350.557 197.011 351.276C197.011 351.995 197.23 352.583 197.669 353.04ZM202.163 354.006C201.416 354.743 200.483 355.112 199.363 355.112C198.243 355.112 197.31 354.743 196.563 354.006C195.816 353.259 195.443 352.349 195.443 351.276C195.443 350.203 195.816 349.297 196.563 348.56C197.31 347.813 198.243 347.44 199.363 347.44C200.483 347.44 201.416 347.813 202.163 348.56C202.91 349.297 203.283 350.203 203.283 351.276C203.283 352.349 202.91 353.259 202.163 354.006ZM206.834 350.968V355H205.266V347.552H206.834V348.91C207.086 348.453 207.431 348.093 207.87 347.832C208.318 347.571 208.799 347.44 209.312 347.44C210.152 347.44 210.829 347.697 211.342 348.21C211.865 348.723 212.126 349.465 212.126 350.436V355H210.558V350.912C210.558 349.54 209.989 348.854 208.85 348.854C208.309 348.854 207.837 349.036 207.436 349.4C207.035 349.755 206.834 350.277 206.834 350.968ZM216.085 355H214.517V347.552H216.085V355ZM214.615 346.068C214.419 345.872 214.321 345.639 214.321 345.368C214.321 345.097 214.419 344.864 214.615 344.668C214.811 344.472 215.044 344.374 215.315 344.374C215.585 344.374 215.819 344.472 216.015 344.668C216.211 344.864 216.309 345.097 216.309 345.368C216.309 345.639 216.211 345.872 216.015 346.068C215.819 346.264 215.585 346.362 215.315 346.362C215.044 346.362 214.811 346.264 214.615 346.068ZM224.592 355H223.164V354.006C222.548 354.743 221.722 355.112 220.686 355.112C219.912 355.112 219.268 354.893 218.754 354.454C218.25 354.015 217.998 353.432 217.998 352.704C217.998 351.967 218.269 351.416 218.81 351.052C219.352 350.688 220.084 350.506 221.008 350.506H223.038V350.226C223.038 349.237 222.488 348.742 221.386 348.742C220.696 348.742 219.977 348.994 219.23 349.498L218.53 348.518C219.436 347.799 220.462 347.44 221.61 347.44C222.488 347.44 223.202 347.664 223.752 348.112C224.312 348.551 224.592 349.246 224.592 350.198V355ZM223.024 352.228V351.598H221.26C220.131 351.598 219.566 351.953 219.566 352.662C219.566 353.026 219.706 353.306 219.986 353.502C220.266 353.689 220.654 353.782 221.148 353.782C221.652 353.782 222.091 353.642 222.464 353.362C222.838 353.082 223.024 352.704 223.024 352.228ZM228.543 350.968V355H226.975V347.552H228.543V348.91C228.795 348.453 229.141 348.093 229.579 347.832C230.027 347.571 230.508 347.44 231.021 347.44C231.861 347.44 232.538 347.697 233.051 348.21C233.574 348.723 233.835 349.465 233.835 350.436V355H232.267V350.912C232.267 349.54 231.698 348.854 230.559 348.854C230.018 348.854 229.547 349.036 229.145 349.4C228.744 349.755 228.543 350.277 228.543 350.968ZM241.836 350.968V355H240.268V347.552H241.836V348.91C242.06 348.453 242.396 348.093 242.844 347.832C243.301 347.571 243.791 347.44 244.314 347.44C245.49 347.44 246.288 347.925 246.708 348.896C247.445 347.925 248.364 347.44 249.466 347.44C250.306 347.44 250.982 347.697 251.496 348.21C252.018 348.723 252.28 349.465 252.28 350.436V355H250.712V350.912C250.712 349.54 250.142 348.854 249.004 348.854C248.472 348.854 248.005 349.027 247.604 349.372C247.212 349.708 247.006 350.203 246.988 350.856V355H245.42V350.912C245.42 350.203 245.294 349.685 245.042 349.358C244.79 349.022 244.393 348.854 243.852 348.854C243.31 348.854 242.839 349.036 242.438 349.4C242.036 349.755 241.836 350.277 241.836 350.968ZM261.589 351.962H255.751C255.789 352.503 256.036 352.942 256.493 353.278C256.951 353.605 257.473 353.768 258.061 353.768C258.995 353.768 259.704 353.474 260.189 352.886L261.085 353.866C260.283 354.697 259.237 355.112 257.949 355.112C256.904 355.112 256.013 354.767 255.275 354.076C254.547 353.376 254.183 352.443 254.183 351.276C254.183 350.1 254.557 349.167 255.303 348.476C256.05 347.785 256.927 347.44 257.935 347.44C258.953 347.44 259.816 347.748 260.525 348.364C261.235 348.971 261.589 349.811 261.589 350.884V351.962ZM255.751 350.73H260.021C260.021 350.105 259.825 349.624 259.433 349.288C259.041 348.952 258.556 348.784 257.977 348.784C257.408 348.784 256.895 348.961 256.437 349.316C255.98 349.661 255.751 350.133 255.751 350.73ZM266.817 355.112C265.781 355.112 264.89 354.762 264.143 354.062C263.397 353.353 263.023 352.429 263.023 351.29C263.023 350.151 263.411 349.227 264.185 348.518C264.969 347.799 265.921 347.44 267.041 347.44C268.161 347.44 269.109 347.827 269.883 348.602L268.959 349.736C268.315 349.176 267.667 348.896 267.013 348.896C266.36 348.896 265.791 349.115 265.305 349.554C264.829 349.983 264.591 350.543 264.591 351.234C264.591 351.915 264.829 352.494 265.305 352.97C265.781 353.446 266.365 353.684 267.055 353.684C267.755 353.684 268.413 353.367 269.029 352.732L269.953 353.74C269.048 354.655 268.003 355.112 266.817 355.112ZM273.348 350.968V355H271.78V344.626H273.348V348.91C273.572 348.453 273.908 348.093 274.356 347.832C274.813 347.571 275.303 347.44 275.826 347.44C276.666 347.44 277.343 347.697 277.856 348.21C278.379 348.723 278.64 349.465 278.64 350.436V355H277.072V350.912C277.072 349.54 276.503 348.854 275.364 348.854C274.823 348.854 274.351 349.036 273.95 349.4C273.549 349.755 273.348 350.277 273.348 350.968ZM287.065 355H285.637V354.006C285.021 354.743 284.195 355.112 283.159 355.112C282.384 355.112 281.74 354.893 281.227 354.454C280.723 354.015 280.471 353.432 280.471 352.704C280.471 351.967 280.741 351.416 281.283 351.052C281.824 350.688 282.557 350.506 283.481 350.506H285.511V350.226C285.511 349.237 284.96 348.742 283.859 348.742C283.168 348.742 282.449 348.994 281.703 349.498L281.003 348.518C281.908 347.799 282.935 347.44 284.083 347.44C284.96 347.44 285.674 347.664 286.225 348.112C286.785 348.551 287.065 349.246 287.065 350.198V355ZM285.497 352.228V351.598H283.733C282.603 351.598 282.039 351.953 282.039 352.662C282.039 353.026 282.179 353.306 282.459 353.502C282.739 353.689 283.126 353.782 283.621 353.782C284.125 353.782 284.563 353.642 284.937 353.362C285.31 353.082 285.497 352.704 285.497 352.228ZM291.015 350.968V355H289.447V347.552H291.015V348.91C291.267 348.453 291.613 348.093 292.051 347.832C292.499 347.571 292.98 347.44 293.493 347.44C294.333 347.44 295.01 347.697 295.523 348.21C296.046 348.723 296.307 349.465 296.307 350.436V355H294.739V350.912C294.739 349.54 294.17 348.854 293.031 348.854C292.49 348.854 292.019 349.036 291.617 349.4C291.216 349.755 291.015 350.277 291.015 350.968ZM300.266 355H298.698V347.552H300.266V355ZM298.796 346.068C298.6 345.872 298.502 345.639 298.502 345.368C298.502 345.097 298.6 344.864 298.796 344.668C298.992 344.472 299.226 344.374 299.496 344.374C299.767 344.374 300 344.472 300.196 344.668C300.392 344.864 300.49 345.097 300.49 345.368C300.49 345.639 300.392 345.872 300.196 346.068C300 346.264 299.767 346.362 299.496 346.362C299.226 346.362 298.992 346.264 298.796 346.068ZM306.044 355.112C305.008 355.112 304.117 354.762 303.37 354.062C302.623 353.353 302.25 352.429 302.25 351.29C302.25 350.151 302.637 349.227 303.412 348.518C304.196 347.799 305.148 347.44 306.268 347.44C307.388 347.44 308.335 347.827 309.11 348.602L308.186 349.736C307.542 349.176 306.893 348.896 306.24 348.896C305.587 348.896 305.017 349.115 304.532 349.554C304.056 349.983 303.818 350.543 303.818 351.234C303.818 351.915 304.056 352.494 304.532 352.97C305.008 353.446 305.591 353.684 306.282 353.684C306.982 353.684 307.64 353.367 308.256 352.732L309.18 353.74C308.275 354.655 307.229 355.112 306.044 355.112ZM316.258 352.774C316.258 353.483 316.001 354.053 315.488 354.482C314.974 354.902 314.316 355.112 313.514 355.112C312.972 355.112 312.408 355.014 311.82 354.818C311.241 354.622 310.728 354.347 310.28 353.992L311.036 352.774C311.904 353.427 312.744 353.754 313.556 353.754C313.91 353.754 314.19 353.675 314.396 353.516C314.601 353.348 314.704 353.138 314.704 352.886C314.704 352.513 314.209 352.177 313.22 351.878C313.145 351.85 313.089 351.831 313.052 351.822C311.502 351.402 310.728 350.702 310.728 349.722C310.728 349.031 310.994 348.481 311.526 348.07C312.067 347.65 312.767 347.44 313.626 347.44C314.484 347.44 315.296 347.692 316.062 348.196L315.474 349.358C314.867 348.957 314.209 348.756 313.5 348.756C313.126 348.756 312.823 348.826 312.59 348.966C312.356 349.097 312.24 349.297 312.24 349.568C312.24 349.811 312.361 349.988 312.604 350.1C312.772 350.184 313.005 350.263 313.304 350.338C313.612 350.413 313.882 350.487 314.116 350.562C314.349 350.637 314.573 350.721 314.788 350.814C315.012 350.907 315.25 351.038 315.502 351.206C316.006 351.542 316.258 352.065 316.258 352.774Z" fill="#737373"/>
</g>
<g clip-path="url(#clip1_232_559)">
<path d="M164.142 456.948L173.059 457.136C169.986 456.056 167.006 454.742 164.142 453.192V456.948ZM177.575 455.704V456.948L173.059 457.136C181.556 460.07 189.332 460.469 195.106 458.826C190.473 458.873 184.443 458.216 177.575 455.704ZM272.772 428.662C276.474 428.662 279.501 425.634 279.501 421.878C279.501 418.122 276.497 416.127 272.772 416.127C269.071 416.127 266.044 418.145 266.044 421.878C266.044 425.61 269.047 428.662 272.772 428.662ZM266.021 456.948H279.501V431.009H266.021V456.948ZM248.862 456.948H262.342V411.103L248.862 417.512V456.948ZM241.645 428.92C237.408 424.648 229.911 424.906 229.911 424.906C229.911 424.906 222.392 424.648 218.178 428.92C213.941 433.192 214.266 436.878 214.266 441.267C214.266 445.657 213.941 449.319 218.178 453.591C222.415 457.864 229.911 457.605 229.911 457.605C229.911 457.605 237.431 457.864 241.645 453.591C245.882 449.319 245.556 445.657 245.556 441.267C245.533 436.854 245.859 433.169 241.645 428.92ZM232.379 445.798C232.379 446.643 231.96 448.732 229.888 448.732C227.816 448.732 227.397 446.643 227.397 445.798V436.314C227.397 434.272 229.097 433.756 229.888 433.756C230.68 433.756 232.379 434.249 232.379 436.314V445.798ZM207.655 428.92C203.417 424.648 195.921 424.906 195.921 424.906C195.921 424.906 188.424 424.648 184.187 428.92C183.745 429.366 183.326 429.835 182.953 430.328C174.06 423.38 166.074 419.413 159.183 415.986V411.127L153.945 413.615C141.28 408.427 133.224 409.342 131.292 413.638C131.292 413.638 125.495 421.338 145.68 439.648V456.948H159.16V450.235C157.646 449.249 156.133 448.192 154.643 447.042C151.198 444.413 148.264 441.972 145.703 439.671V432.394C148.753 435.845 152.804 439.765 158.135 444.202L159.183 445.047V438.051C159.183 436.432 159.579 433.779 161.697 433.779C163.816 433.779 164.165 435.399 164.165 437.3V448.732C168.356 451.596 172.849 453.92 177.599 455.681V433.638C177.599 429.249 174.479 424.859 168.146 424.859C164.468 424.835 161.046 426.784 159.183 430V417.253C168.938 422.159 178.716 428.169 182.441 430.939C180.066 434.366 180.276 437.535 180.276 441.197C180.276 445.587 179.95 449.249 184.187 453.521C188.424 457.793 195.921 457.535 195.921 457.535C195.921 457.535 203.441 457.793 207.655 453.521C211.892 449.249 211.543 445.587 211.543 441.197C211.543 436.854 211.892 433.169 207.655 428.92ZM145.68 417.512V432.371C134.342 419.577 136.624 414.53 137.485 413.803C140.628 411.127 146.215 411.925 152.478 414.296L145.68 417.512ZM198.412 445.798C198.412 446.643 197.993 448.732 195.921 448.732C193.849 448.732 193.43 446.643 193.43 445.798V436.314C193.43 434.272 195.129 433.756 195.921 433.756C196.712 433.756 198.412 434.249 198.412 436.314V445.798Z" fill="#737373"/>
</g>
<g clip-path="url(#clip2_232_559)">
<path d="M135.5 521.67H156.621V578.746C156.621 587.798 160.694 593.185 164.006 595.428C160.558 598.464 150.106 601.144 142.233 594.662C137.618 590.833 135.5 584.461 135.5 578.527V521.67ZM267.414 569.119V563.103H273.876V542.099H266.79C264.048 529.437 252.89 520.029 239.56 520.029C224.194 520.029 211.679 532.609 211.679 548.116V597.123C216.022 597.752 221.289 597.041 225.714 593.295C230.357 589.466 232.447 583.121 232.447 577.159V575.327H242.981V554.324H232.447V547.952C232.447 538.489 246.619 538.489 246.619 547.952V569.037C246.619 584.516 259.107 597.123 274.5 597.123V576.202C270.563 576.202 267.414 573.002 267.414 569.119ZM187.516 542.044V572.948C187.516 577.159 181.055 577.159 181.055 572.948V542.044H160.205V578.335C160.205 584.844 162.377 593.103 172.422 595.811C182.467 598.491 188.222 592.912 188.222 592.912C187.652 596.577 184.286 599.284 178.747 599.831C174.539 600.269 169.191 598.846 166.531 597.698V616.923C173.345 618.975 180.512 619.604 187.598 618.209C200.385 615.72 208.448 604.972 208.448 590.642V541.908H187.516V542.044Z" fill="#737373"/>
</g>
<g clip-path="url(#clip3_232_559)">
<path d="M279.5 679.212C260.689 691.83 258.687 700.988 257.057 703.79C255.497 706.662 254.333 717.986 251.632 723.471C248.908 729.027 239.014 733.406 236.243 735.242C233.52 737.078 229.655 744.212 226.489 750.356C201.322 749.32 187.516 759.491 166.144 772.392C172.988 770.108 176.224 768.46 176.224 768.46C198.155 759.985 208.655 752.381 241.668 756.877C241.924 756.877 242.11 757.019 242.32 757.066C243.228 757.584 243.554 758.69 243.042 759.608L230.493 782.162C229.911 783.268 228.677 783.857 227.443 783.598C197.922 777.995 174.618 787.67 153.199 787.976C136.111 788.235 130.5 780.09 130.5 779.713C130.5 779.454 130.64 779.313 130.896 779.313C130.896 779.313 139.812 779.313 154.899 775.711C172.034 742.681 187.306 731.122 203.929 731.122C203.929 731.122 220.622 731.122 225.022 745.695C230.33 736.349 231.61 734.112 231.61 734.112C232.844 731.899 239.759 715.938 251.725 700.824C263.715 685.757 272.772 682.013 279.5 679.212Z" fill="#737373"/>
</g>
<g clip-path="url(#clip4_232_559)">
<g clip-path="url(#clip5_232_559)">
<path d="M168.916 852.705L158.835 854.795L158.788 887.159C158.788 893.136 163.398 897 169.521 897C172.92 897 175.411 896.386 176.785 895.659V887.977C175.458 888.5 168.939 890.364 168.939 884.409V870.045H176.785V861.455H168.939L168.916 852.705ZM189.659 864.432L189.031 861.455H180.091V896.273H190.404V872.841C192.849 869.705 196.97 870.318 198.297 870.727V861.455C196.9 860.977 192.081 860.091 189.659 864.432ZM211.148 848L200.764 850.159V858.386L211.148 856.227V848ZM140.955 871.705C140.955 870.136 142.305 869.523 144.47 869.5C147.613 869.5 151.618 870.432 154.761 872.091V862.591C151.338 861.273 147.916 860.75 144.494 860.75C136.112 860.75 130.525 865.023 130.525 872.159C130.525 883.341 146.24 881.523 146.24 886.341C146.24 888.205 144.587 888.818 142.282 888.818C138.86 888.818 134.436 887.432 130.967 885.591V894.682C134.809 896.295 138.697 896.977 142.259 896.977C150.849 896.977 156.763 893.386 156.763 886.114C156.763 874.091 140.955 876.25 140.955 871.705ZM279.502 879.273C279.502 868.932 274.38 860.773 264.555 860.773C254.73 860.773 248.747 868.932 248.747 879.205C248.747 891.364 255.801 896.977 265.859 896.977C270.794 896.977 274.496 895.886 277.313 894.364V886.773C274.496 888.159 271.26 889 267.163 889C263.135 889 259.596 887.614 259.131 882.886H279.362C279.408 882.364 279.502 880.25 279.502 879.273ZM259.037 875.455C259.037 870.909 261.901 869 264.485 869C267.023 869 269.723 870.909 269.723 875.455H259.037ZM232.753 860.773C228.702 860.773 226.094 862.636 224.651 863.932L224.116 861.432H215.013V907.977L225.349 905.841L225.373 894.432C226.863 895.5 229.074 896.977 232.683 896.977C240.086 896.977 246.838 891.705 246.838 878.886C246.861 867.159 240.017 860.773 232.753 860.773ZM230.285 888.614C227.864 888.614 226.42 887.75 225.419 886.705L225.349 871.705C226.42 870.545 227.91 869.705 230.285 869.705C234.057 869.705 236.664 873.841 236.664 879.114C236.687 884.545 234.126 888.614 230.285 888.614ZM200.788 896.273H211.171V861.455H200.788V896.273Z" fill="#737373"/>
</g>
</g>
<g clip-path="url(#clip6_232_559)">
<g clip-path="url(#clip7_232_559)">
<path d="M171.733 1001.37C171.562 1006.77 174.259 1009.16 174.326 1010.68C174.294 1010.99 174.189 1011.28 174.019 1011.54C173.849 1011.8 173.619 1012.02 173.349 1012.17L170.299 1014.31C169.904 1014.58 169.438 1014.74 168.957 1014.76C168.854 1014.76 167.005 1015.2 164.076 1008.66C162.289 1010.89 160.015 1012.68 157.429 1013.9C154.843 1015.12 152.013 1015.73 149.155 1015.68C145.275 1015.89 134.761 1013.48 135.302 1002.28C134.923 993.159 143.419 987.491 152.205 987.971C153.897 987.975 157.353 988.059 163.404 989.465V985.742C164.045 979.436 159.901 974.542 152.725 975.276C152.153 975.279 148.102 975.157 141.8 977.686C140.046 978.492 139.822 978.358 139.239 978.358C137.473 978.358 138.199 973.239 138.538 972.59C139.78 971.065 147.084 968.217 154.253 968.257C159.046 967.833 163.813 969.313 167.524 972.376C169.033 974.064 170.184 976.039 170.908 978.184C171.632 980.329 171.913 982.599 171.736 984.855L171.733 1001.37ZM151.138 1009.09C158.866 1008.98 162.139 1004.33 162.884 1001.83C163.471 999.432 163.373 997.917 163.373 995.297C161.068 994.744 157.751 994.141 153.945 994.136C150.335 993.865 143.74 995.478 143.998 1001.83C143.702 1005.83 146.648 1009.31 151.138 1009.09ZM191.871 1014.58C189.998 1014.76 189.126 1013.43 188.849 1012.11L176.981 972.869C176.75 972.207 176.597 971.523 176.523 970.824C176.48 970.536 176.552 970.243 176.724 970.008C176.897 969.774 177.155 969.617 177.443 969.573C177.5 969.563 176.936 969.573 182.746 969.573C184.838 969.363 185.52 971.01 185.737 972.045L194.249 1005.61L202.152 972.045C202.278 971.277 202.853 969.406 205.203 969.604H209.292C209.809 969.561 211.94 969.485 212.314 972.076L220.278 1006.07L229.065 972.076C229.18 971.556 229.713 969.366 232.087 969.604H236.787C236.989 969.573 238.252 969.411 238.038 971.649C237.935 972.09 238.851 969.108 225.467 1012.14C225.193 1013.46 224.318 1014.79 222.445 1014.61H217.991C215.383 1014.89 215.009 1012.31 214.969 1012.05L207.066 979.369L199.254 1012.02C199.216 1012.28 198.842 1014.86 196.232 1014.58H191.871V1014.58ZM257.046 1015.93C255.645 1015.93 248.962 1015.85 243.376 1013C242.82 1012.76 242.346 1012.37 242.014 1011.86C241.683 1011.35 241.509 1010.76 241.515 1010.16V1007.6C241.515 1005.58 242.993 1005.95 243.619 1006.19C246.012 1007.16 247.547 1007.89 250.485 1008.48C259.22 1010.27 263.061 1007.93 264.003 1007.41C267.137 1005.55 267.384 1001.29 265.254 999.082C262.756 996.987 261.565 996.908 252.592 994.077C251.486 993.769 242.178 990.833 242.156 981.597C242.011 974.867 248.126 968.207 258.724 968.262C261.743 968.26 269.789 969.246 271.967 971.985C272.289 972.483 272.449 973.069 272.425 973.663V976.073C272.425 977.131 272.039 977.66 271.264 977.66C269.427 977.455 266.167 974.998 259.548 975.098C257.906 975.012 250.042 975.315 250.395 981.049C250.292 985.568 256.736 987.263 257.473 987.458C266.162 990.073 269.067 990.507 272.515 994.508C276.6 999.811 274.398 1006.02 273.552 1007.72C269.005 1016.66 257.246 1015.93 257.046 1015.93ZM266.627 1040.92C249.937 1053.25 225.71 1059.81 205.024 1059.81C177.112 1059.99 150.141 1049.73 129.413 1031.03C127.856 1029.63 129.229 1027.7 131.121 1028.77C154.115 1041.93 180.149 1048.84 206.64 1048.82C226.422 1048.72 245.988 1044.7 264.215 1037.01C267.022 1035.82 269.403 1038.87 266.627 1040.92ZM273.583 1032.98C271.448 1030.24 259.456 1031.7 254.086 1032.34C252.468 1032.53 252.194 1031.12 253.66 1030.09C263.209 1023.37 278.893 1025.29 280.694 1027.55C282.494 1029.81 280.206 1045.53 271.267 1053.03C269.894 1054.19 268.581 1053.58 269.191 1052.06C271.202 1046.99 275.718 1035.73 273.583 1032.98Z" fill="#737373"/>
</g>
</g>
<g clip-path="url(#clip8_232_559)">
<path d="M262.69 1174.55C257.995 1174.55 253.863 1176.52 250.827 1179.58C239.652 1171.77 224.595 1166.74 207.911 1166.21L216.582 1126.74L244.19 1133C244.19 1139.83 249.7 1145.4 256.461 1145.4C263.348 1145.4 268.888 1139.67 268.888 1132.84C268.888 1126.01 263.379 1120.28 256.461 1120.28C251.64 1120.28 247.477 1123.23 245.411 1127.24L214.923 1120.41C213.389 1120 211.886 1121.11 211.479 1122.66L201.963 1166.17C185.404 1166.87 170.504 1171.9 159.298 1179.71C156.262 1176.52 151.973 1174.55 147.278 1174.55C129.874 1174.55 124.177 1198.15 140.11 1206.21C139.546 1208.71 139.296 1211.37 139.296 1214.02C139.296 1240.53 168.845 1262 205.125 1262C241.561 1262 271.111 1240.53 271.111 1214.02C271.111 1211.37 270.829 1208.58 270.14 1206.09C285.76 1197.99 280.001 1174.55 262.69 1174.55ZM165.371 1207.89C165.371 1200.93 170.88 1195.33 177.798 1195.33C184.559 1195.33 190.068 1200.9 190.068 1207.89C190.068 1214.72 184.559 1220.29 177.798 1220.29C170.911 1220.32 165.371 1214.72 165.371 1207.89ZM232.452 1237.46C221.058 1248.97 188.91 1248.97 177.516 1237.46C176.264 1236.35 176.264 1234.39 177.516 1233.13C178.612 1232.02 180.552 1232.02 181.648 1233.13C190.35 1242.14 219.211 1242.3 228.289 1233.13C229.384 1232.02 231.325 1232.02 232.421 1233.13C233.704 1234.39 233.704 1236.35 232.452 1237.46ZM232.202 1220.32C225.44 1220.32 219.931 1214.75 219.931 1207.92C219.931 1200.96 225.44 1195.36 232.202 1195.36C239.088 1195.36 244.629 1200.93 244.629 1207.92C244.597 1214.72 239.088 1220.32 232.202 1220.32Z" fill="#737373"/>
</g>
<defs>
<clipPath id="clip0_232_559">
<rect width="318" height="240" fill="white" transform="translate(46 120)"/>
</clipPath>
<clipPath id="clip1_232_559">
<rect width="149" height="50" fill="white" transform="translate(130.5 410)"/>
</clipPath>
<clipPath id="clip2_232_559">
<rect width="139" height="99" fill="white" transform="translate(135.5 520)"/>
</clipPath>
<clipPath id="clip3_232_559">
<rect width="149" height="109" fill="white" transform="translate(130.5 679)"/>
</clipPath>
<clipPath id="clip4_232_559">
<rect width="149" height="60" fill="white" transform="translate(130.5 848)"/>
</clipPath>
<clipPath id="clip5_232_559">
<rect width="149" height="60" fill="white" transform="translate(130.5 848)"/>
</clipPath>
<clipPath id="clip6_232_559">
<rect width="151" height="92" fill="white" transform="translate(129.5 968)"/>
</clipPath>
<clipPath id="clip7_232_559">
<rect width="153" height="92" fill="white" transform="translate(128.5 968)"/>
</clipPath>
<clipPath id="clip8_232_559">
<rect width="149" height="142" fill="white" transform="translate(130.5 1120)"/>
</clipPath>
</defs>
</svg>
