<svg width="1051" height="72" viewBox="0 0 1051 72" fill="none" xmlns="http://www.w3.org/2000/svg">
<path d="M305.487 41H309.771C312.949 41 315.119 39.04 315.119 36.1C315.119 33.16 312.949 31.2 309.771 31.2H305.487V41ZM307.307 39.46V32.74H309.687C311.871 32.74 313.285 34.07 313.285 36.1C313.285 38.13 311.871 39.46 309.687 39.46H307.307ZM324.113 37.304C324.113 34.966 322.517 33.44 320.333 33.44C318.107 33.44 316.469 35.036 316.469 37.262C316.469 39.488 318.093 41.098 320.599 41.098C321.887 41.098 322.937 40.678 323.609 39.88L322.671 38.802C322.139 39.348 321.481 39.614 320.641 39.614C319.339 39.614 318.429 38.914 318.219 37.822H324.085C324.099 37.654 324.113 37.444 324.113 37.304ZM320.333 34.84C321.481 34.84 322.307 35.582 322.447 36.66H318.205C318.373 35.568 319.199 34.84 320.333 34.84ZM328.304 41.098C330.404 41.098 331.692 40.188 331.692 38.788C331.692 35.862 327.072 37.206 327.072 35.694C327.072 35.204 327.576 34.854 328.64 34.854C329.354 34.854 330.068 34.994 330.782 35.414L331.454 34.084C330.782 33.678 329.648 33.44 328.654 33.44C326.638 33.44 325.364 34.364 325.364 35.778C325.364 38.76 329.984 37.416 329.984 38.844C329.984 39.362 329.522 39.67 328.416 39.67C327.478 39.67 326.47 39.362 325.812 38.928L325.14 40.258C325.812 40.734 327.058 41.098 328.304 41.098ZM336.829 41.098C338.285 41.098 339.447 40.468 340.021 39.348L338.677 38.564C338.229 39.278 337.557 39.6 336.815 39.6C335.527 39.6 334.547 38.718 334.547 37.262C334.547 35.82 335.527 34.924 336.815 34.924C337.557 34.924 338.229 35.246 338.677 35.96L340.021 35.176C339.447 34.042 338.285 33.44 336.829 33.44C334.463 33.44 332.783 35.022 332.783 37.262C332.783 39.502 334.463 41.098 336.829 41.098ZM343.4 34.616V33.524H341.734V41H343.484V37.374C343.484 35.848 344.324 35.064 345.654 35.064C345.78 35.064 345.906 35.078 346.06 35.106V33.44C344.814 33.44 343.904 33.832 343.4 34.616ZM348.627 32.292C349.285 32.292 349.747 31.816 349.747 31.2C349.747 30.626 349.271 30.192 348.627 30.192C347.983 30.192 347.507 30.654 347.507 31.242C347.507 31.83 347.983 32.292 348.627 32.292ZM347.745 41H349.495V33.524H347.745V41ZM356.136 33.44C355.114 33.44 354.246 33.79 353.658 34.504V33.524H351.992V43.716H353.742V40.09C354.344 40.776 355.184 41.098 356.136 41.098C358.32 41.098 359.93 39.586 359.93 37.262C359.93 34.952 358.32 33.44 356.136 33.44ZM355.94 39.6C354.68 39.6 353.714 38.69 353.714 37.262C353.714 35.834 354.68 34.924 355.94 34.924C357.2 34.924 358.152 35.834 358.152 37.262C358.152 38.69 357.2 39.6 355.94 39.6ZM365.793 39.348C365.527 39.558 365.177 39.656 364.813 39.656C364.141 39.656 363.777 39.264 363.777 38.536V34.98H365.779V33.58H363.777V31.872H362.027V33.58H360.795V34.98H362.027V38.578C362.027 40.23 362.965 41.098 364.603 41.098C365.233 41.098 365.863 40.93 366.283 40.594L365.793 39.348ZM368.805 32.292C369.463 32.292 369.925 31.816 369.925 31.2C369.925 30.626 369.449 30.192 368.805 30.192C368.161 30.192 367.685 30.654 367.685 31.242C367.685 31.83 368.161 32.292 368.805 32.292ZM367.923 41H369.673V33.524H367.923V41ZM375.53 41.098C377.854 41.098 379.52 39.502 379.52 37.262C379.52 35.022 377.854 33.44 375.53 33.44C373.234 33.44 371.554 35.022 371.554 37.262C371.554 39.502 373.234 41.098 375.53 41.098ZM375.53 39.6C374.27 39.6 373.318 38.69 373.318 37.262C373.318 35.834 374.27 34.924 375.53 34.924C376.804 34.924 377.756 35.834 377.756 37.262C377.756 38.69 376.804 39.6 375.53 39.6ZM385.635 33.44C384.543 33.44 383.633 33.804 383.059 34.49V33.524H381.393V41H383.143V37.22C383.143 35.722 383.983 34.966 385.229 34.966C386.349 34.966 387.007 35.61 387.007 36.94V41H388.757V36.716C388.757 34.462 387.427 33.44 385.635 33.44Z" fill="#737373"/>
<path d="M446.671 41H449.051L444.669 31.2H442.429L438.061 41H440.385L441.253 38.9H445.803L446.671 41ZM441.981 37.178L443.535 33.426L445.089 37.178H441.981ZM455.534 30.612V34.266C454.988 33.65 454.204 33.356 453.28 33.356C451.152 33.356 449.514 34.868 449.514 37.234C449.514 39.6 451.152 41.112 453.28 41.112C454.288 41.112 455.086 40.79 455.632 40.132V41H457.718V30.612H455.534ZM453.658 39.32C452.566 39.32 451.726 38.536 451.726 37.234C451.726 35.932 452.566 35.148 453.658 35.148C454.736 35.148 455.576 35.932 455.576 37.234C455.576 38.536 454.736 39.32 453.658 39.32ZM465.427 30.612V34.266C464.881 33.65 464.097 33.356 463.173 33.356C461.045 33.356 459.407 34.868 459.407 37.234C459.407 39.6 461.045 41.112 463.173 41.112C464.181 41.112 464.979 40.79 465.525 40.132V41H467.611V30.612H465.427ZM463.551 39.32C462.459 39.32 461.619 38.536 461.619 37.234C461.619 35.932 462.459 35.148 463.551 35.148C464.629 35.148 465.469 35.932 465.469 37.234C465.469 38.536 464.629 39.32 463.551 39.32ZM470.924 32.418C471.736 32.418 472.282 31.886 472.282 31.158C472.282 30.486 471.736 29.982 470.924 29.982C470.112 29.982 469.566 30.514 469.566 31.2C469.566 31.886 470.112 32.418 470.924 32.418ZM469.832 41H472.016V33.468H469.832V41ZM478.513 39.096C478.275 39.278 477.953 39.376 477.631 39.376C477.043 39.376 476.693 39.026 476.693 38.382V35.316H478.569V33.636H476.693V31.802H474.509V33.636H473.347V35.316H474.509V38.41C474.509 40.202 475.545 41.112 477.323 41.112C477.995 41.112 478.653 40.958 479.101 40.636L478.513 39.096ZM481.619 32.418C482.431 32.418 482.977 31.886 482.977 31.158C482.977 30.486 482.431 29.982 481.619 29.982C480.807 29.982 480.261 30.514 480.261 31.2C480.261 31.886 480.807 32.418 481.619 32.418ZM480.527 41H482.711V33.468H480.527V41ZM488.522 41.112C490.916 41.112 492.652 39.502 492.652 37.234C492.652 34.966 490.916 33.356 488.522 33.356C486.128 33.356 484.378 34.966 484.378 37.234C484.378 39.502 486.128 41.112 488.522 41.112ZM488.522 39.32C487.43 39.32 486.59 38.536 486.59 37.234C486.59 35.932 487.43 35.148 488.522 35.148C489.614 35.148 490.44 35.932 490.44 37.234C490.44 38.536 489.614 39.32 488.522 39.32ZM498.89 33.356C497.868 33.356 496.986 33.706 496.398 34.35V33.468H494.312V41H496.496V37.276C496.496 35.89 497.252 35.246 498.302 35.246C499.268 35.246 499.828 35.806 499.828 37.024V41H502.012V36.688C502.012 34.392 500.668 33.356 498.89 33.356ZM507.23 33.356C506.026 33.356 504.808 33.678 503.982 34.266L504.766 35.792C505.312 35.358 506.138 35.092 506.936 35.092C508.112 35.092 508.672 35.638 508.672 36.576H506.936C504.64 36.576 503.702 37.5 503.702 38.83C503.702 40.132 504.752 41.112 506.516 41.112C507.622 41.112 508.406 40.748 508.812 40.062V41H510.856V36.702C510.856 34.42 509.526 33.356 507.23 33.356ZM507.062 39.642C506.292 39.642 505.83 39.278 505.83 38.732C505.83 38.228 506.152 37.85 507.174 37.85H508.672V38.62C508.42 39.306 507.79 39.642 507.062 39.642ZM513.032 41H515.216V30.612H513.032V41ZM521.762 41H524.03V31.2H521.762V41ZM530.98 33.356C529.958 33.356 529.076 33.706 528.488 34.35V33.468H526.402V41H528.586V37.276C528.586 35.89 529.342 35.246 530.392 35.246C531.358 35.246 531.918 35.806 531.918 37.024V41H534.102V36.688C534.102 34.392 532.758 33.356 530.98 33.356ZM538.675 33.314C538.675 32.572 539.025 32.222 539.669 32.222C540.005 32.222 540.313 32.32 540.551 32.488L541.125 30.906C540.719 30.626 540.075 30.5 539.459 30.5C537.583 30.5 536.547 31.606 536.547 33.3V33.636H535.385V35.316H536.547V41H538.731V35.316H540.607V33.636H538.675V33.314ZM545.384 41.112C547.778 41.112 549.514 39.502 549.514 37.234C549.514 34.966 547.778 33.356 545.384 33.356C542.99 33.356 541.24 34.966 541.24 37.234C541.24 39.502 542.99 41.112 545.384 41.112ZM545.384 39.32C544.292 39.32 543.452 38.536 543.452 37.234C543.452 35.932 544.292 35.148 545.384 35.148C546.476 35.148 547.302 35.932 547.302 37.234C547.302 38.536 546.476 39.32 545.384 39.32ZM553.26 34.462V33.468H551.174V41H553.358V37.444C553.358 36.002 554.156 35.344 555.36 35.344C555.528 35.344 555.668 35.358 555.85 35.372V33.356C554.688 33.356 553.792 33.734 553.26 34.462ZM566.994 33.356C565.86 33.356 564.88 33.818 564.278 34.588C563.746 33.762 562.85 33.356 561.8 33.356C560.834 33.356 559.994 33.692 559.434 34.336V33.468H557.348V41H559.532V37.22C559.532 35.876 560.218 35.246 561.184 35.246C562.094 35.246 562.612 35.806 562.612 37.024V41H564.796V37.22C564.796 35.876 565.482 35.246 566.462 35.246C567.344 35.246 567.89 35.806 567.89 37.024V41H570.074V36.688C570.074 34.392 568.786 33.356 566.994 33.356ZM575.27 33.356C574.066 33.356 572.848 33.678 572.022 34.266L572.806 35.792C573.352 35.358 574.178 35.092 574.976 35.092C576.152 35.092 576.712 35.638 576.712 36.576H574.976C572.68 36.576 571.742 37.5 571.742 38.83C571.742 40.132 572.792 41.112 574.556 41.112C575.662 41.112 576.446 40.748 576.852 40.062V41H578.896V36.702C578.896 34.42 577.566 33.356 575.27 33.356ZM575.102 39.642C574.332 39.642 573.87 39.278 573.87 38.732C573.87 38.228 574.192 37.85 575.214 37.85H576.712V38.62C576.46 39.306 575.83 39.642 575.102 39.642ZM585.342 39.096C585.104 39.278 584.782 39.376 584.46 39.376C583.872 39.376 583.522 39.026 583.522 38.382V35.316H585.398V33.636H583.522V31.802H581.338V33.636H580.176V35.316H581.338V38.41C581.338 40.202 582.374 41.112 584.152 41.112C584.824 41.112 585.482 40.958 585.93 40.636L585.342 39.096ZM588.448 32.418C589.26 32.418 589.806 31.886 589.806 31.158C589.806 30.486 589.26 29.982 588.448 29.982C587.636 29.982 587.09 30.514 587.09 31.2C587.09 31.886 587.636 32.418 588.448 32.418ZM587.356 41H589.54V33.468H587.356V41ZM595.351 41.112C597.745 41.112 599.481 39.502 599.481 37.234C599.481 34.966 597.745 33.356 595.351 33.356C592.957 33.356 591.207 34.966 591.207 37.234C591.207 39.502 592.957 41.112 595.351 41.112ZM595.351 39.32C594.259 39.32 593.419 38.536 593.419 37.234C593.419 35.932 594.259 35.148 595.351 35.148C596.443 35.148 597.269 35.932 597.269 37.234C597.269 38.536 596.443 39.32 595.351 39.32ZM605.719 33.356C604.697 33.356 603.815 33.706 603.227 34.35V33.468H601.141V41H603.325V37.276C603.325 35.89 604.081 35.246 605.131 35.246C606.097 35.246 606.657 35.806 606.657 37.024V41H608.841V36.688C608.841 34.392 607.497 33.356 605.719 33.356Z" fill="#737373"/>
<path d="M664.89 41L662.692 37.85C663.966 37.304 664.708 36.226 664.708 34.756C664.708 32.558 663.07 31.2 660.452 31.2H656.21V41H658.478V38.27H660.452H660.564L662.454 41H664.89ZM662.412 34.756C662.412 35.82 661.712 36.464 660.326 36.464H658.478V33.048H660.326C661.712 33.048 662.412 33.678 662.412 34.756ZM673.929 37.262C673.929 34.84 672.221 33.356 670.009 33.356C667.713 33.356 665.991 34.98 665.991 37.234C665.991 39.474 667.685 41.112 670.289 41.112C671.647 41.112 672.697 40.692 673.397 39.894L672.235 38.634C671.717 39.124 671.143 39.362 670.345 39.362C669.197 39.362 668.399 38.788 668.189 37.85H673.887C673.901 37.668 673.929 37.43 673.929 37.262ZM670.023 35.008C671.003 35.008 671.717 35.624 671.871 36.576H668.161C668.315 35.61 669.029 35.008 670.023 35.008ZM680.823 33.468L678.667 38.592L676.581 33.468H674.327L677.491 41H679.745L682.923 33.468H680.823ZM685.106 32.418C685.918 32.418 686.464 31.886 686.464 31.158C686.464 30.486 685.918 29.982 685.106 29.982C684.294 29.982 683.748 30.514 683.748 31.2C683.748 31.886 684.294 32.418 685.106 32.418ZM684.014 41H686.198V33.468H684.014V41ZM695.803 37.262C695.803 34.84 694.095 33.356 691.883 33.356C689.587 33.356 687.865 34.98 687.865 37.234C687.865 39.474 689.559 41.112 692.163 41.112C693.521 41.112 694.571 40.692 695.271 39.894L694.109 38.634C693.591 39.124 693.017 39.362 692.219 39.362C691.071 39.362 690.273 38.788 690.063 37.85H695.761C695.775 37.668 695.803 37.43 695.803 37.262ZM691.897 35.008C692.877 35.008 693.591 35.624 693.745 36.576H690.035C690.189 35.61 690.903 35.008 691.897 35.008ZM707.484 33.468L705.65 38.564L703.858 33.468H702.01L700.162 38.564L698.384 33.468H696.326L699.042 41H701.142L702.892 36.324L704.586 41H706.686L709.416 33.468H707.484ZM713.056 41.112C715.31 41.112 716.612 40.118 716.612 38.718C716.612 35.75 712.062 36.996 712.062 35.708C712.062 35.316 712.482 35.008 713.462 35.008C714.148 35.008 714.89 35.148 715.632 35.568L716.36 34.014C715.646 33.594 714.498 33.356 713.462 33.356C711.264 33.356 709.976 34.364 709.976 35.792C709.976 38.802 714.526 37.542 714.526 38.774C714.526 39.194 714.148 39.46 713.14 39.46C712.216 39.46 711.194 39.166 710.522 38.732L709.794 40.3C710.494 40.762 711.782 41.112 713.056 41.112Z" fill="#737373"/>
<path d="M729.743 30.444C729.183 31.2467 728.707 32.2267 728.315 33.384C727.932 34.532 727.741 35.61 727.741 36.618C727.741 37.6167 727.932 38.6947 728.315 39.852C728.707 41.0093 729.183 41.9847 729.743 42.778H727.475C727.017 42.134 726.597 41.2287 726.215 40.062C725.841 38.886 725.655 37.738 725.655 36.618C725.655 35.498 725.841 34.35 726.215 33.174C726.597 31.998 727.017 31.088 727.475 30.444H729.743ZM733.425 33.692C733.117 34.2893 732.963 35.078 732.963 36.058C732.963 37.038 733.117 37.8267 733.425 38.424C733.733 39.0213 734.214 39.32 734.867 39.32C735.52 39.32 736.001 39.0213 736.309 38.424C736.617 37.8267 736.771 37.038 736.771 36.058C736.771 35.078 736.617 34.2893 736.309 33.692C736.001 33.0947 735.52 32.796 734.867 32.796C734.214 32.796 733.733 33.0947 733.425 33.692ZM734.867 41.112C733.514 41.112 732.501 40.6547 731.829 39.74C731.157 38.816 730.821 37.5887 730.821 36.058C730.821 34.518 731.157 33.2907 731.829 32.376C732.501 31.452 733.514 30.99 734.867 30.99C736.22 30.99 737.233 31.452 737.905 32.376C738.577 33.2907 738.913 34.518 738.913 36.058C738.913 37.5887 738.577 38.816 737.905 39.74C737.233 40.6547 736.22 41.112 734.867 41.112ZM740.253 42.778C740.813 41.9847 741.284 41.0093 741.667 39.852C742.059 38.6947 742.255 37.6167 742.255 36.618C742.255 35.61 742.059 34.532 741.667 33.384C741.284 32.2267 740.813 31.2467 740.253 30.444H742.521C742.978 31.088 743.394 31.998 743.767 33.174C744.15 34.35 744.341 35.498 744.341 36.618C744.341 37.738 744.15 38.886 743.767 40.062C743.394 41.2287 742.978 42.134 742.521 42.778H740.253Z" fill="#23856D"/>
</svg>
