<svg width="414" height="879" viewBox="0 0 414 879" fill="none" xmlns="http://www.w3.org/2000/svg">
<path d="M44.408 61H37.064V44.224H43.592C44.728 44.224 45.704 44.36 46.52 44.632C47.352 44.904 47.976 45.272 48.392 45.736C49.144 46.6 49.52 47.576 49.52 48.664C49.52 49.976 49.096 50.952 48.248 51.592C47.96 51.816 47.76 51.96 47.648 52.024C47.536 52.072 47.336 52.16 47.048 52.288C48.088 52.512 48.912 52.984 49.52 53.704C50.144 54.408 50.456 55.288 50.456 56.344C50.456 57.512 50.056 58.544 49.256 59.44C48.328 60.48 46.712 61 44.408 61ZM40.808 51.016H42.584C43.624 51.016 44.392 50.904 44.888 50.68C45.4 50.456 45.656 49.976 45.656 49.24C45.656 48.488 45.424 47.992 44.96 47.752C44.496 47.512 43.712 47.392 42.608 47.392H40.808V51.016ZM40.808 57.832H43.376C44.448 57.832 45.248 57.704 45.776 57.448C46.32 57.176 46.592 56.656 46.592 55.888C46.592 55.104 46.304 54.592 45.728 54.352C45.168 54.096 44.264 53.968 43.016 53.968H40.808V57.832ZM64.3189 61H60.9349V59.44C60.0069 60.608 58.8549 61.192 57.4789 61.192C56.1189 61.192 54.9749 60.8 54.0469 60.016C53.1189 59.216 52.6549 58.16 52.6549 56.848C52.6549 55.52 53.1349 54.528 54.0949 53.872C55.0549 53.216 56.3669 52.888 58.0309 52.888H60.7189V52.816C60.7189 51.44 59.9909 50.752 58.5349 50.752C57.9109 50.752 57.2469 50.88 56.5429 51.136C55.8549 51.376 55.2709 51.68 54.7909 52.048L53.1829 49.72C54.8789 48.488 56.8149 47.872 58.9909 47.872C60.5589 47.872 61.8389 48.264 62.8309 49.048C63.8229 49.832 64.3189 51.072 64.3189 52.768V61ZM60.6949 56.08V55.456H58.4389C56.9989 55.456 56.2789 55.904 56.2789 56.8C56.2789 57.264 56.4469 57.624 56.7829 57.88C57.1349 58.12 57.6309 58.24 58.2709 58.24C58.9109 58.24 59.4709 58.048 59.9509 57.664C60.4469 57.264 60.6949 56.736 60.6949 56.08ZM71.3009 53.8V61H67.7009V48.088H71.3009V49.528C72.3889 48.424 73.6129 47.872 74.9729 47.872C76.3329 47.872 77.4689 48.352 78.3809 49.312C79.3089 50.272 79.7729 51.552 79.7729 53.152V61H76.1729V53.704C76.1729 51.72 75.4449 50.728 73.9889 50.728C73.2689 50.728 72.6369 50.992 72.0929 51.52C71.5649 52.032 71.3009 52.792 71.3009 53.8ZM88.289 61.192C86.769 61.192 85.409 60.544 84.209 59.248C83.009 57.952 82.409 56.344 82.409 54.424C82.409 52.504 82.993 50.936 84.161 49.72C85.329 48.488 86.697 47.872 88.265 47.872C89.833 47.872 91.113 48.424 92.105 49.528V43.192H95.705V61H92.105V59.296C91.097 60.56 89.825 61.192 88.289 61.192ZM86.033 54.568C86.033 55.608 86.345 56.464 86.969 57.136C87.593 57.792 88.321 58.12 89.153 58.12C89.985 58.12 90.689 57.792 91.265 57.136C91.857 56.464 92.153 55.608 92.153 54.568C92.153 53.512 91.857 52.64 91.265 51.952C90.689 51.248 89.977 50.896 89.129 50.896C88.281 50.896 87.553 51.248 86.945 51.952C86.337 52.656 86.033 53.528 86.033 54.568ZM110.181 61H106.797V59.44C105.869 60.608 104.717 61.192 103.341 61.192C101.981 61.192 100.837 60.8 99.9094 60.016C98.9814 59.216 98.5174 58.16 98.5174 56.848C98.5174 55.52 98.9974 54.528 99.9574 53.872C100.917 53.216 102.229 52.888 103.893 52.888H106.581V52.816C106.581 51.44 105.853 50.752 104.397 50.752C103.773 50.752 103.109 50.88 102.405 51.136C101.717 51.376 101.133 51.68 100.653 52.048L99.0454 49.72C100.741 48.488 102.677 47.872 104.853 47.872C106.421 47.872 107.701 48.264 108.693 49.048C109.685 49.832 110.181 51.072 110.181 52.768V61ZM106.557 56.08V55.456H104.301C102.861 55.456 102.141 55.904 102.141 56.8C102.141 57.264 102.309 57.624 102.645 57.88C102.997 58.12 103.493 58.24 104.133 58.24C104.773 58.24 105.333 58.048 105.813 57.664C106.309 57.264 106.557 56.736 106.557 56.08ZM122.611 54.28C122.611 53.24 122.323 52.424 121.747 51.832C121.171 51.24 120.459 50.944 119.611 50.944C118.763 50.944 118.027 51.24 117.403 51.832C116.795 52.424 116.491 53.232 116.491 54.256C116.491 55.28 116.787 56.112 117.379 56.752C117.987 57.376 118.723 57.688 119.587 57.688C120.451 57.688 121.171 57.376 121.747 56.752C122.323 56.128 122.611 55.304 122.611 54.28ZM123.115 58.816C121.979 60.08 120.563 60.712 118.867 60.712C117.187 60.712 115.763 60.144 114.595 59.008C113.443 57.856 112.867 56.328 112.867 54.424C112.867 52.504 113.459 50.936 114.643 49.72C115.843 48.488 117.211 47.872 118.747 47.872C120.283 47.872 121.555 48.504 122.563 49.768V48.064H126.163V59.32C126.163 60.472 125.963 61.496 125.563 62.392C125.163 63.288 124.627 63.992 123.955 64.504C122.627 65.56 121.059 66.088 119.251 66.088C118.291 66.088 117.307 65.928 116.299 65.608C115.307 65.304 114.435 64.864 113.683 64.288L115.075 61.576C116.259 62.472 117.507 62.92 118.819 62.92C120.147 62.92 121.195 62.592 121.963 61.936C122.731 61.28 123.115 60.24 123.115 58.816ZM140.855 59.128C139.399 60.504 137.687 61.192 135.719 61.192C133.767 61.192 132.151 60.592 130.871 59.392C129.591 58.176 128.951 56.552 128.951 54.52C128.951 52.488 129.599 50.872 130.895 49.672C132.207 48.472 133.751 47.872 135.527 47.872C137.303 47.872 138.807 48.408 140.039 49.48C141.287 50.552 141.911 52.024 141.911 53.896V55.816H132.503C132.615 56.52 132.983 57.096 133.607 57.544C134.231 57.992 134.935 58.216 135.719 58.216C136.983 58.216 138.023 57.792 138.839 56.944L140.855 59.128ZM138.263 53.248C138.183 52.48 137.895 51.888 137.399 51.472C136.903 51.056 136.295 50.848 135.575 50.848C134.871 50.848 134.223 51.064 133.631 51.496C133.039 51.928 132.695 52.512 132.599 53.248H138.263Z" fill="#252B42"/>
<path d="M352.571 45H375.429V47.2857H352.571V45ZM358.286 50.7143H375.429V53H358.286V50.7143ZM365.429 56.4286H375.429V58.7143H365.429V56.4286Z" fill="#737373"/>
<g clip-path="url(#clip0_1_6429)">
<path d="M163.187 182V161.03H166.727V170.12H177.137V161.03H180.677V182H177.137V173.42H166.727V182H163.187ZM189.947 177.8C190.907 178.76 192.117 179.24 193.577 179.24C195.037 179.24 196.237 178.76 197.177 177.8C198.137 176.82 198.617 175.56 198.617 174.02C198.617 172.48 198.137 171.23 197.177 170.27C196.237 169.29 195.037 168.8 193.577 168.8C192.117 168.8 190.907 169.29 189.947 170.27C189.007 171.23 188.537 172.48 188.537 174.02C188.537 175.56 189.007 176.82 189.947 177.8ZM199.577 179.87C197.977 181.45 195.977 182.24 193.577 182.24C191.177 182.24 189.177 181.45 187.577 179.87C185.977 178.27 185.177 176.32 185.177 174.02C185.177 171.72 185.977 169.78 187.577 168.2C189.177 166.6 191.177 165.8 193.577 165.8C195.977 165.8 197.977 166.6 199.577 168.2C201.177 169.78 201.977 171.72 201.977 174.02C201.977 176.32 201.177 178.27 199.577 179.87ZM209.358 173.36V182H205.998V166.04H209.358V168.95C209.838 167.97 210.558 167.2 211.518 166.64C212.498 166.08 213.548 165.8 214.668 165.8C217.188 165.8 218.898 166.84 219.798 168.92C221.378 166.84 223.348 165.8 225.708 165.8C227.508 165.8 228.958 166.35 230.058 167.45C231.178 168.55 231.738 170.14 231.738 172.22V182H228.378V173.24C228.378 170.3 227.158 168.83 224.718 168.83C223.578 168.83 222.578 169.2 221.718 169.94C220.878 170.66 220.438 171.72 220.398 173.12V182H217.038V173.24C217.038 171.72 216.768 170.61 216.228 169.91C215.688 169.19 214.838 168.83 213.678 168.83C212.518 168.83 211.508 169.22 210.648 170C209.788 170.76 209.358 171.88 209.358 173.36ZM251.458 175.49H238.948C239.028 176.65 239.558 177.59 240.538 178.31C241.518 179.01 242.638 179.36 243.898 179.36C245.898 179.36 247.418 178.73 248.458 177.47L250.378 179.57C248.658 181.35 246.418 182.24 243.658 182.24C241.418 182.24 239.508 181.5 237.928 180.02C236.368 178.52 235.588 176.52 235.588 174.02C235.588 171.5 236.388 169.5 237.988 168.02C239.588 166.54 241.468 165.8 243.628 165.8C245.808 165.8 247.658 166.46 249.178 167.78C250.698 169.08 251.458 170.88 251.458 173.18V175.49ZM238.948 172.85H248.098C248.098 171.51 247.678 170.48 246.838 169.76C245.998 169.04 244.958 168.68 243.718 168.68C242.498 168.68 241.398 169.06 240.418 169.82C239.438 170.56 238.948 171.57 238.948 172.85Z" fill="#252B42"/>
<path d="M176.431 257.18C181.801 257.18 184.261 254.54 184.261 251.45C184.261 243.8 171.331 247.28 171.331 241.52C171.331 239.42 173.041 237.71 176.881 237.71C178.741 237.71 180.841 238.28 182.641 239.45L183.391 237.68C181.711 236.51 179.251 235.82 176.881 235.82C171.541 235.82 169.141 238.49 169.141 241.58C169.141 249.35 182.071 245.81 182.071 251.57C182.071 253.64 180.361 255.29 176.431 255.29C173.671 255.29 171.001 254.21 169.501 252.74L168.631 254.45C170.191 256.07 173.281 257.18 176.431 257.18ZM196.888 241.1C194.218 241.1 192.148 242.15 190.978 243.98V234.74H188.848V257H190.978V248.72C190.978 245.12 193.108 243.02 196.498 243.02C199.498 243.02 201.238 244.73 201.238 248.06V257H203.368V247.85C203.368 243.32 200.728 241.1 196.888 241.1ZM215.859 257.15C220.479 257.15 223.869 253.79 223.869 249.11C223.869 244.43 220.479 241.1 215.859 241.1C211.239 241.1 207.819 244.43 207.819 249.11C207.819 253.79 211.239 257.15 215.859 257.15ZM215.859 255.26C212.499 255.26 209.979 252.8 209.979 249.11C209.979 245.42 212.499 242.96 215.859 242.96C219.219 242.96 221.709 245.42 221.709 249.11C221.709 252.8 219.219 255.26 215.859 255.26ZM236.547 241.1C233.937 241.1 231.747 242.24 230.457 244.34V241.22H228.417V262.82H230.547V254.03C231.867 256.07 234.027 257.15 236.547 257.15C241.047 257.15 244.407 253.91 244.407 249.11C244.407 244.34 241.047 241.1 236.547 241.1ZM236.397 255.26C233.037 255.26 230.517 252.8 230.517 249.11C230.517 245.45 233.037 242.96 236.397 242.96C239.727 242.96 242.277 245.45 242.277 249.11C242.277 252.8 239.727 255.26 236.397 255.26Z" fill="#737373"/>
<path d="M178.701 332H181.041L171.441 311H169.251L159.651 332H161.961L164.481 326.39H176.181L178.701 332ZM165.291 324.59L170.331 313.31L175.371 324.59H165.291ZM192.395 316.1C189.875 316.1 187.715 317.18 186.395 319.22V309.74H184.265V332H186.305V328.88C187.595 331.01 189.785 332.15 192.395 332.15C196.895 332.15 200.255 328.88 200.255 324.11C200.255 319.34 196.895 316.1 192.395 316.1ZM192.245 330.26C188.885 330.26 186.365 327.8 186.365 324.11C186.365 320.42 188.885 317.96 192.245 317.96C195.575 317.96 198.125 320.42 198.125 324.11C198.125 327.8 195.575 330.26 192.245 330.26ZM211.247 332.15C215.867 332.15 219.257 328.79 219.257 324.11C219.257 319.43 215.867 316.1 211.247 316.1C206.627 316.1 203.207 319.43 203.207 324.11C203.207 328.79 206.627 332.15 211.247 332.15ZM211.247 330.26C207.887 330.26 205.367 327.8 205.367 324.11C205.367 320.42 207.887 317.96 211.247 317.96C214.607 317.96 217.097 320.42 217.097 324.11C217.097 327.8 214.607 330.26 211.247 330.26ZM235.896 316.22V324.5C235.896 328.1 233.826 330.23 230.526 330.23C227.526 330.23 225.786 328.52 225.786 325.16V316.22H223.656V325.37C223.656 329.9 226.296 332.15 230.316 332.15C232.836 332.15 234.876 331.04 235.986 329.12V332H238.026V316.22H235.896ZM251.751 329.51C251.151 330.05 250.281 330.32 249.411 330.32C247.641 330.32 246.681 329.3 246.681 327.44V318.02H251.481V316.22H246.681V312.77H244.551V316.22H241.731V318.02H244.551V327.56C244.551 330.47 246.201 332.15 249.171 332.15C250.401 332.15 251.661 331.79 252.501 331.04L251.751 329.51Z" fill="#737373"/>
<path d="M187.826 396.17C189.746 395.39 191.036 393.8 191.036 391.4C191.036 387.98 188.336 386 183.656 386H174.596V407H184.256C189.506 407 192.146 404.96 192.146 401.39C192.146 398.54 190.526 396.77 187.826 396.17ZM183.506 387.83C186.866 387.83 188.816 389.12 188.816 391.64C188.816 394.16 186.866 395.45 183.506 395.45H176.816V387.83H183.506ZM184.226 405.17H176.816V397.28H184.226C187.916 397.28 189.926 398.48 189.926 401.21C189.926 403.97 187.916 405.17 184.226 405.17ZM196.963 407H199.093V384.74H196.963V407ZM211.669 407.15C216.289 407.15 219.679 403.79 219.679 399.11C219.679 394.43 216.289 391.1 211.669 391.1C207.049 391.1 203.629 394.43 203.629 399.11C203.629 403.79 207.049 407.15 211.669 407.15ZM211.669 405.26C208.309 405.26 205.789 402.8 205.789 399.11C205.789 395.42 208.309 392.96 211.669 392.96C215.029 392.96 217.519 395.42 217.519 399.11C217.519 402.8 215.029 405.26 211.669 405.26ZM236.798 391.22V394.25C235.478 392.18 233.198 391.1 230.558 391.1C226.058 391.1 222.638 394.19 222.638 398.72C222.638 403.25 226.058 406.4 230.558 406.4C233.138 406.4 235.388 405.35 236.708 403.34V405.35C236.708 409.25 234.878 411.08 230.888 411.08C228.458 411.08 226.178 410.27 224.678 408.92L223.598 410.54C225.248 412.1 228.068 412.97 230.948 412.97C236.168 412.97 238.838 410.51 238.838 405.08V391.22H236.798ZM230.768 404.51C227.288 404.51 224.798 402.14 224.798 398.72C224.798 395.3 227.288 392.96 230.768 392.96C234.248 392.96 236.768 395.3 236.768 398.72C236.768 402.14 234.248 404.51 230.768 404.51Z" fill="#737373"/>
<path d="M158.19 478.79C159.41 478.79 160.46 478.59 161.34 478.19C162.22 477.77 163.14 477.11 164.1 476.21L166.38 478.55C164.16 481.01 161.46 482.24 158.28 482.24C155.12 482.24 152.49 481.22 150.39 479.18C148.31 477.14 147.27 474.56 147.27 471.44C147.27 468.32 148.33 465.72 150.45 463.64C152.59 461.56 155.28 460.52 158.52 460.52C161.78 460.52 164.5 461.72 166.68 464.12L164.43 466.58C163.43 465.62 162.48 464.95 161.58 464.57C160.7 464.19 159.66 464 158.46 464C156.34 464 154.56 464.69 153.12 466.07C151.68 467.43 150.96 469.18 150.96 471.32C150.96 473.44 151.67 475.22 153.09 476.66C154.53 478.08 156.23 478.79 158.19 478.79ZM173.71 477.8C174.67 478.76 175.88 479.24 177.34 479.24C178.8 479.24 180 478.76 180.94 477.8C181.9 476.82 182.38 475.56 182.38 474.02C182.38 472.48 181.9 471.23 180.94 470.27C180 469.29 178.8 468.8 177.34 468.8C175.88 468.8 174.67 469.29 173.71 470.27C172.77 471.23 172.3 472.48 172.3 474.02C172.3 475.56 172.77 476.82 173.71 477.8ZM183.34 479.87C181.74 481.45 179.74 482.24 177.34 482.24C174.94 482.24 172.94 481.45 171.34 479.87C169.74 478.27 168.94 476.32 168.94 474.02C168.94 471.72 169.74 469.78 171.34 468.2C172.94 466.6 174.94 465.8 177.34 465.8C179.74 465.8 181.74 466.6 183.34 468.2C184.94 469.78 185.74 471.72 185.74 474.02C185.74 476.32 184.94 478.27 183.34 479.87ZM193.12 473.36V482H189.76V466.04H193.12V468.95C193.66 467.97 194.4 467.2 195.34 466.64C196.3 466.08 197.33 465.8 198.43 465.8C200.23 465.8 201.68 466.35 202.78 467.45C203.9 468.55 204.46 470.14 204.46 472.22V482H201.1V473.24C201.1 470.3 199.88 468.83 197.44 468.83C196.28 468.83 195.27 469.22 194.41 470C193.55 470.76 193.12 471.88 193.12 473.36ZM213.29 468.74V476.84C213.29 477.6 213.49 478.21 213.89 478.67C214.29 479.11 214.85 479.33 215.57 479.33C216.29 479.33 216.98 478.98 217.64 478.28L219.02 480.65C217.84 481.71 216.53 482.24 215.09 482.24C213.67 482.24 212.45 481.75 211.43 480.77C210.43 479.77 209.93 478.43 209.93 476.75V468.74H207.92V466.04H209.93V461.03H213.29V466.04H217.49V468.74H213.29ZM234.819 482H231.759V479.87C230.439 481.45 228.669 482.24 226.449 482.24C224.789 482.24 223.409 481.77 222.309 480.83C221.229 479.89 220.689 478.64 220.689 477.08C220.689 475.5 221.269 474.32 222.429 473.54C223.589 472.76 225.159 472.37 227.139 472.37H231.489V471.77C231.489 469.65 230.309 468.59 227.949 468.59C226.469 468.59 224.929 469.13 223.329 470.21L221.829 468.11C223.769 466.57 225.969 465.8 228.429 465.8C230.309 465.8 231.839 466.28 233.019 467.24C234.219 468.18 234.819 469.67 234.819 471.71V482ZM231.459 476.06V474.71H227.679C225.259 474.71 224.049 475.47 224.049 476.99C224.049 477.77 224.349 478.37 224.949 478.79C225.549 479.19 226.379 479.39 227.439 479.39C228.519 479.39 229.459 479.09 230.259 478.49C231.059 477.89 231.459 477.08 231.459 476.06ZM246.776 482.24C244.556 482.24 242.646 481.49 241.046 479.99C239.446 478.47 238.646 476.49 238.646 474.05C238.646 471.61 239.476 469.63 241.136 468.11C242.816 466.57 244.856 465.8 247.256 465.8C249.656 465.8 251.686 466.63 253.346 468.29L251.366 470.72C249.986 469.52 248.596 468.92 247.196 468.92C245.796 468.92 244.576 469.39 243.536 470.33C242.516 471.25 242.006 472.45 242.006 473.93C242.006 475.39 242.516 476.63 243.536 477.65C244.556 478.67 245.806 479.18 247.286 479.18C248.786 479.18 250.196 478.5 251.516 477.14L253.496 479.3C251.556 481.26 249.316 482.24 246.776 482.24ZM261.321 468.74V476.84C261.321 477.6 261.521 478.21 261.921 478.67C262.321 479.11 262.881 479.33 263.601 479.33C264.321 479.33 265.011 478.98 265.671 478.28L267.051 480.65C265.871 481.71 264.561 482.24 263.121 482.24C261.701 482.24 260.481 481.75 259.461 480.77C258.461 479.77 257.961 478.43 257.961 476.75V468.74H255.951V466.04H257.961V461.03H261.321V466.04H265.521V468.74H261.321Z" fill="#737373"/>
<path d="M171.281 536H163.421V557H165.641V550.37H171.281C176.621 550.37 179.861 547.67 179.861 543.2C179.861 538.7 176.621 536 171.281 536ZM171.221 548.42H165.641V537.92H171.221C175.421 537.92 177.641 539.84 177.641 543.2C177.641 546.5 175.421 548.42 171.221 548.42ZM189.785 541.1C187.295 541.1 184.955 541.88 183.365 543.23L184.325 544.82C185.615 543.68 187.535 542.96 189.575 542.96C192.515 542.96 194.045 544.43 194.045 547.13V548.09H189.035C184.505 548.09 182.945 550.13 182.945 552.56C182.945 555.29 185.135 557.15 188.705 557.15C191.315 557.15 193.175 556.16 194.135 554.54V557H196.175V547.22C196.175 543.14 193.865 541.1 189.785 541.1ZM189.035 555.47C186.515 555.47 185.045 554.33 185.045 552.5C185.045 550.88 186.035 549.68 189.095 549.68H194.045V552.26C193.205 554.33 191.435 555.47 189.035 555.47ZM214.789 541.22V544.25C213.469 542.18 211.189 541.1 208.549 541.1C204.049 541.1 200.629 544.19 200.629 548.72C200.629 553.25 204.049 556.4 208.549 556.4C211.129 556.4 213.379 555.35 214.699 553.34V555.35C214.699 559.25 212.869 561.08 208.879 561.08C206.449 561.08 204.169 560.27 202.669 558.92L201.589 560.54C203.239 562.1 206.059 562.97 208.939 562.97C214.159 562.97 216.829 560.51 216.829 555.08V541.22H214.789ZM208.759 554.51C205.279 554.51 202.789 552.14 202.789 548.72C202.789 545.3 205.279 542.96 208.759 542.96C212.239 542.96 214.759 545.3 214.759 548.72C214.759 552.14 212.239 554.51 208.759 554.51ZM236.755 549.11C236.755 544.37 233.545 541.1 229.105 541.1C224.665 541.1 221.395 544.43 221.395 549.11C221.395 553.79 224.755 557.15 229.675 557.15C232.165 557.15 234.355 556.25 235.765 554.57L234.565 553.19C233.365 554.57 231.655 555.26 229.735 555.26C226.285 555.26 223.765 553.07 223.525 549.77H236.725C236.725 549.53 236.755 549.29 236.755 549.11ZM229.105 542.93C232.195 542.93 234.445 545.09 234.715 548.18H223.525C223.795 545.09 226.045 542.93 229.105 542.93ZM245.521 557.15C249.631 557.15 252.031 555.38 252.031 552.65C252.031 546.59 241.801 549.8 241.801 545.54C241.801 544.04 243.061 542.93 245.911 542.93C247.531 542.93 249.181 543.32 250.561 544.28L251.491 542.57C250.171 541.67 247.951 541.1 245.911 541.1C241.891 541.1 239.671 543.02 239.671 545.6C239.671 551.84 249.901 548.6 249.901 552.71C249.901 554.27 248.671 555.29 245.671 555.29C243.451 555.29 241.321 554.51 240.061 553.52L239.101 555.2C240.391 556.31 242.911 557.15 245.521 557.15Z" fill="#737373"/>
</g>
<g clip-path="url(#clip1_1_6429)">
<g clip-path="url(#clip2_1_6429)">
<g clip-path="url(#clip3_1_6429)">
<g clip-path="url(#clip4_1_6429)">
<path d="M80.5 627.5C82.2902 627.5 84.0071 626.763 85.273 625.45C86.5388 624.137 87.25 622.357 87.25 620.5C87.25 618.643 86.5388 616.863 85.273 615.55C84.0071 614.237 82.2902 613.5 80.5 613.5C78.7098 613.5 76.9929 614.237 75.727 615.55C74.4612 616.863 73.75 618.643 73.75 620.5C73.75 622.357 74.4612 624.137 75.727 625.45C76.9929 626.763 78.7098 627.5 80.5 627.5ZM85 620.5C85 621.738 84.5259 622.925 83.682 623.8C82.8381 624.675 81.6935 625.167 80.5 625.167C79.3065 625.167 78.1619 624.675 77.318 623.8C76.4741 622.925 76 621.738 76 620.5C76 619.262 76.4741 618.075 77.318 617.2C78.1619 616.325 79.3065 615.833 80.5 615.833C81.6935 615.833 82.8381 616.325 83.682 617.2C84.5259 618.075 85 619.262 85 620.5ZM94 639.167C94 641.5 91.75 641.5 91.75 641.5H69.25C69.25 641.5 67 641.5 67 639.167C67 636.833 69.25 629.833 80.5 629.833C91.75 629.833 94 636.833 94 639.167ZM91.75 639.157C91.7477 638.583 91.4035 636.857 89.878 635.275C88.411 633.753 85.6502 632.167 80.5 632.167C75.3475 632.167 72.589 633.753 71.122 635.275C69.5965 636.857 69.2545 638.583 69.25 639.157H91.75Z" fill="#23A6F0"/>
</g>
<path d="M102.389 638V617.03H105.929V634.64H115.499V638H102.389ZM122.557 633.8C123.517 634.76 124.727 635.24 126.187 635.24C127.647 635.24 128.847 634.76 129.787 633.8C130.747 632.82 131.227 631.56 131.227 630.02C131.227 628.48 130.747 627.23 129.787 626.27C128.847 625.29 127.647 624.8 126.187 624.8C124.727 624.8 123.517 625.29 122.557 626.27C121.617 627.23 121.147 628.48 121.147 630.02C121.147 631.56 121.617 632.82 122.557 633.8ZM132.187 635.87C130.587 637.45 128.587 638.24 126.187 638.24C123.787 638.24 121.787 637.45 120.187 635.87C118.587 634.27 117.787 632.32 117.787 630.02C117.787 627.72 118.587 625.78 120.187 624.2C121.787 622.6 123.787 621.8 126.187 621.8C128.587 621.8 130.587 622.6 132.187 624.2C133.787 625.78 134.587 627.72 134.587 630.02C134.587 632.32 133.787 634.27 132.187 635.87ZM153.367 622.04V635.96C153.367 638.78 152.597 640.89 151.057 642.29C149.537 643.71 147.577 644.42 145.177 644.42C142.777 644.42 140.607 643.67 138.667 642.17L140.257 639.62C141.817 640.8 143.387 641.39 144.967 641.39C146.567 641.39 147.827 640.98 148.747 640.16C149.687 639.34 150.157 638.03 150.157 636.23V634.19C149.657 635.13 148.937 635.88 147.997 636.44C147.077 637 146.037 637.28 144.877 637.28C142.757 637.28 141.017 636.54 139.657 635.06C138.297 633.58 137.617 631.74 137.617 629.54C137.617 627.34 138.297 625.5 139.657 624.02C141.017 622.54 142.747 621.8 144.847 621.8C146.967 621.8 148.687 622.67 150.007 624.41V622.04H153.367ZM140.917 629.42C140.917 630.72 141.317 631.85 142.117 632.81C142.937 633.75 144.027 634.22 145.387 634.22C146.767 634.22 147.877 633.76 148.717 632.84C149.577 631.92 150.007 630.78 150.007 629.42C150.007 628.04 149.577 626.88 148.717 625.94C147.857 624.98 146.747 624.5 145.387 624.5C144.027 624.5 142.937 624.99 142.117 625.97C141.317 626.95 140.917 628.1 140.917 629.42ZM161.796 638H158.436V622.04H161.796V638ZM158.646 618.86C158.226 618.44 158.016 617.94 158.016 617.36C158.016 616.78 158.226 616.28 158.646 615.86C159.066 615.44 159.566 615.23 160.146 615.23C160.726 615.23 161.226 615.44 161.646 615.86C162.066 616.28 162.276 616.78 162.276 617.36C162.276 617.94 162.066 618.44 161.646 618.86C161.226 619.28 160.726 619.49 160.146 619.49C159.566 619.49 159.066 619.28 158.646 618.86ZM170.229 629.36V638H166.869V622.04H170.229V624.95C170.769 623.97 171.509 623.2 172.449 622.64C173.409 622.08 174.439 621.8 175.539 621.8C177.339 621.8 178.789 622.35 179.889 623.45C181.009 624.55 181.569 626.14 181.569 628.22V638H178.209V629.24C178.209 626.3 176.989 624.83 174.549 624.83C173.389 624.83 172.379 625.22 171.519 626C170.659 626.76 170.229 627.88 170.229 629.36ZM206.296 613.67H209.296L196.306 641.51H193.306L206.296 613.67ZM238.355 623.84C238.355 627.3 236.845 629.48 233.825 630.38L239.315 638H234.815L229.805 630.95H225.155V638H221.615V617.03H229.415C232.615 617.03 234.905 617.57 236.285 618.65C237.665 619.73 238.355 621.46 238.355 623.84ZM229.565 627.74C231.565 627.74 232.925 627.43 233.645 626.81C234.365 626.19 234.725 625.2 234.725 623.84C234.725 622.46 234.355 621.52 233.615 621.02C232.875 620.5 231.555 620.24 229.655 620.24H225.155V627.74H229.565ZM258.012 631.49H245.502C245.582 632.65 246.112 633.59 247.092 634.31C248.072 635.01 249.192 635.36 250.452 635.36C252.452 635.36 253.972 634.73 255.012 633.47L256.932 635.57C255.212 637.35 252.972 638.24 250.212 638.24C247.972 638.24 246.062 637.5 244.482 636.02C242.922 634.52 242.142 632.52 242.142 630.02C242.142 627.5 242.942 625.5 244.542 624.02C246.142 622.54 248.022 621.8 250.182 621.8C252.362 621.8 254.212 622.46 255.732 623.78C257.252 625.08 258.012 626.88 258.012 629.18V631.49ZM245.502 628.85H254.652C254.652 627.51 254.232 626.48 253.392 625.76C252.552 625.04 251.512 624.68 250.272 624.68C249.052 624.68 247.952 625.06 246.972 625.82C245.992 626.56 245.502 627.57 245.502 628.85ZM276.667 622.04V635.96C276.667 638.78 275.897 640.89 274.357 642.29C272.837 643.71 270.877 644.42 268.477 644.42C266.077 644.42 263.907 643.67 261.967 642.17L263.557 639.62C265.117 640.8 266.687 641.39 268.267 641.39C269.867 641.39 271.127 640.98 272.047 640.16C272.987 639.34 273.457 638.03 273.457 636.23V634.19C272.957 635.13 272.237 635.88 271.297 636.44C270.377 637 269.337 637.28 268.177 637.28C266.057 637.28 264.317 636.54 262.957 635.06C261.597 633.58 260.917 631.74 260.917 629.54C260.917 627.34 261.597 625.5 262.957 624.02C264.317 622.54 266.047 621.8 268.147 621.8C270.267 621.8 271.987 622.67 273.307 624.41V622.04H276.667ZM264.217 629.42C264.217 630.72 264.617 631.85 265.417 632.81C266.237 633.75 267.327 634.22 268.687 634.22C270.067 634.22 271.177 633.76 272.017 632.84C272.877 631.92 273.307 630.78 273.307 629.42C273.307 628.04 272.877 626.88 272.017 625.94C271.157 624.98 270.047 624.5 268.687 624.5C267.327 624.5 266.237 624.99 265.417 625.97C264.617 626.95 264.217 628.1 264.217 629.42ZM285.095 638H281.735V622.04H285.095V638ZM281.945 618.86C281.525 618.44 281.315 617.94 281.315 617.36C281.315 616.78 281.525 616.28 281.945 615.86C282.365 615.44 282.865 615.23 283.445 615.23C284.025 615.23 284.525 615.44 284.945 615.86C285.365 616.28 285.575 616.78 285.575 617.36C285.575 617.94 285.365 618.44 284.945 618.86C284.525 619.28 284.025 619.49 283.445 619.49C282.865 619.49 282.365 619.28 281.945 618.86ZM301.538 633.23C301.538 634.75 300.988 635.97 299.888 636.89C298.788 637.79 297.378 638.24 295.658 638.24C294.498 638.24 293.288 638.03 292.028 637.61C290.788 637.19 289.688 636.6 288.728 635.84L290.348 633.23C292.208 634.63 294.008 635.33 295.748 635.33C296.508 635.33 297.108 635.16 297.548 634.82C297.988 634.46 298.208 634.01 298.208 633.47C298.208 632.67 297.148 631.95 295.028 631.31C294.868 631.25 294.748 631.21 294.668 631.19C291.348 630.29 289.688 628.79 289.688 626.69C289.688 625.21 290.258 624.03 291.398 623.15C292.558 622.25 294.058 621.8 295.898 621.8C297.738 621.8 299.478 622.34 301.118 623.42L299.858 625.91C298.558 625.05 297.148 624.62 295.628 624.62C294.828 624.62 294.178 624.77 293.678 625.07C293.178 625.35 292.928 625.78 292.928 626.36C292.928 626.88 293.188 627.26 293.708 627.5C294.068 627.68 294.568 627.85 295.208 628.01C295.868 628.17 296.448 628.33 296.948 628.49C297.448 628.65 297.928 628.83 298.388 629.03C298.868 629.23 299.378 629.51 299.918 629.87C300.998 630.59 301.538 631.71 301.538 633.23ZM309.684 624.74V632.84C309.684 633.6 309.884 634.21 310.284 634.67C310.684 635.11 311.244 635.33 311.964 635.33C312.684 635.33 313.374 634.98 314.034 634.28L315.414 636.65C314.234 637.71 312.924 638.24 311.484 638.24C310.064 638.24 308.844 637.75 307.824 636.77C306.824 635.77 306.324 634.43 306.324 632.75V624.74H304.314V622.04H306.324V617.03H309.684V622.04H313.884V624.74H309.684ZM333.133 631.49H320.623C320.703 632.65 321.233 633.59 322.213 634.31C323.193 635.01 324.313 635.36 325.573 635.36C327.573 635.36 329.093 634.73 330.133 633.47L332.053 635.57C330.333 637.35 328.093 638.24 325.333 638.24C323.093 638.24 321.183 637.5 319.603 636.02C318.043 634.52 317.263 632.52 317.263 630.02C317.263 627.5 318.063 625.5 319.663 624.02C321.263 622.54 323.143 621.8 325.303 621.8C327.483 621.8 329.333 622.46 330.853 623.78C332.373 625.08 333.133 626.88 333.133 629.18V631.49ZM320.623 628.85H329.773C329.773 627.51 329.353 626.48 328.513 625.76C327.673 625.04 326.633 624.68 325.393 624.68C324.173 624.68 323.073 625.06 322.093 625.82C321.113 626.56 320.623 627.57 320.623 628.85ZM345.398 625.19C343.738 625.19 342.488 625.73 341.648 626.81C340.808 627.89 340.388 629.34 340.388 631.16V638H337.028V622.04H340.388V625.25C340.928 624.25 341.658 623.43 342.578 622.79C343.518 622.15 344.508 621.82 345.548 621.8L345.578 625.19C345.518 625.19 345.458 625.19 345.398 625.19Z" fill="#23A6F0"/>
</g>
</g>
<g clip-path="url(#clip5_1_6429)">
<g clip-path="url(#clip6_1_6429)">
<g clip-path="url(#clip7_1_6429)">
<path d="M214.953 701.981C217.01 699.173 217.932 695.692 217.533 692.234C217.134 688.776 215.444 685.596 212.802 683.33C210.159 681.064 206.758 679.88 203.28 680.014C199.802 680.148 196.502 681.591 194.042 684.053C191.581 686.515 190.141 689.816 190.01 693.294C189.878 696.773 191.065 700.173 193.333 702.814C195.6 705.455 198.781 707.142 202.239 707.539C205.698 707.935 209.178 707.011 211.984 704.951H211.982C212.046 705.036 212.114 705.117 212.19 705.196L220.371 713.377C220.77 713.775 221.31 714 221.874 714C222.438 714 222.978 713.776 223.377 713.378C223.776 712.979 224 712.439 224 711.875C224 711.311 223.776 710.771 223.378 710.372L215.197 702.191C215.121 702.114 215.039 702.043 214.953 701.978V701.981ZM215.501 693.812C215.501 695.347 215.199 696.867 214.611 698.285C214.024 699.703 213.163 700.991 212.078 702.076C210.993 703.162 209.704 704.023 208.286 704.61C206.868 705.197 205.349 705.499 203.814 705.499C202.279 705.499 200.759 705.197 199.341 704.61C197.924 704.023 196.635 703.162 195.55 702.076C194.465 700.991 193.604 699.703 193.016 698.285C192.429 696.867 192.127 695.347 192.127 693.812C192.127 690.713 193.358 687.74 195.55 685.548C197.742 683.356 200.714 682.125 203.814 682.125C206.913 682.125 209.886 683.356 212.078 685.548C214.27 687.74 215.501 690.713 215.501 693.812Z" fill="#23A6F0"/>
</g>
</g>
</g>
<g clip-path="url(#clip8_1_6429)">
<g clip-path="url(#clip9_1_6429)">
<g clip-path="url(#clip10_1_6429)">
<path d="M183.5 747.469C183.5 747.162 183.622 746.868 183.839 746.651C184.055 746.434 184.35 746.312 184.656 746.312H188.125C188.383 746.313 188.633 746.399 188.837 746.558C189.04 746.716 189.184 746.939 189.247 747.189L190.183 750.938H217.031C217.201 750.938 217.369 750.975 217.522 751.047C217.676 751.12 217.812 751.225 217.92 751.356C218.029 751.486 218.107 751.639 218.149 751.804C218.192 751.968 218.198 752.14 218.167 752.306L214.698 770.806C214.648 771.071 214.508 771.311 214.3 771.483C214.093 771.655 213.832 771.75 213.562 771.75H192.75C192.48 771.75 192.219 771.655 192.012 771.483C191.805 771.311 191.664 771.071 191.615 770.806L188.148 752.341L187.223 748.625H184.656C184.35 748.625 184.055 748.503 183.839 748.286C183.622 748.07 183.5 747.775 183.5 747.469ZM190.673 753.25L193.71 769.438H212.603L215.639 753.25H190.673ZM195.062 771.75C193.836 771.75 192.659 772.237 191.792 773.105C190.925 773.972 190.438 775.148 190.438 776.375C190.438 777.602 190.925 778.778 191.792 779.645C192.659 780.513 193.836 781 195.062 781C196.289 781 197.466 780.513 198.333 779.645C199.2 778.778 199.688 777.602 199.688 776.375C199.688 775.148 199.2 773.972 198.333 773.105C197.466 772.237 196.289 771.75 195.062 771.75ZM211.25 771.75C210.023 771.75 208.847 772.237 207.98 773.105C207.112 773.972 206.625 775.148 206.625 776.375C206.625 777.602 207.112 778.778 207.98 779.645C208.847 780.513 210.023 781 211.25 781C212.477 781 213.653 780.513 214.52 779.645C215.388 778.778 215.875 777.602 215.875 776.375C215.875 775.148 215.388 773.972 214.52 773.105C213.653 772.237 212.477 771.75 211.25 771.75ZM195.062 774.062C195.676 774.062 196.264 774.306 196.698 774.74C197.131 775.173 197.375 775.762 197.375 776.375C197.375 776.988 197.131 777.577 196.698 778.01C196.264 778.444 195.676 778.688 195.062 778.688C194.449 778.688 193.861 778.444 193.427 778.01C192.994 777.577 192.75 776.988 192.75 776.375C192.75 775.762 192.994 775.173 193.427 774.74C193.861 774.306 194.449 774.062 195.062 774.062ZM211.25 774.062C211.863 774.062 212.452 774.306 212.885 774.74C213.319 775.173 213.562 775.762 213.562 776.375C213.562 776.988 213.319 777.577 212.885 778.01C212.452 778.444 211.863 778.688 211.25 778.688C210.637 778.688 210.048 778.444 209.615 778.01C209.181 777.577 208.938 776.988 208.938 776.375C208.938 775.762 209.181 775.173 209.615 774.74C210.048 774.306 210.637 774.062 211.25 774.062Z" fill="#23A6F0"/>
</g>
<path d="M226.063 758.112H229.111V766.5H227.767V759.372H226.063V758.112Z" fill="#23A6F0"/>
</g>
</g>
<g clip-path="url(#clip11_1_6429)">
<g clip-path="url(#clip12_1_6429)">
<g clip-path="url(#clip13_1_6429)">
<path d="M202 815.981L200.7 814.645C197.65 811.509 192.056 812.591 190.037 816.534C189.089 818.388 188.875 821.065 190.606 824.481C192.274 827.771 195.743 831.712 202 836.004C208.257 831.712 211.724 827.771 213.393 824.481C215.124 821.063 214.912 818.388 213.962 816.534C211.943 812.591 206.35 811.508 203.299 814.643L202 815.981ZM202 838.188C174.209 819.823 193.443 805.49 201.681 813.072C201.79 813.171 201.896 813.275 202 813.382C202.102 813.275 202.208 813.172 202.319 813.074C210.555 805.486 229.791 819.822 202 838.188Z" fill="#23A6F0"/>
</g>
<path d="M222.063 821.112H225.111V829.5H223.767V822.372H222.063V821.112Z" fill="#23A6F0"/>
</g>
</g>
</g>
<defs>
<clipPath id="clip0_1_6429">
<rect width="122" height="420" fill="white" transform="translate(145.5 149)"/>
</clipPath>
<clipPath id="clip1_1_6429">
<rect width="310" height="265" fill="white" transform="translate(52 590)"/>
</clipPath>
<clipPath id="clip2_1_6429">
<rect width="310" height="75" fill="white" transform="translate(52 590)"/>
</clipPath>
<clipPath id="clip3_1_6429">
<rect width="310" height="75" fill="white" transform="translate(52 590)"/>
</clipPath>
<clipPath id="clip4_1_6429">
<rect width="27" height="28" fill="white" transform="translate(67 613.5)"/>
</clipPath>
<clipPath id="clip5_1_6429">
<rect width="64" height="64" fill="white" transform="translate(175 665)"/>
</clipPath>
<clipPath id="clip6_1_6429">
<rect width="64" height="64" fill="white" transform="translate(175 665)"/>
</clipPath>
<clipPath id="clip7_1_6429">
<rect width="34" height="34" fill="white" transform="translate(190 680)"/>
</clipPath>
<clipPath id="clip8_1_6429">
<rect width="77" height="67" fill="white" transform="translate(168.5 729)"/>
</clipPath>
<clipPath id="clip9_1_6429">
<rect width="77" height="67" fill="white" transform="translate(168.5 729)"/>
</clipPath>
<clipPath id="clip10_1_6429">
<rect width="37" height="37" fill="white" transform="translate(183.5 744)"/>
</clipPath>
<clipPath id="clip11_1_6429">
<rect width="69" height="59" fill="white" transform="translate(172.5 796)"/>
</clipPath>
<clipPath id="clip12_1_6429">
<rect width="69" height="59" fill="white" transform="translate(172.5 796)"/>
</clipPath>
<clipPath id="clip13_1_6429">
<rect width="29" height="29" fill="white" transform="translate(187.5 811)"/>
</clipPath>
</defs>
</svg>
