<svg width="314" height="74" viewBox="0 0 314 74" fill="none" xmlns="http://www.w3.org/2000/svg">
<rect x="1" y="0.5" width="83" height="73" fill="#F3F3F3"/>
<rect x="1" y="0.5" width="83" height="73" stroke="#BDBDBD"/>
<path d="M29.0104 36.61H33.7144V38.43H29.0104V36.61ZM29.1784 42H26.9104V32.2H34.3164V34.02H29.1784V42ZM35.8978 42V34.468H38.0818V42H35.8978ZM36.9898 33.418C36.5885 33.418 36.2618 33.3013 36.0098 33.068C35.7578 32.8347 35.6318 32.5453 35.6318 32.2C35.6318 31.8547 35.7578 31.5653 36.0098 31.332C36.2618 31.0987 36.5885 30.982 36.9898 30.982C37.3912 30.982 37.7178 31.094 37.9698 31.318C38.2218 31.5327 38.3478 31.8127 38.3478 32.158C38.3478 32.522 38.2218 32.8253 37.9698 33.068C37.7272 33.3013 37.4005 33.418 36.9898 33.418ZM40.3088 42V34.468H42.3948V36.596L42.1008 35.98C42.3248 35.448 42.6841 35.0467 43.1788 34.776C43.6734 34.496 44.2754 34.356 44.9848 34.356V36.372C44.8914 36.3627 44.8074 36.358 44.7328 36.358C44.6581 36.3487 44.5788 36.344 44.4948 36.344C43.8974 36.344 43.4121 36.5167 43.0388 36.862C42.6748 37.198 42.4928 37.7253 42.4928 38.444V42H40.3088ZM49.0721 42.112C48.4281 42.112 47.8074 42.0373 47.2101 41.888C46.6221 41.7293 46.1554 41.5333 45.8101 41.3L46.5381 39.732C46.8834 39.9467 47.2894 40.124 47.7561 40.264C48.2321 40.3947 48.6987 40.46 49.1561 40.46C49.6601 40.46 50.0147 40.3993 50.2201 40.278C50.4347 40.1567 50.5421 39.9887 50.5421 39.774C50.5421 39.5967 50.4581 39.466 50.2901 39.382C50.1314 39.2887 49.9167 39.2187 49.6461 39.172C49.3754 39.1253 49.0767 39.0787 48.7501 39.032C48.4327 38.9853 48.1107 38.9247 47.7841 38.85C47.4574 38.766 47.1587 38.6447 46.8881 38.486C46.6174 38.3273 46.3981 38.1127 46.2301 37.842C46.0714 37.5713 45.9921 37.2213 45.9921 36.792C45.9921 36.316 46.1274 35.896 46.3981 35.532C46.6781 35.168 47.0794 34.8833 47.6021 34.678C48.1247 34.4633 48.7501 34.356 49.4781 34.356C49.9914 34.356 50.5141 34.412 51.0461 34.524C51.5781 34.636 52.0214 34.7993 52.3761 35.014L51.6481 36.568C51.2841 36.3533 50.9154 36.2087 50.5421 36.134C50.1781 36.05 49.8234 36.008 49.4781 36.008C48.9927 36.008 48.6381 36.0733 48.4141 36.204C48.1901 36.3347 48.0781 36.5027 48.0781 36.708C48.0781 36.8947 48.1574 37.0347 48.3161 37.128C48.4841 37.2213 48.7034 37.296 48.9741 37.352C49.2447 37.408 49.5387 37.4593 49.8561 37.506C50.1827 37.5433 50.5094 37.604 50.8361 37.688C51.1627 37.772 51.4567 37.8933 51.7181 38.052C51.9887 38.2013 52.2081 38.4113 52.3761 38.682C52.5441 38.9433 52.6281 39.2887 52.6281 39.718C52.6281 40.1847 52.4881 40.6 52.2081 40.964C51.9281 41.3187 51.5221 41.5987 50.9901 41.804C50.4674 42.0093 49.8281 42.112 49.0721 42.112ZM57.2556 42.112C56.3689 42.112 55.6782 41.888 55.1836 41.44C54.6889 40.9827 54.4416 40.306 54.4416 39.41V32.802H56.6256V39.382C56.6256 39.6993 56.7096 39.9467 56.8776 40.124C57.0456 40.292 57.2742 40.376 57.5636 40.376C57.9089 40.376 58.2029 40.2827 58.4456 40.096L59.0336 41.636C58.8096 41.7947 58.5389 41.916 58.2216 42C57.9136 42.0747 57.5916 42.112 57.2556 42.112ZM53.2796 36.316V34.636H58.5016V36.316H53.2796Z" fill="#BDBDBD"/>
<rect x="85" y="0.5" width="45" height="73" fill="white"/>
<rect x="85" y="0.5" width="45" height="73" stroke="#E9E9E9"/>
<path d="M106.817 42V33.04L107.797 34.02H104.857V32.2H109.085V42H106.817Z" fill="#23A6F0"/>
<rect x="131" y="0.5" width="48" height="73" fill="#23A6F0"/>
<rect x="131" y="0.5" width="48" height="73" stroke="#E9E9E9"/>
<path d="M151.333 42V40.53L155.113 36.96C155.412 36.6893 155.631 36.4467 155.771 36.232C155.911 36.0173 156.004 35.8213 156.051 35.644C156.107 35.4667 156.135 35.3033 156.135 35.154C156.135 34.762 156 34.4633 155.729 34.258C155.468 34.0433 155.08 33.936 154.567 33.936C154.156 33.936 153.774 34.0153 153.419 34.174C153.074 34.3327 152.78 34.58 152.537 34.916L150.885 33.852C151.258 33.292 151.781 32.8487 152.453 32.522C153.125 32.1953 153.9 32.032 154.777 32.032C155.505 32.032 156.14 32.1533 156.681 32.396C157.232 32.6293 157.656 32.9607 157.955 33.39C158.263 33.8193 158.417 34.3327 158.417 34.93C158.417 35.2473 158.375 35.5647 158.291 35.882C158.216 36.19 158.058 36.5167 157.815 36.862C157.582 37.2073 157.236 37.5947 156.779 38.024L153.643 40.978L153.209 40.152H158.739V42H151.333Z" fill="white"/>
<rect x="180" y="0.5" width="48" height="73" fill="white"/>
<rect x="180" y="0.5" width="48" height="73" stroke="#E9E9E9"/>
<path d="M203.581 42.168C202.9 42.168 202.223 42.0793 201.551 41.902C200.879 41.7153 200.31 41.454 199.843 41.118L200.725 39.382C201.099 39.6527 201.533 39.8673 202.027 40.026C202.522 40.1847 203.021 40.264 203.525 40.264C204.095 40.264 204.543 40.152 204.869 39.928C205.196 39.704 205.359 39.396 205.359 39.004C205.359 38.6307 205.215 38.3367 204.925 38.122C204.636 37.9073 204.169 37.8 203.525 37.8H202.489V36.302L205.219 33.208L205.471 34.02H200.333V32.2H207.193V33.67L204.477 36.764L203.329 36.106H203.987C205.191 36.106 206.101 36.3767 206.717 36.918C207.333 37.4593 207.641 38.1547 207.641 39.004C207.641 39.5547 207.497 40.0727 207.207 40.558C206.918 41.034 206.475 41.4213 205.877 41.72C205.28 42.0187 204.515 42.168 203.581 42.168Z" fill="#23A6F0"/>
<rect x="229" y="0.5" width="84" height="73" fill="white"/>
<rect x="229" y="0.5" width="84" height="73" stroke="#E8E8E8"/>
<path d="M254.69 42V32.2H256.566L262.348 39.256H261.438V32.2H263.678V42H261.816L256.02 34.944H256.93V42H254.69ZM269.781 42.112C268.922 42.112 268.166 41.944 267.513 41.608C266.869 41.272 266.369 40.8147 266.015 40.236C265.66 39.648 265.483 38.9807 265.483 38.234C265.483 37.478 265.655 36.8107 266.001 36.232C266.355 35.644 266.836 35.1867 267.443 34.86C268.049 34.524 268.735 34.356 269.501 34.356C270.238 34.356 270.901 34.5147 271.489 34.832C272.086 35.14 272.557 35.588 272.903 36.176C273.248 36.7547 273.421 37.45 273.421 38.262C273.421 38.346 273.416 38.444 273.407 38.556C273.397 38.6587 273.388 38.7567 273.379 38.85H267.261V37.576H272.231L271.391 37.954C271.391 37.562 271.311 37.2213 271.153 36.932C270.994 36.6427 270.775 36.4187 270.495 36.26C270.215 36.092 269.888 36.008 269.515 36.008C269.141 36.008 268.81 36.092 268.521 36.26C268.241 36.4187 268.021 36.6473 267.863 36.946C267.704 37.2353 267.625 37.5807 267.625 37.982V38.318C267.625 38.7287 267.713 39.0927 267.891 39.41C268.077 39.718 268.334 39.956 268.661 40.124C268.997 40.2827 269.389 40.362 269.837 40.362C270.238 40.362 270.588 40.3013 270.887 40.18C271.195 40.0587 271.475 39.8767 271.727 39.634L272.889 40.894C272.543 41.286 272.109 41.5893 271.587 41.804C271.064 42.0093 270.462 42.112 269.781 42.112ZM273.918 42L277.292 37.576L277.25 38.78L274.016 34.468H276.466L278.51 37.282L277.586 37.31L279.7 34.468H282.024L278.776 38.738V37.562L282.136 42H279.658L277.516 39.004L278.426 39.13L276.298 42H273.918ZM286.476 42.112C285.589 42.112 284.899 41.888 284.404 41.44C283.909 40.9827 283.662 40.306 283.662 39.41V32.802H285.846V39.382C285.846 39.6993 285.93 39.9467 286.098 40.124C286.266 40.292 286.495 40.376 286.784 40.376C287.129 40.376 287.423 40.2827 287.666 40.096L288.254 41.636C288.03 41.7947 287.759 41.916 287.442 42C287.134 42.0747 286.812 42.112 286.476 42.112ZM282.5 36.316V34.636H287.722V36.316H282.5Z" fill="#23A6F0"/>
</svg>
